<svg width="200" height="43" viewBox="0 0 200 43" fill="none" xmlns="http://www.w3.org/2000/svg">
<g clip-path="url(#clip0_137_3866)">
<path d="M104.965 18.9342H91.1399V32.3663H85.1624V0.256775H91.1399V13.8402H104.965V0.256775H110.938V32.3663H104.965V18.5812V18.9342Z" fill="#1E2333"/>
<path d="M46.8751 0.256775H44.323H41.7686L28.7944 32.3663H35.0615L44.1726 9.17022H44.4734L53.5014 32.3663H59.8515L46.8751 0.256775Z" fill="#1E2333"/>
<path d="M58.9333 25.3075L58.994 25.4702C59.4204 26.6417 61.9053 32.7858 70.0691 33.1136C83.1622 33.6409 82.9287 24.755 82.9287 22.9255C82.9287 21.7219 82.2957 18.0768 78.4798 15.9561C73.573 13.2234 65.2184 13.5535 65.2184 8.29443C65.2184 6.68277 66.5809 4.42231 70.6325 4.33748C74.5539 4.26183 76.6078 6.951 76.8861 8.4595L81.3642 7.07709C80.5696 5.23617 78.8659 0.0916748 70.4237 0.0916748C68.7672 0.0916748 67.2633 0.284249 65.9771 0.74276C60.7268 2.61348 59.7751 6.87993 59.7841 9.00512C59.8559 21.3047 77.2206 18.1089 77.0253 24.4638C76.9557 26.793 74.7874 28.634 70.4282 28.4368C65.912 28.2419 64.3677 25.3235 63.6426 23.6202L58.9333 25.3075Z" fill="#1E2333"/>
<path d="M15.6408 4.89476C19.5622 4.80535 21.8966 6.94659 22.3186 8.37256L27.1087 6.99015C26.3119 5.14923 23.5644 0.357795 15.8069 -0.00213623C1.11335 0.000156323 0 14.4845 0 15.954C0 31.2201 10.7901 32.9189 14.9831 33.123C18.7272 33.3133 24.4892 32.9052 27.304 32.3022V13.8403H12.1413V18.9458H21.6138C21.6609 18.9458 21.7013 18.9871 21.7013 19.0375V27.9854C21.7013 28.0381 21.6632 28.0931 21.6183 28.1092C21.6183 28.1092 19.2726 28.5998 15.8877 28.4783C14.5566 28.4347 6.24015 28.0862 6.24015 16.6189C6.24015 9.25061 9.73508 4.96124 15.6408 4.89476Z" fill="#1E2333"/>
</g>
<path d="M146.584 10.632C146.584 12.7163 146.105 14.5648 145.145 16.1775C144.201 17.775 142.853 19.0301 141.101 19.943C139.35 20.8406 137.263 21.2894 134.841 21.2894H126.845V32.6087H120.105V0.453735H134.567C138.42 0.453735 141.383 1.34376 143.454 3.12381C145.541 4.88864 146.584 7.39136 146.584 10.632ZM139.799 10.7461C139.799 7.36854 137.804 5.67977 133.813 5.67977H126.845V16.109H133.996C135.854 16.109 137.286 15.6526 138.291 14.7398C139.296 13.8117 139.799 12.4805 139.799 10.7461Z" fill="#008BF2"/>
<path d="M157.162 33.0651C154.771 33.0651 152.905 32.4185 151.565 31.1253C150.225 29.8169 149.554 27.9836 149.554 25.6254C149.554 23.0695 150.384 21.1297 152.045 19.806C153.72 18.4824 156.142 17.7902 159.31 17.7293L164.633 17.638V16.3829C164.633 14.7702 164.351 13.5759 163.788 12.8C163.224 12.0088 162.303 11.6133 161.023 11.6133C159.835 11.6133 158.96 11.8871 158.396 12.4348C157.848 12.9673 157.505 13.8573 157.368 15.1049L150.674 14.7854C151.512 9.90168 155.053 7.45982 161.298 7.45982C164.42 7.45982 166.826 8.22813 168.517 9.76476C170.208 11.3014 171.053 13.4846 171.053 16.3144V25.3059C171.053 26.6904 171.205 27.6489 171.51 28.1814C171.83 28.6987 172.355 28.9573 173.086 28.9573C173.574 28.9573 174.046 28.9117 174.503 28.8204V32.2892C173.711 32.487 173.033 32.6315 172.47 32.7228C171.906 32.8293 171.213 32.8826 170.391 32.8826C168.776 32.8826 167.58 32.487 166.804 31.6959C166.042 30.9047 165.585 29.7408 165.433 28.2042H165.296C164.397 29.8169 163.27 31.034 161.914 31.8556C160.559 32.662 158.975 33.0651 157.162 33.0651ZM164.633 21.1753L161.343 21.221C159.835 21.297 158.777 21.4568 158.168 21.7002C157.543 21.9741 157.063 22.3848 156.728 22.9325C156.408 23.4803 156.248 24.2105 156.248 25.1234C156.248 26.2949 156.515 27.1697 157.048 27.7478C157.596 28.3107 158.32 28.5922 159.219 28.5922C160.224 28.5922 161.145 28.3183 161.983 27.7706C162.805 27.2229 163.453 26.4698 163.925 25.5113C164.397 24.5376 164.633 23.5107 164.633 22.4305V21.1753Z" fill="#008BF2"/>
<path d="M180.694 42.3077C179.126 42.3077 177.778 42.2088 176.651 42.011V37.4468C177.504 37.5685 178.242 37.6293 178.867 37.6293C180.359 37.6293 181.471 37.2262 182.202 36.4198C182.949 35.6135 183.672 34.2594 184.373 32.3577L174.594 7.91624H181.38L185.264 19.4866C185.568 20.3233 185.911 21.3731 186.292 22.6359C186.673 23.8986 187.099 25.3896 187.571 27.1088C187.922 25.7091 188.257 24.4159 188.577 23.2292C188.896 22.0425 189.247 20.8254 189.628 19.5778L193.283 7.91624H200L190.222 33.9095C189.826 34.9593 189.407 35.8873 188.965 36.6937C188.523 37.5 188.074 38.2151 187.617 38.8389C186.688 40.1016 185.675 40.9917 184.578 41.5089C183.482 42.0414 182.187 42.3077 180.694 42.3077Z" fill="#008BF2"/>
<defs>
<clipPath id="clip0_137_3866">
<rect width="110.938" height="33.1687" fill="white"/>
</clipPath>
</defs>
</svg>
