<svg width="1000" height="411" viewBox="0 0 1000 411" fill="none" xmlns="http://www.w3.org/2000/svg">
<g clip-path="url(#clip0_211_1036)">
<path d="M513.688 45.9994H489.495V69.4095H479.034V13.4475H489.495V37.1213H513.688V13.4475H524.141V69.4095H513.688V45.3841V45.9994Z" fill="#1E2333"/>
<path d="M412.032 13.4475H407.565H403.095L380.39 69.4095H391.358L407.302 28.9823H407.829L423.628 69.4095H434.74L412.032 13.4475Z" fill="#1E2333"/>
<path d="M433.134 57.1072L433.24 57.3909C433.986 59.4326 438.334 70.1407 452.621 70.7121C475.534 71.6311 475.125 56.1442 475.125 52.9558C475.125 50.8581 474.018 44.5051 467.34 40.8092C458.753 36.0465 444.132 36.6218 444.132 27.456C444.132 24.6471 446.517 20.7075 453.607 20.5596C460.47 20.4278 464.064 25.1146 464.551 27.7437L472.388 25.3343C470.997 22.1259 468.016 13.1598 453.242 13.1598C450.343 13.1598 447.711 13.4954 445.46 14.2946C436.272 17.555 434.607 24.9907 434.622 28.6946C434.748 50.1309 465.136 44.5611 464.794 55.6368C464.673 59.6963 460.878 62.9047 453.25 62.5611C445.346 62.2215 442.644 57.1351 441.375 54.1664L433.134 57.1072Z" fill="#1E2333"/>
<path d="M357.371 21.5308C364.234 21.375 368.319 25.1068 369.058 27.5921L377.44 25.1828C376.046 21.9743 371.238 13.6236 357.662 12.9962C331.948 13.0002 330 38.2443 330 40.8055C330 67.412 348.883 70.3727 356.22 70.7283C362.773 71.06 372.856 70.3487 377.782 69.2979V37.1215H351.247V46.0197H367.824C367.907 46.0197 367.977 46.0916 367.977 46.1795V61.7742C367.977 61.8661 367.911 61.962 367.832 61.99C367.832 61.99 363.727 62.8451 357.803 62.6333C355.474 62.5574 340.92 61.9501 340.92 41.9642C340.92 29.1224 347.036 21.6467 357.371 21.5308Z" fill="#1E2333"/>
</g>
<path d="M586.523 31.5299C586.523 35.1626 585.683 38.3843 584.004 41.1949C582.351 43.9791 579.992 46.1667 576.927 47.7576C573.862 49.3221 570.21 50.1043 565.972 50.1043H551.978V69.8321H540.184V13.7908H565.492C572.236 13.7908 577.42 15.342 581.045 18.4443C584.697 21.5202 586.523 25.882 586.523 31.5299ZM574.648 31.7288C574.648 25.8423 571.156 22.899 564.173 22.899H551.978V41.0756H564.493C567.745 41.0756 570.25 40.2801 572.009 38.6892C573.768 37.0717 574.648 34.7516 574.648 31.7288Z" fill="#008BF2"/>
<path d="M605.034 70.6275C600.849 70.6275 597.584 69.5006 595.239 67.2468C592.893 64.9664 591.72 61.7713 591.72 57.6613C591.72 53.2066 593.173 49.8259 596.078 47.519C599.01 45.2121 603.248 44.0056 608.792 43.8996L618.108 43.7405V41.5529C618.108 38.7422 617.615 36.6607 616.629 35.3084C615.643 33.9296 614.03 33.2402 611.791 33.2402C609.712 33.2402 608.179 33.7175 607.193 34.672C606.234 35.6001 605.634 37.1513 605.394 39.3256L593.679 38.7687C595.145 30.2572 601.343 26.0014 612.271 26.0014C617.735 26.0014 621.946 27.3404 624.905 30.0185C627.864 32.6966 629.343 36.5016 629.343 41.4336V57.1045C629.343 59.5174 629.61 61.1879 630.143 62.116C630.702 63.0175 631.622 63.4683 632.901 63.4683C633.754 63.4683 634.581 63.3887 635.38 63.2296V69.2752C633.994 69.6199 632.808 69.8718 631.822 70.0309C630.836 70.2166 629.623 70.3094 628.184 70.3094C625.358 70.3094 623.266 69.6199 621.907 68.2411C620.574 66.8623 619.774 64.8338 619.508 62.1557H619.268C617.695 64.9664 615.723 67.0877 613.35 68.5195C610.978 69.9249 608.206 70.6275 605.034 70.6275ZM618.108 49.9054L612.351 49.985C609.712 50.1175 607.86 50.396 606.793 50.8202C605.701 51.2975 604.861 52.0134 604.275 52.968C603.715 53.9226 603.435 55.1953 603.435 56.7863C603.435 58.828 603.901 60.3527 604.834 61.3603C605.794 62.3413 607.06 62.8319 608.633 62.8319C610.392 62.8319 612.004 62.3546 613.47 61.4C614.91 60.4455 616.043 59.1329 616.869 57.4624C617.695 55.7654 618.108 53.9756 618.108 52.093V49.9054Z" fill="#008BF2"/>
<path d="M646.215 86.7359C643.47 86.7359 641.111 86.5636 639.139 86.2189V78.2641C640.631 78.4762 641.924 78.5823 643.017 78.5823C645.629 78.5823 647.575 77.8796 648.854 76.4743C650.16 75.069 651.426 72.709 652.652 69.3946L635.54 26.7968H647.415L654.212 46.9621C654.745 48.4205 655.345 50.2501 656.011 52.4509C656.677 54.6517 657.424 57.2503 658.25 60.2466C658.863 57.8071 659.449 55.5533 660.009 53.485C660.569 51.4168 661.182 49.2955 661.848 47.1212L668.245 26.7968H680L662.888 72.0992C662.195 73.9288 661.462 75.5462 660.689 76.9516C659.916 78.3569 659.13 79.6032 658.33 80.6903C656.704 82.8911 654.931 84.4423 653.012 85.3439C651.093 86.2719 648.828 86.7359 646.215 86.7359Z" fill="#008BF2"/>
<path d="M176 32H258.736L270 47L258.736 62H176L186.115 47L176 32Z" fill="#008BF2"/>
<path d="M740 32H822.736L834 47L822.736 62H740L750.115 47L740 32Z" fill="#008BF2"/>
<path d="M9.75052 11H104.249C108.525 11 112 14.4592 112 18.7219V75.9567C112 80.2167 108.528 83.6786 104.249 83.6786H9.75052C5.47475 83.6786 2 80.2194 2 75.9567V18.7219C2 14.4592 5.47202 11 9.75052 11Z" stroke="#008BF2" stroke-width="4" stroke-miterlimit="10"/>
<path d="M2 31.9949H111.997" stroke="#008BF2" stroke-width="12" stroke-miterlimit="10"/>
<path d="M13.176 68.8803H20.5575" stroke="#008BF2" stroke-width="4"/>
<path d="M24.1116 68.8803H31.493" stroke="#008BF2" stroke-width="4"/>
<path d="M35.0469 68.8803H42.4283" stroke="#008BF2" stroke-width="4"/>
<path d="M45.9824 68.8803H53.3639" stroke="#008BF2" stroke-width="4"/>
<rect x="80.9448" y="59.9922" width="20.1169" height="12.6543" rx="3" fill="#008BF2"/>
<path d="M40.896 125.048L38.184 125.984C41.304 131.84 46.392 135.056 54.48 136.208C54.888 135.392 55.68 134.072 56.328 133.4C48.6 132.536 43.368 129.776 40.896 125.048ZM35.832 122.432V125.24H51.216V122.432H35.832ZM34.656 116.792V119.648H55.224V116.792H34.656ZM43.416 113.624V123.704H46.416V113.624H43.416ZM50.28 122.432V122.96C48.096 129.488 41.736 132.32 33.672 133.376C34.224 134.024 34.968 135.392 35.232 136.16C43.56 134.768 50.544 131.264 53.424 123.488L51.408 122.336L50.904 122.432H50.28ZM65.4 118.808V121.736H80.232V118.808H65.4ZM74.592 113.888V132.656C74.592 133.208 74.352 133.376 73.752 133.4C73.176 133.424 71.088 133.424 69.216 133.328C69.648 134.096 70.176 135.392 70.32 136.184C72.984 136.208 74.808 136.16 75.984 135.704C77.136 135.272 77.568 134.504 77.568 132.68V113.888H74.592ZM66.48 124.64C67.56 126.488 68.976 128.96 69.6 130.424L72.336 129.032C71.616 127.568 70.104 125.192 69.024 123.44L66.48 124.64ZM60.984 120.68V136.112H63.912V117.824L63.888 117.776L60.984 120.68ZM63.384 113.744C62.088 117.272 59.904 120.776 57.6 122.96C58.128 123.68 58.992 125.264 59.304 125.984C62.016 123.224 64.608 118.832 66.216 114.656L63.384 113.744Z" fill="#1E2333"/>
<g clip-path="url(#clip1_211_1036)">
<path d="M945 1.89627V27.9132C945 35.157 938.918 41.0354 931.674 41.0354C924.429 41.0354 918.145 35.157 918.145 27.9132" stroke="#008BF2" stroke-width="4" stroke-miterlimit="10"/>
<path d="M925.01 1.89627L918.145 27.8753C918.145 35.1191 912.265 40.9975 905.021 40.9975C897.776 40.9975 891.896 35.1191 891.896 27.8753L904.54 1.89627H985.46L998.103 27.8753V27.9764C998.103 35.2202 992.224 41.0987 984.979 41.0987C977.734 41.0987 971.451 35.1949 971.451 27.9385" stroke="#008BF2" stroke-width="4" stroke-miterlimit="10"/>
<path d="M964.99 1.89627L971.451 27.9132V27.9511C971.451 35.1949 965.571 41.0734 958.326 41.0734C951.082 41.0734 945 35.1949 945 27.9511" stroke="#008BF2" stroke-width="4" stroke-miterlimit="10"/>
<path d="M902 89V41" stroke="#008BF2" stroke-width="4" stroke-miterlimit="10"/>
<path d="M933 89V41" stroke="#008BF2" stroke-width="4" stroke-miterlimit="10"/>
<path d="M996 88H894" stroke="#008BF2" stroke-width="8" stroke-miterlimit="10"/>
<path d="M989 41V89" stroke="#008BF2" stroke-width="4" stroke-miterlimit="10"/>
<path d="M923.279 67.9511C925.074 67.9511 926.529 66.4962 926.529 64.7016C926.529 62.9069 925.074 61.452 923.279 61.452C921.484 61.452 920.029 62.9069 920.029 64.7016C920.029 66.4962 921.484 67.9511 923.279 67.9511Z" fill="#008BF2"/>
</g>
<path d="M903 121.376V123.896H915.048V121.376H903ZM902.712 132.776V135.296H915.096V132.776H902.712ZM901.44 126.296V136.208H904.272V128.84H913.776V136.208H916.728V126.296H901.44ZM908.904 116.48C910.992 119.336 915.024 122.6 918.72 124.544C919.224 123.656 919.896 122.672 920.616 121.952C916.752 120.392 912.888 117.344 910.272 113.648H907.272C905.496 116.6 901.632 120.224 897.48 122.24C898.104 122.84 898.896 123.896 899.28 124.568C903.24 122.456 906.936 119.288 908.904 116.48ZM932.808 117.536L931.464 120.272H944.328V117.536H932.808ZM935.976 122.816V125.432H943.704V122.816H935.976ZM935.952 128.12V130.808H944.016V128.12H935.952ZM934.512 118.448V136.16H937.464V118.448H934.512ZM933.36 113.84C932.256 117.32 930.36 120.776 928.248 122.936C928.872 123.392 929.976 124.424 930.432 124.952C932.64 122.456 934.8 118.472 936.144 114.584L933.36 113.84ZM927.024 113.72C925.8 117.152 923.712 120.56 921.504 122.744C922.008 123.464 922.824 125.096 923.088 125.816C925.728 123.08 928.248 118.688 929.808 114.608L927.024 113.72ZM924.6 120.344V136.136H927.504V117.464L927.48 117.44L924.6 120.344ZM946.464 115.448V118.04H967.56V115.448H946.464ZM955.392 113.624V116.984H958.368V113.624H955.392ZM947.256 119.936V136.112H949.992V122.408H965.712V119.936H947.256ZM964.224 119.936V133.016C964.224 133.352 964.104 133.472 963.696 133.472C963.288 133.496 961.896 133.496 960.648 133.424C961.032 134.144 961.464 135.416 961.584 136.184C963.48 136.184 964.824 136.112 965.784 135.68C966.72 135.248 967.008 134.432 967.008 133.04V119.936H964.224ZM953.304 122.096C953.184 124.016 952.68 124.952 949.704 125.48C950.208 125.936 950.808 126.872 951.024 127.472C954.84 126.608 955.656 124.976 955.848 122.096H953.304ZM957.744 122.096V123.968C957.744 125.936 958.2 126.56 960.336 126.56C960.744 126.56 961.848 126.56 962.28 126.56C963.768 126.56 964.392 126.008 964.632 123.968C963.984 123.824 962.976 123.488 962.52 123.152C962.448 124.328 962.352 124.496 961.968 124.496C961.728 124.496 960.936 124.496 960.72 124.496C960.288 124.496 960.24 124.448 960.24 123.92V122.096H957.744ZM952.344 127.472V135.032H954.888V127.472H952.344ZM953.928 127.472V129.584H959.232V131.624H953.928V133.736H961.824V127.472H953.928ZM950.76 117.992C951.144 118.808 951.576 119.912 951.72 120.608L954.696 120.008C954.504 119.312 954.048 118.28 953.616 117.512L950.76 117.992ZM960.144 117.488C959.88 118.232 959.376 119.312 958.968 120.056L961.824 120.536C962.256 119.888 962.76 119.024 963.336 117.968L960.144 117.488ZM979.488 113.648V117.08H982.44V113.648H979.488ZM970.824 115.52V120.944H973.632V118.136H988.32V120.944H991.248V115.52H970.824ZM974.472 119.672V122.12H987.432V119.672H974.472ZM976.824 123.944C981.408 127.208 981.408 131.96 980.04 133.016C979.632 133.448 979.176 133.52 978.576 133.52C977.952 133.52 977.16 133.496 976.272 133.4C976.776 134.216 977.04 135.368 977.088 136.16C977.808 136.208 978.528 136.232 979.128 136.208C980.4 136.208 981.168 135.992 982.08 135.2C984.648 133.352 984.696 126.584 979.032 122.648L976.824 123.944ZM980.616 120.296C978.528 122.288 974.424 123.776 970.608 124.544C971.064 125.072 971.808 126.224 972.072 126.776C976.08 125.72 980.448 123.872 982.992 121.28L980.616 120.296ZM978.744 125.072C977.04 126.368 973.56 127.808 970.944 128.432C971.472 129.008 972.072 129.992 972.384 130.616C975.072 129.68 978.6 127.904 980.592 126.368L978.744 125.072ZM980.688 127.352C978.456 129.512 973.872 131.768 970.08 132.704C970.632 133.328 971.256 134.36 971.592 135.08C975.408 133.808 980.088 131.264 982.656 128.816L980.688 127.352ZM984.336 120.704L981.912 121.184C983.28 127.232 985.68 132.032 990.216 134.456C990.648 133.664 991.56 132.512 992.208 131.936C987.96 130.04 985.488 125.744 984.336 120.704ZM989.016 122.264C987.768 123.464 985.632 125 984.12 125.864L985.968 127.592C987.528 126.8 989.616 125.456 991.272 124.208L989.016 122.264Z" fill="#1E2333"/>
<path d="M216.896 395.784V398.208H226.4V395.784H216.896ZM216.872 400.008V402.408H226.4V400.008H216.872ZM226.16 385.176C225.68 386.64 224.768 388.536 224.048 389.76L226.544 390.696C227.288 389.544 228.176 387.84 228.968 386.16L226.16 385.176ZM214.232 386.424C215.168 387.816 216.104 389.664 216.416 390.888L219.008 389.664C218.648 388.44 217.616 386.664 216.656 385.344L214.232 386.424ZM214.976 391.32V407.136H217.808V394.008H226.448V391.32H214.976ZM225.104 391.32V404.016C225.104 404.328 224.984 404.424 224.624 404.448C224.264 404.448 222.992 404.448 221.888 404.4C222.248 405.144 222.632 406.32 222.752 407.088C224.552 407.088 225.848 407.064 226.76 406.632C227.648 406.176 227.912 405.408 227.912 404.04V391.32H225.104ZM220.088 384.6V393.12H222.992V384.6H220.088ZM207.776 386.832C209.264 387.624 211.136 388.896 211.976 389.784L213.776 387.576C212.84 386.664 210.944 385.536 209.456 384.816L207.776 386.832ZM206.672 393.216C208.208 394.008 210.104 395.28 210.992 396.192L212.72 393.936C211.76 393.024 209.816 391.872 208.304 391.176L206.672 393.216ZM207.344 405.192L209.864 407.04C211.16 404.616 212.504 401.832 213.584 399.24L211.472 397.512C210.176 400.32 208.52 403.368 207.344 405.192ZM234.248 388.32V390.024H251.144V385.68H232.52V387.384H248.528V388.32H234.248ZM233.408 388.32C233 389.76 232.424 391.488 231.896 392.688L234.512 392.856C234.992 391.656 235.592 389.88 236.096 388.32H233.408ZM233.672 390.936L233.144 392.64H250.928V390.936H233.672ZM249.992 390.936V391.248C249.896 392.568 249.824 393.12 249.656 393.336C249.512 393.48 249.368 393.504 249.152 393.504C248.888 393.504 248.408 393.48 247.808 393.408C248.048 393.888 248.288 394.656 248.312 395.136C249.248 395.184 250.112 395.184 250.592 395.16C251.096 395.112 251.624 394.944 251.984 394.56C252.392 394.104 252.536 393.264 252.656 391.704C252.656 391.416 252.68 390.936 252.68 390.936H249.992ZM237.992 384.624V389.52C237.992 391.896 237.128 393.624 230.96 394.44C231.44 394.944 232.088 396.024 232.328 396.648C239.456 395.592 240.608 393 240.608 389.592V384.624H237.992ZM243.296 384.624V394.296H246.032V384.624H243.296ZM236.912 398.352H247.28V399.336H236.912V398.352ZM236.912 400.872H247.28V401.856H236.912V400.872ZM236.912 395.856H247.28V396.816H236.912V395.856ZM234.128 394.224V403.488H250.208V394.224H234.128ZM243.32 404.64C245.816 405.456 248.336 406.464 249.728 407.208L252.944 405.816C251.216 405.072 248.216 403.992 245.648 403.2L243.32 404.64ZM238.04 403.2C236.408 404.04 233.552 404.76 231.008 405.168C231.632 405.648 232.616 406.68 233.096 407.256C235.544 406.632 238.64 405.552 240.608 404.376L238.04 403.2ZM255.176 391.896V394.44H276.776V391.896H255.176ZM257.264 387.216V389.712H270.992V387.216H257.264ZM261.488 400.272V402.432H272.216V400.272H261.488ZM261.488 404.04V406.464H272.216V404.04H261.488ZM262.928 384.624V393.312H265.76V384.624H262.928ZM273.488 385.32C269.288 391.344 262.232 395.928 254.432 398.424C254.96 399 255.824 400.2 256.16 400.824C263.936 397.968 271.256 393.144 275.96 386.592L273.488 385.32ZM259.88 396.36V407.184H262.76V398.712H271.04V407.088H274.04V396.36H259.88Z" fill="#1E2333"/>
<path d="M636.576 389.736V392.16H644.712V389.736H636.576ZM633.624 404.112L634.416 406.896C636.528 406.416 639.216 405.792 641.712 405.168L641.4 402.48C638.592 403.128 635.64 403.752 633.624 404.112ZM636.648 385.512V388.056H643.464V393.888H636.648V396.408H646.224V385.512H636.648ZM641.856 395.568L639.384 395.928C640.32 401.184 642.024 405.216 645.768 407.232C646.176 406.464 646.992 405.36 647.616 404.832C644.304 403.296 642.648 399.768 641.856 395.568ZM645.24 397.032C644.328 397.992 642.768 399.264 641.688 399.984L643.272 401.688C644.4 401.04 645.936 399.984 647.184 399L645.24 397.032ZM635.448 385.512V405L638.16 404.52V385.512H635.448ZM626.424 390.576V392.976H633.888V390.576H626.424ZM625.392 394.752V397.2H634.416V394.752H625.392ZM625.584 398.568C625.968 399.912 626.328 401.616 626.4 402.768L628.392 402.216C628.272 401.112 627.888 399.408 627.456 398.088L625.584 398.568ZM625.008 404.064L625.584 406.656C628.152 406.224 631.56 405.624 634.728 405.024L634.56 402.6C631.08 403.176 627.432 403.728 625.008 404.064ZM632.352 397.872C632.208 399.072 631.8 400.824 631.464 401.928L633.192 402.432C633.576 401.424 634.056 399.84 634.536 398.4L632.352 397.872ZM628.728 391.608V404.928L631.224 404.496V391.608H628.728ZM628.728 384.624C627.912 386.496 626.448 388.752 624.288 390.48C624.84 390.864 625.656 391.8 626.04 392.4C628.56 390.264 630.12 387.768 631.104 385.944V385.152H630.288V384.624H628.728ZM629.088 384.624V386.664H629.592C630.984 387.792 632.712 389.88 633.48 391.152L635.352 388.92C634.464 387.648 632.592 385.848 631.104 384.624H629.088ZM658.704 385.992V388.728H670.44V385.992H658.704ZM664.8 393.456V403.752C664.8 404.112 664.656 404.208 664.2 404.232C663.768 404.232 662.184 404.232 660.816 404.16C661.2 405 661.584 406.248 661.68 407.088C663.84 407.088 665.352 407.064 666.384 406.632C667.44 406.176 667.752 405.36 667.752 403.824V393.456H664.8ZM657.672 392.64V395.376H671.064V392.64H657.672ZM652.296 395.472V407.184H655.176V393.096L654.816 392.952L652.296 395.472ZM655.008 389.856C653.424 392.568 650.808 395.352 648.36 397.08C648.936 397.656 649.92 398.952 650.328 399.552C652.896 397.44 655.848 394.08 657.744 390.888L655.008 389.856ZM654.096 384.624C652.92 386.304 650.616 388.464 648.624 389.76C649.104 390.336 649.848 391.464 650.232 392.112C652.512 390.528 655.104 388.032 656.856 385.752L654.096 384.624ZM673.008 399.792V402.072H694.992V399.792H673.008ZM673.68 386.16V388.344H694.128V386.16H673.68ZM686.808 398.4V404.304C686.808 404.592 686.688 404.688 686.304 404.712C685.92 404.712 684.528 404.712 683.376 404.664C683.736 405.36 684.096 406.416 684.192 407.16C686.04 407.16 687.384 407.136 688.368 406.776C689.328 406.392 689.592 405.696 689.592 404.4V398.4H686.808ZM682.536 384.624V397.56H685.368V384.624H682.536ZM676.848 402.888C678.168 403.8 679.752 405.168 680.472 406.104L682.584 404.28C681.816 403.344 680.136 402.072 678.816 401.232L676.848 402.888ZM678.288 393.48H689.808V394.392H678.288V393.48ZM678.288 390.936H689.808V391.848H678.288V390.936ZM675.576 389.208V396.144H692.64V389.208H675.576ZM687.384 396.528C689.136 397.272 691.248 398.592 692.376 399.552L694.104 398.088C692.952 397.2 690.84 395.952 689.064 395.232L687.384 396.528ZM674.04 397.032L674.136 399.096C678.744 399.048 685.608 398.928 692.04 398.736L692.16 396.96C685.536 397.032 678.456 397.056 674.04 397.032ZM701.616 397.176V399.84H714.768V397.176H701.616ZM701.88 390.984V393.648H713.568V401.04H716.472V390.984H701.88ZM713.664 384.648C710.592 385.704 705.456 386.64 700.848 387.168C701.184 387.768 701.544 388.824 701.664 389.472C706.416 388.944 711.96 388.056 715.968 386.784L713.664 384.648ZM700.032 386.496V393.504C700.032 397.032 699.744 401.784 696.768 405.216C697.488 405.552 698.64 406.536 699.072 407.184C702.48 403.296 702.96 397.344 702.96 393.552V387.936C703.392 387.84 703.584 387.72 703.608 387.48L700.032 386.496Z" fill="#1E2333"/>
<path d="M425 297H549.5L560.764 312L549.5 327H425L435.115 312L425 297Z" fill="#CADEF1"/>
<path d="M242.356 303.638C253.598 303.638 262.712 294.541 262.712 283.319C262.712 272.097 253.598 263 242.356 263C231.114 263 222 272.097 222 283.319C222 294.541 231.114 303.638 242.356 303.638Z" stroke="#008BF2" stroke-width="4" stroke-miterlimit="10"/>
<path d="M207 350.5L207 334.89C207 323.356 215.74 314 226.516 314H258.484C269.26 314 278 323.356 278 334.89V350.5" stroke="#008BF2" stroke-width="4" stroke-miterlimit="10"/>
<circle cx="325" cy="300" r="25" fill="#FFA60C"/>
<circle cx="325" cy="300" r="20.3636" stroke="white" stroke-width="2"/>
<path d="M326.122 297.987C323.572 297.074 321.362 296.262 321.362 294.739C321.362 293.081 322.858 292.066 325.238 292.066C327.618 292.066 328.944 292.743 330.712 294.096L330.95 294.266L333.092 291.999L332.854 291.762C331.052 290.104 329.182 289.225 326.836 288.988V285.909H323.844V288.988C319.968 289.495 317.554 291.694 317.554 294.807C317.554 298.494 321.328 299.915 324.66 301.167C327.312 302.148 329.794 303.096 329.794 304.923C329.794 306.749 328.196 307.731 325.51 307.731C323.13 307.731 320.852 306.952 318.506 305.295L318.234 305.092L316.364 307.764L316.602 307.967C318.472 309.456 321.226 310.539 323.844 310.809V314.091H326.836V310.809C330.984 310.302 333.636 307.9 333.636 304.686C333.636 300.66 329.658 299.239 326.122 297.953V297.987Z" fill="white" stroke="white"/>
<circle cx="337" cy="300" r="25" fill="#FFA60C"/>
<circle cx="337" cy="300" r="20.3636" stroke="white" stroke-width="2"/>
<path d="M338.122 297.987C335.572 297.074 333.362 296.262 333.362 294.739C333.362 293.081 334.858 292.066 337.238 292.066C339.618 292.066 340.944 292.743 342.712 294.096L342.95 294.266L345.092 291.999L344.854 291.762C343.052 290.104 341.182 289.225 338.836 288.988V285.909H335.844V288.988C331.968 289.495 329.554 291.694 329.554 294.807C329.554 298.494 333.328 299.915 336.66 301.167C339.312 302.148 341.794 303.096 341.794 304.923C341.794 306.749 340.196 307.731 337.51 307.731C335.13 307.731 332.852 306.952 330.506 305.295L330.234 305.092L328.364 307.764L328.602 307.967C330.472 309.456 333.226 310.539 335.844 310.809V314.091H338.836V310.809C342.984 310.302 345.636 307.9 345.636 304.686C345.636 300.66 341.658 299.239 338.122 297.953V297.987Z" fill="white" stroke="white"/>
<circle cx="767" cy="300" r="25" fill="#FFA60C"/>
<circle cx="767" cy="300" r="20.3636" stroke="white" stroke-width="2"/>
<path d="M768.122 297.987C765.572 297.074 763.362 296.262 763.362 294.739C763.362 293.081 764.858 292.066 767.238 292.066C769.618 292.066 770.944 292.743 772.712 294.096L772.95 294.266L775.092 291.999L774.854 291.762C773.052 290.104 771.182 289.225 768.836 288.988V285.909H765.844V288.988C761.968 289.495 759.554 291.694 759.554 294.807C759.554 298.494 763.328 299.915 766.66 301.167C769.312 302.148 771.794 303.096 771.794 304.923C771.794 306.749 770.196 307.731 767.51 307.731C765.13 307.731 762.852 306.952 760.506 305.295L760.234 305.092L758.364 307.764L758.602 307.967C760.472 309.456 763.226 310.539 765.844 310.809V314.091H768.836V310.809C772.984 310.302 775.636 307.9 775.636 304.686C775.636 300.66 771.658 299.239 768.122 297.953V297.987Z" fill="white" stroke="white"/>
<circle cx="779" cy="300" r="25" fill="#FFA60C"/>
<circle cx="779" cy="300" r="20.3636" stroke="white" stroke-width="2"/>
<path d="M780.122 297.987C777.572 297.074 775.362 296.262 775.362 294.739C775.362 293.081 776.858 292.066 779.238 292.066C781.618 292.066 782.944 292.743 784.712 294.096L784.95 294.266L787.092 291.999L786.854 291.762C785.052 290.104 783.182 289.225 780.836 288.988V285.909H777.844V288.988C773.968 289.495 771.554 291.694 771.554 294.807C771.554 298.494 775.328 299.915 778.66 301.167C781.312 302.148 783.794 303.096 783.794 304.923C783.794 306.749 782.196 307.731 779.51 307.731C777.13 307.731 774.852 306.952 772.506 305.295L772.234 305.092L770.364 307.764L770.602 307.967C772.472 309.456 775.226 310.539 777.844 310.809V314.091H780.836V310.809C784.984 310.302 787.636 307.9 787.636 304.686C787.636 300.66 783.658 299.239 780.122 297.953V297.987Z" fill="white" stroke="white"/>
<path d="M718 294.579L671.959 255L626 294.579" stroke="#008BF2" stroke-width="4" stroke-miterlimit="10"/>
<path d="M632.363 288.642H710.661" stroke="#008BF2" stroke-width="4" stroke-miterlimit="10"/>
<path d="M672 281.25C674.887 281.25 677.227 278.899 677.227 276C677.227 273.101 674.887 270.75 672 270.75C669.113 270.75 666.773 273.101 666.773 276C666.773 278.899 669.113 281.25 672 281.25Z" fill="#008BF2"/>
<path d="M627.272 352H717.315" stroke="#008BF2" stroke-width="4" stroke-miterlimit="10"/>
<path d="M633.635 342.88H711.262" stroke="#008BF2" stroke-width="4" stroke-miterlimit="10"/>
<path d="M662.48 298.537V332.609" stroke="#008BF2" stroke-width="4" stroke-miterlimit="10"/>
<path d="M682.415 298.537V332.609" stroke="#008BF2" stroke-width="4" stroke-miterlimit="10"/>
<path d="M702.353 298.537V332.609" stroke="#008BF2" stroke-width="4" stroke-miterlimit="10"/>
<path d="M642.543 298.537V332.609" stroke="#008BF2" stroke-width="4" stroke-miterlimit="10"/>
<path d="M43 327H133.236L144.5 312L133.236 297H73V193L58 203L43 193L43 327Z" fill="#CADEF1"/>
<path d="M958.001 326.5L958.001 204.264L943.001 193L928.001 204.264L928.001 296.5L857 296.5L867 311.5L857 326.5L958.001 326.5Z" fill="#CADEF1"/>
<defs>
<clipPath id="clip0_211_1036">
<rect width="194.141" height="57.808" fill="white" transform="translate(330 13)"/>
</clipPath>
<clipPath id="clip1_211_1036">
<rect width="110" height="93.1452" fill="white" transform="translate(890)"/>
</clipPath>
</defs>
</svg>
