<svg width="792" height="541" viewBox="0 0 792 541" fill="none" xmlns="http://www.w3.org/2000/svg">
<g opacity="0.8">
<path d="M723.984 86.5371L655.99 47.2794L723.984 8L791.979 47.2577L723.984 86.5153V86.5371ZM660.794 47.2794L723.984 83.7547L787.175 47.2794L723.984 10.7824L660.794 47.2577V47.2794Z" fill="#F0F5FA"/>
<path d="M592.778 86.5371L592.169 86.1893L524.761 47.2794L592.778 8L593.386 8.3478L660.794 47.2577L592.799 86.5153L592.778 86.5371ZM529.587 47.2794L592.778 83.7547L655.968 47.2794L592.778 10.7824L529.587 47.2577V47.2794Z" fill="#F0F5FA"/>
<path d="M658.381 124.404L590.387 85.1461L658.381 45.8884L726.376 85.1461L658.381 124.404ZM595.191 85.1461L658.381 121.621L721.572 85.1461L658.381 48.6708L595.191 85.1461Z" fill="#F0F5FA"/>
<path d="M723.984 162.27L723.376 161.922L655.968 123.012L723.963 83.7546L724.571 84.1024L791.979 123.012L723.984 162.27V162.27ZM660.794 123.012L723.984 159.488L787.175 123.012L723.984 86.537L660.794 123.012Z" fill="#F0F5FA"/>
<path d="M461.593 86.5371L460.984 86.1893L393.577 47.2794L461.593 8L462.202 8.3478L529.609 47.2577L461.615 86.5153L461.593 86.5371ZM398.402 47.2794L461.593 83.7547L524.783 47.2794L461.593 10.7824L398.402 47.2577V47.2794Z" fill="#F0F5FA"/>
<path d="M527.196 124.404L526.587 124.056L459.18 85.1461L527.174 45.8884L527.783 46.2362L595.191 85.1461L527.196 124.404ZM464.006 85.1461L527.196 121.621L590.387 85.1461L527.196 48.6708L464.006 85.1461V85.1461Z" fill="#F0F5FA"/>
<path d="M592.778 162.27L592.169 161.922L524.761 123.012L592.756 83.7546L660.75 123.012L592.756 162.27H592.778ZM529.587 123.012L592.778 159.488L655.968 123.012L592.778 86.537L529.587 123.012Z" fill="#F0F5FA"/>
<path d="M658.381 200.158L590.387 160.901L658.381 121.643L658.99 121.991L726.398 160.901L658.403 200.158H658.381ZM595.191 160.901L658.381 197.376L721.572 160.901L658.381 124.425L595.191 160.901Z" fill="#F0F5FA"/>
<path d="M723.984 238.025L655.968 198.767L723.963 159.509L724.571 159.857L791.979 198.767L723.984 238.025V238.025ZM660.794 198.767L723.984 235.242L787.175 198.767L723.984 162.292L660.794 198.767Z" fill="#F0F5FA"/>
<path d="M330.386 86.5371L329.777 86.1893L262.37 47.2794L330.386 8L398.402 47.2577L330.408 86.5153L330.386 86.5371ZM267.196 47.2794L330.386 83.7547L393.577 47.2794L330.386 10.7824L267.196 47.2577V47.2794Z" fill="#F0F5FA"/>
<path d="M395.989 124.404L327.973 85.1461L395.967 45.8884L396.576 46.2362L463.984 85.1461L395.989 124.404ZM332.799 85.1461L395.989 121.621L459.18 85.1461L395.989 48.6708L332.799 85.1461Z" fill="#F0F5FA"/>
<path d="M461.593 162.27L460.984 161.922L393.577 123.012L461.571 83.7546L462.18 84.1024L529.587 123.012L461.593 162.27ZM398.402 123.012L461.593 159.488L524.783 123.012L461.593 86.537L398.402 123.012Z" fill="#F0F5FA"/>
<path d="M527.196 200.158L526.587 199.81L459.18 160.901L527.174 121.643L527.783 121.991L595.191 160.901L527.196 200.158ZM464.006 160.901L527.196 197.376L590.387 160.901L527.196 124.425L464.006 160.901V160.901Z" fill="#F0F5FA"/>
<path d="M592.778 238.025L524.783 198.767L592.778 159.509L660.772 198.767L592.778 238.025V238.025ZM529.587 198.767L592.778 235.242L655.968 198.767L592.778 162.292L529.587 198.767Z" fill="#F0F5FA"/>
<path d="M658.381 275.891L657.773 275.543L590.365 236.634L658.36 197.376L726.376 236.634L658.381 275.891V275.891ZM595.191 236.634L658.381 273.109L721.572 236.634L658.381 200.158L595.191 236.634Z" fill="#F0F5FA"/>
<path d="M723.984 313.758L655.968 274.5L723.963 235.242L724.571 235.59L791.979 274.5L723.984 313.758V313.758ZM660.794 274.5L723.984 310.975L787.175 274.5L723.984 238.025L660.794 274.5Z" fill="#F0F5FA"/>
<path d="M199.201 86.5371L198.593 86.1893L131.185 47.2794L199.201 8L199.81 8.3478L267.218 47.2577L199.223 86.5153L199.201 86.5371ZM136.011 47.2794L199.201 83.7547L262.392 47.2794L199.201 10.7824L136.011 47.2577V47.2794Z" fill="#F0F5FA"/>
<path d="M264.805 124.404L264.196 124.056L196.788 85.1461L264.783 45.8884L265.391 46.2362L332.799 85.1461L264.805 124.404ZM201.614 85.1461L264.805 121.621L327.995 85.1461L264.805 48.6708L201.614 85.1461Z" fill="#F0F5FA"/>
<path d="M330.408 162.27L329.799 161.922L262.392 123.012L330.386 83.7546L398.402 123.012L330.408 162.27V162.27ZM267.217 123.012L330.408 159.488L393.598 123.012L330.408 86.537L267.217 123.012Z" fill="#F0F5FA"/>
<path d="M395.989 200.137L395.381 199.789L327.973 160.879L395.967 121.621L396.576 121.969L463.984 160.879L395.989 200.137V200.137ZM332.799 160.879L395.989 197.354L459.18 160.879L395.989 124.404L332.799 160.879Z" fill="#F0F5FA"/>
<path d="M461.593 238.025L393.577 198.767L461.571 159.509L462.18 159.857L529.587 198.767L461.593 238.025ZM398.402 198.767L461.593 235.242L524.783 198.767L461.593 162.292L398.402 198.767Z" fill="#F0F5FA"/>
<path d="M527.196 275.891L459.202 236.634L527.196 197.376L595.19 236.634L527.196 275.891ZM464.006 236.634L527.196 273.109L590.386 236.634L527.196 200.158L464.006 236.634V236.634Z" fill="#F0F5FA"/>
<path d="M592.799 313.758L592.191 313.41L524.783 274.5L592.778 235.242L593.386 235.59L660.794 274.5L592.799 313.758V313.758ZM529.609 274.5L592.799 310.975L655.99 274.5L592.799 238.025L529.609 274.5Z" fill="#F0F5FA"/>
<path d="M658.381 351.646L657.773 351.298L590.365 312.388L658.36 273.13L726.376 312.388L658.381 351.646ZM595.191 312.388L658.381 348.863L721.572 312.388L658.381 275.913L595.191 312.388Z" fill="#F0F5FA"/>
<path d="M723.984 389.512L723.376 389.165L655.968 350.255L723.963 310.997L724.571 311.345L791.979 350.255L723.984 389.512V389.512ZM660.794 350.255L723.984 386.73L787.175 350.255L723.984 313.78L660.794 350.255Z" fill="#F0F5FA"/>
<path d="M68.0162 86.5153L67.4075 86.1675L0 47.2577L67.9945 8L136.011 47.2577L68.0162 86.5153ZM4.80396 47.2577L67.9945 83.733L131.185 47.2577L67.9945 10.7824L4.80396 47.2577Z" fill="#F0F5FA"/>
<path d="M133.598 124.404L132.989 124.056L65.5815 85.1461L133.576 45.8884L134.185 46.2362L201.592 85.1461L133.598 124.404V124.404ZM70.4072 85.1461L133.598 121.621L196.788 85.1461L133.598 48.6708L70.4072 85.1461Z" fill="#F0F5FA"/>
<path d="M199.201 162.27L131.185 123.012L199.18 83.7546L199.788 84.1024L267.196 123.012L199.201 162.27V162.27ZM136.011 123.012L199.201 159.488L262.392 123.012L199.201 86.537L136.011 123.012V123.012Z" fill="#F0F5FA"/>
<path d="M264.805 200.137L264.196 199.789L196.788 160.879L264.783 121.621L265.391 121.969L332.799 160.879L264.805 200.137V200.137ZM201.614 160.879L264.805 197.354L327.995 160.879L264.805 124.404L201.614 160.879Z" fill="#F0F5FA"/>
<path d="M330.408 238.025L329.799 237.677L262.392 198.767L330.386 159.509L330.995 159.857L398.402 198.767L330.408 238.025ZM267.217 198.767L330.408 235.242L393.598 198.767L330.408 162.292L267.217 198.767Z" fill="#F0F5FA"/>
<path d="M395.989 275.891L395.381 275.543L327.973 236.634L395.967 197.376L463.984 236.634L395.989 275.891V275.891ZM332.799 236.634L395.989 273.109L459.18 236.634L395.989 200.158L332.799 236.634Z" fill="#F0F5FA"/>
<path d="M461.593 313.758L460.984 313.41L393.577 274.5L461.571 235.242L529.566 274.5L461.571 313.758H461.593ZM398.402 274.5L461.593 310.975L524.783 274.5L461.593 238.025L398.402 274.5Z" fill="#F0F5FA"/>
<path d="M527.196 351.646L459.202 312.388L527.196 273.13L527.805 273.478L595.212 312.388L527.218 351.646H527.196ZM464.006 312.388L527.196 348.863L590.387 312.388L527.196 275.913L464.006 312.388V312.388Z" fill="#F0F5FA"/>
<path d="M592.799 389.512L592.191 389.165L524.783 350.255L592.778 310.997L593.386 311.345L660.794 350.255L592.799 389.512V389.512ZM529.609 350.255L592.799 386.73L655.99 350.255L592.799 313.78L529.609 350.255Z" fill="#F0F5FA"/>
<path d="M658.381 427.379L657.773 427.031L590.365 388.121L658.36 348.864L658.968 349.211L726.376 388.121L658.381 427.379ZM595.191 388.121L658.381 424.596L721.572 388.121L658.381 351.646L595.191 388.121Z" fill="#F0F5FA"/>
<path d="M723.984 465.267L723.376 464.919L655.968 426.009L723.963 386.752L791.979 426.009L723.984 465.267V465.267ZM660.794 426.009L723.984 462.485L787.175 426.009L723.984 389.534L660.794 426.009Z" fill="#F0F5FA"/>
<path d="M68.0162 162.27L67.4075 161.922L0 123.012L67.9945 83.7546L68.6031 84.1024L136.011 123.012L68.0162 162.27V162.27ZM4.82569 123.012L68.0162 159.488L131.207 123.012L68.0162 86.537L4.82569 123.012Z" fill="#F0F5FA"/>
<path d="M133.598 200.137L132.989 199.789L65.5815 160.879L133.576 121.621L201.592 160.879L133.598 200.137V200.137ZM70.4072 160.879L133.598 197.354L196.788 160.879L133.598 124.404L70.4072 160.879Z" fill="#F0F5FA"/>
<path d="M199.201 238.025L131.185 198.767L199.18 159.509L199.788 159.857L267.196 198.767L199.201 238.025ZM136.011 198.767L199.201 235.242L262.392 198.767L199.201 162.292L136.011 198.767V198.767Z" fill="#F0F5FA"/>
<path d="M264.805 275.891L264.196 275.543L196.788 236.634L264.783 197.376L265.391 197.724L332.799 236.634L264.805 275.891V275.891ZM201.614 236.634L264.805 273.109L327.995 236.634L264.805 200.158L201.614 236.634Z" fill="#F0F5FA"/>
<path d="M330.408 313.758L329.799 313.41L262.392 274.5L330.386 235.242L330.995 235.59L398.402 274.5L330.408 313.758ZM267.217 274.5L330.408 310.975L393.598 274.5L330.408 238.025L267.217 274.5Z" fill="#F0F5FA"/>
<path d="M395.989 351.646L395.381 351.298L327.973 312.388L395.967 273.13L396.576 273.478L463.984 312.388L395.989 351.646ZM332.799 312.388L395.989 348.863L459.18 312.388L395.989 275.913L332.799 312.388Z" fill="#F0F5FA"/>
<path d="M461.593 389.512L393.598 350.255L461.593 310.997L529.587 350.255L461.593 389.512ZM398.402 350.255L461.593 386.73L524.783 350.255L461.593 313.78L398.402 350.255Z" fill="#F0F5FA"/>
<path d="M527.196 427.379L459.18 388.121L527.174 348.864L527.783 349.211L595.191 388.121L527.196 427.379ZM464.006 388.121L527.196 424.596L590.387 388.121L527.196 351.646L464.006 388.121V388.121Z" fill="#F0F5FA"/>
<path d="M592.799 465.267L592.191 464.919L524.783 426.009L592.778 386.752L593.386 387.099L660.794 426.009L592.799 465.267V465.267ZM529.609 426.009L592.799 462.485L655.99 426.009L592.799 389.534L529.609 426.009Z" fill="#F0F5FA"/>
<path d="M658.381 503.134L657.773 502.786L590.365 463.876L658.36 424.618L658.968 424.966L726.376 463.876L658.381 503.134ZM595.191 463.876L658.381 500.351L721.572 463.876L658.381 427.401L595.191 463.876Z" fill="#F0F5FA"/>
<path d="M723.984 541L723.376 540.652L655.968 501.742L723.963 462.485L724.571 462.832L791.979 501.742L723.984 541V541ZM660.794 501.742L723.984 538.218L787.175 501.742L723.984 465.267L660.794 501.742Z" fill="#F0F5FA"/>
<path d="M68.0162 238.024L67.4075 237.677L0 198.745L67.9945 159.487L68.6031 159.835L136.011 198.745L68.0162 238.003V238.024ZM4.82569 198.745L68.0162 235.22L131.207 198.745L68.0162 162.27L4.82569 198.745Z" fill="#F0F5FA"/>
<path d="M133.598 275.891L132.989 275.543L65.5815 236.634L133.576 197.376L201.592 236.634L133.598 275.891V275.891ZM70.4072 236.634L133.598 273.109L196.788 236.634L133.598 200.158L70.4072 236.634Z" fill="#F0F5FA"/>
<path d="M199.201 313.758L198.593 313.41L131.185 274.5L199.18 235.242L199.788 235.59L267.196 274.5L199.201 313.758ZM136.011 274.5L199.201 310.975L262.392 274.5L199.201 238.025L136.011 274.5V274.5Z" fill="#F0F5FA"/>
<path d="M264.805 351.646L196.788 312.388L264.783 273.13L265.391 273.478L332.799 312.388L264.805 351.646ZM201.614 312.388L264.805 348.863L327.995 312.388L264.805 275.913L201.614 312.388Z" fill="#F0F5FA"/>
<path d="M330.408 389.512L329.799 389.165L262.392 350.255L330.386 310.997L330.995 311.345L398.402 350.255L330.408 389.512ZM267.217 350.255L330.408 386.73L393.598 350.255L330.408 313.78L267.217 350.255Z" fill="#F0F5FA"/>
<path d="M395.989 427.379L327.995 388.121L395.989 348.864L463.984 388.121L395.989 427.379ZM332.799 388.121L395.989 424.596L459.18 388.121L395.989 351.646L332.799 388.121Z" fill="#F0F5FA"/>
<path d="M461.593 465.245L460.984 464.898L393.577 425.988L461.571 386.73L529.587 425.988L461.593 465.245ZM398.402 425.988L461.593 462.463L524.783 425.988L461.593 389.512L398.402 425.988Z" fill="#F0F5FA"/>
<path d="M527.196 503.134L526.587 502.786L459.18 463.876L527.174 424.618L527.783 424.966L595.191 463.876L527.196 503.134ZM464.006 463.876L527.196 500.351L590.387 463.876L527.196 427.401L464.006 463.876V463.876Z" fill="#F0F5FA"/>
<path d="M592.799 541L524.783 501.742L592.778 462.485L593.386 462.832L660.794 501.742L592.799 541V541ZM529.609 501.742L592.799 538.218L655.99 501.742L592.799 465.267L529.609 501.742Z" fill="#F0F5FA"/>
<path d="M68.0162 313.758L67.4075 313.41L0 274.5L67.9945 235.242L68.6031 235.59L136.011 274.5L68.0162 313.758V313.758ZM4.82569 274.5L68.0162 310.975L131.207 274.5L68.0162 238.025L4.82569 274.5Z" fill="#F0F5FA"/>
<path d="M133.619 351.624L133.011 351.276L65.6031 312.366L133.598 273.109L134.206 273.457L201.614 312.366L133.619 351.624ZM70.4288 312.366L133.619 348.842L196.81 312.366L133.619 275.891L70.4288 312.366V312.366Z" fill="#F0F5FA"/>
<path d="M199.201 389.512L198.593 389.165L131.185 350.255L199.18 310.997L267.196 350.255L199.201 389.512V389.512ZM136.011 350.255L199.201 386.73L262.392 350.255L199.201 313.78L136.011 350.255V350.255Z" fill="#F0F5FA"/>
<path d="M264.805 427.379L196.788 388.121L264.783 348.864L265.391 349.211L332.799 388.121L264.805 427.379ZM201.614 388.121L264.805 424.596L327.995 388.121L264.805 351.646L201.614 388.121Z" fill="#F0F5FA"/>
<path d="M330.408 465.245L329.799 464.898L262.392 425.988L330.386 386.73L398.38 425.988L330.386 465.245H330.408ZM267.217 425.988L330.408 462.463L393.598 425.988L330.408 389.512L267.217 425.988Z" fill="#F0F5FA"/>
<path d="M396.011 503.134L328.017 463.876L396.011 424.618L396.62 424.966L464.027 463.876L396.033 503.134H396.011ZM332.821 463.876L396.011 500.351L459.202 463.876L396.011 427.401L332.821 463.876Z" fill="#F0F5FA"/>
<path d="M461.593 541L460.984 540.652L393.577 501.742L461.571 462.485L462.18 462.832L529.587 501.742L461.593 541ZM398.402 501.742L461.593 538.218L524.783 501.742L461.593 465.267L398.402 501.742Z" fill="#F0F5FA"/>
<path d="M68.0162 389.512L67.4075 389.165L0 350.255L67.9945 310.997L68.6031 311.345L136.011 350.255L68.0162 389.512V389.512ZM4.82569 350.255L68.0162 386.73L131.207 350.255L68.0162 313.78L4.82569 350.255Z" fill="#F0F5FA"/>
<path d="M133.619 427.379L133.011 427.031L65.6031 388.121L133.598 348.864L134.206 349.211L201.614 388.121L133.619 427.379ZM70.4288 388.121L133.619 424.596L196.81 388.121L133.619 351.646L70.4288 388.121V388.121Z" fill="#F0F5FA"/>
<path d="M199.201 465.245L198.593 464.898L131.185 425.988L199.18 386.73L267.196 425.988L199.201 465.245V465.245ZM136.011 425.988L199.201 462.463L262.392 425.988L199.201 389.512L136.011 425.988V425.988Z" fill="#F0F5FA"/>
<path d="M264.805 503.134L264.196 502.786L196.788 463.876L264.783 424.618L265.391 424.966L332.799 463.876L264.805 503.134ZM201.614 463.876L264.805 500.351L327.995 463.876L264.805 427.401L201.614 463.876Z" fill="#F0F5FA"/>
<path d="M330.408 541L262.413 501.742L330.408 462.485L398.402 501.742L330.408 541ZM267.217 501.742L330.408 538.218L393.598 501.742L330.408 465.267L267.217 501.742Z" fill="#F0F5FA"/>
<path d="M68.0162 465.245L0 425.988L67.9945 386.73L68.6031 387.078L136.011 425.988L68.0162 465.245V465.245ZM4.82569 425.988L68.0162 462.463L131.207 425.988L68.0162 389.512L4.82569 425.988Z" fill="#F0F5FA"/>
<path d="M133.619 503.134L133.011 502.786L65.6031 463.876L133.598 424.618L134.206 424.966L201.614 463.876L133.619 503.134ZM70.4288 463.876L133.619 500.351L196.81 463.876L133.619 427.401L70.4288 463.876V463.876Z" fill="#F0F5FA"/>
<path d="M199.223 541L198.614 540.652L131.207 501.742L199.201 462.485L199.81 462.832L267.218 501.742L199.223 541ZM136.033 501.742L199.223 538.218L262.414 501.742L199.223 465.267L136.033 501.742Z" fill="#F0F5FA"/>
<path d="M68.0162 541L0 501.742L67.9945 462.485L68.6031 462.832L136.011 501.742L68.0162 541V541ZM4.82569 501.742L68.0162 538.218L131.207 501.742L68.0162 465.267L4.82569 501.742Z" fill="#F0F5FA"/>
</g>
<g opacity="0.7">
<path d="M650 231.998L718.557 273.884L687.5 292.5L724 314L791.924 273.884L684 212.5L650 231.998Z" fill="#4992C8" fill-opacity="0.1"/>
<path d="M336.762 314.887L265.232 273L197 312.5L234 334L267.556 314.454L303.443 335.803L336.762 314.887Z" fill="#4992C8" fill-opacity="0.1"/>
<path d="M595 85L527.5 46L460 84.5L496 106L530.324 85.5533L562 104L595 85Z" fill="#4992C8" fill-opacity="0.1"/>
<path d="M30 367L71.0972 342L143.032 384.022L72.0971 426.179L140.654 466.201L106.254 488.307L0 425.72L65.5 388L30 367Z" fill="#4992C8" fill-opacity="0.1"/>
<path d="M314.06 121.936L241.314 163.445L168.569 121.936L133.871 141.961L241.314 204.494L349.19 142.691L314.06 121.936Z" fill="#4992C8" fill-opacity="0.1"/>
</g>
<path d="M314.351 325.832C304.248 331.667 287.726 331.667 277.622 325.832L93.5777 217.303C83.4741 211.469 83.4741 201.918 93.5777 196.083L280.755 92.2833C290.858 86.4484 307.38 86.4484 317.484 92.2833L501.529 200.812C511.632 206.647 511.632 216.198 501.529 222.033L314.351 325.863V325.832Z" fill="#5784B1" fill-opacity="0.5"/>
<path d="M467.164 164.329C466.12 163.285 464.83 162.302 463.295 161.411L313.277 73.2124C303.787 67.7461 288.248 67.7461 278.759 73.2124L126.56 158.156C125.148 158.955 123.95 159.845 122.967 160.797C115.873 166.325 112.864 176.244 126.591 184.167L276.609 272.366C286.098 277.863 301.638 277.863 311.127 272.366L463.325 187.453C463.94 187.085 464.523 186.716 465.045 186.348C476.531 178.763 473.736 169.642 467.195 164.36L467.164 164.329Z" fill="white"/>
<path d="M467.164 157.573C466.12 156.529 464.83 155.546 463.295 154.655L313.277 66.4565C303.787 60.9901 288.248 60.9901 278.759 66.4565L126.56 151.4C125.148 152.199 123.95 153.089 122.967 154.041C115.873 159.569 112.864 169.488 126.591 177.411L276.609 265.61C286.098 271.108 301.638 271.108 311.127 265.61L463.325 180.697C463.94 180.329 464.523 179.96 465.045 179.592C476.531 171.976 473.736 162.886 467.195 157.604L467.164 157.573Z" fill="#CADEF1"/>
<path d="M381.945 190.094L378.659 188.19L379.119 187.361L382.405 189.265L381.945 190.094ZM375.373 186.317L372.087 184.413L372.547 183.584L375.833 185.488L375.373 186.317ZM368.801 182.54L365.515 180.636L365.975 179.807L369.261 181.711L368.801 182.54ZM362.229 178.762L358.943 176.858L359.404 176.029L362.69 177.933L362.229 178.762ZM355.657 174.985L352.371 173.081L352.832 172.252L356.118 174.156L355.657 174.985ZM349.085 171.208L345.799 169.304L346.26 168.475L349.546 170.379L349.085 171.208ZM342.513 167.43L339.227 165.526L339.688 164.697L342.974 166.601L342.513 167.43ZM335.941 163.653L332.655 161.749L333.116 160.92L336.402 162.824L335.941 163.653ZM329.369 159.876L326.083 157.972L326.544 157.143L329.83 159.047L329.369 159.876ZM322.797 156.099L319.511 154.195L319.972 153.365L323.258 155.269L322.797 156.099ZM316.225 152.321L312.939 150.417L313.4 149.588L316.686 151.492L316.225 152.321ZM309.653 148.544L306.368 146.64L306.828 145.811L310.114 147.715L309.653 148.544ZM303.082 144.767L299.796 142.863L300.256 142.033L303.542 143.937L303.082 144.767ZM296.51 140.989L293.224 139.085L293.684 138.256L296.97 140.16L296.51 140.989ZM289.938 137.212L286.652 135.308L287.112 134.479L290.398 136.383L289.938 137.212ZM283.366 133.435L280.08 131.531L280.54 130.701L283.826 132.605L283.366 133.435V133.435ZM276.794 129.657L273.508 127.753L273.969 126.924L277.254 128.828L276.794 129.657ZM270.222 125.88L266.936 123.976L267.397 123.147L270.683 125.051L270.222 125.88ZM263.65 122.103L260.364 120.199L260.825 119.369L264.111 121.273L263.65 122.103ZM257.078 118.325L253.792 116.421L254.253 115.592L257.539 117.496L257.078 118.325ZM250.506 114.548L247.22 112.644L247.681 111.815L250.967 113.719L250.506 114.548ZM250.752 110.801L250.291 109.972L253.608 108.13L254.068 108.959L250.752 110.801ZM257.354 107.085L256.894 106.256L260.21 104.414L260.671 105.243L257.354 107.085ZM263.957 103.37L263.496 102.54L266.813 100.698L267.274 101.527L263.957 103.37ZM270.56 99.6537L270.099 98.8245L273.416 96.9819L273.876 97.8111L270.56 99.6537ZM277.162 95.9378L276.702 95.1086L280.018 93.266L280.479 94.0952L277.162 95.9378ZM283.765 92.2219L283.304 91.3927L286.621 89.5501L287.082 90.3793L283.765 92.2219ZM290.368 88.5059L289.907 87.6768L293.224 85.8342L293.684 86.6634L290.368 88.5059ZM296.97 84.79L296.51 83.9609L299.826 82.1183L300.287 82.9475L296.97 84.79Z" fill="#5E8AAA"/>
<path d="M264.294 132.237L263.649 131.868L267.795 129.565L266.075 129.104L266.628 128.797L269.085 129.473L269.177 129.534L264.264 132.298L264.294 132.237Z" fill="#5E8AAA"/>
<path d="M271.327 133.926C270.59 134.325 269.945 134.571 269.33 134.602C268.716 134.663 268.163 134.54 267.611 134.202C267.089 133.895 266.874 133.588 266.966 133.22C267.058 132.882 267.426 132.513 268.133 132.114L268.962 131.653C269.668 131.254 270.344 131.039 270.927 130.978C271.542 130.916 272.094 131.07 272.647 131.377C273.169 131.684 273.415 131.991 273.323 132.329C273.231 132.667 272.862 133.035 272.156 133.435L271.357 133.895L271.327 133.926ZM271.542 133.097C272.064 132.79 272.371 132.544 272.463 132.329C272.555 132.114 272.463 131.899 272.125 131.715C271.818 131.531 271.449 131.469 271.05 131.5C270.651 131.561 270.221 131.715 269.73 131.991L268.747 132.544C268.225 132.851 267.918 133.097 267.826 133.342C267.734 133.588 267.826 133.772 268.163 133.957C268.471 134.141 268.839 134.202 269.208 134.172C269.607 134.141 270.037 133.957 270.559 133.68L271.572 133.097H271.542Z" fill="#5E8AAA"/>
<path d="M293.745 149.25L290.49 147.377L290.95 147.131L294.543 147.07C295.065 147.07 295.495 147.039 295.772 146.978C296.048 146.947 296.263 146.855 296.478 146.763C296.724 146.609 296.877 146.456 296.877 146.271C296.877 146.087 296.754 145.934 296.509 145.78C296.202 145.596 295.864 145.504 295.526 145.504C295.188 145.504 294.85 145.596 294.543 145.749L293.898 145.381C294.359 145.135 294.85 145.012 295.434 145.012C296.017 145.012 296.539 145.166 297.031 145.473C297.492 145.749 297.737 146.026 297.768 146.302C297.768 146.578 297.614 146.855 297.215 147.07C296.724 147.346 295.864 147.469 294.574 147.5H291.841L294.328 148.974L293.837 149.25H293.745Z" fill="#5E8AAA"/>
<path d="M297.154 148.452L299.826 147.223L302.374 148.697L301.791 149.004L299.795 147.837L298.321 148.482C298.689 148.544 299.058 148.667 299.365 148.851C299.826 149.097 300.041 149.404 300.01 149.711C300.01 150.018 299.703 150.325 299.211 150.601C298.72 150.878 298.167 151.031 297.614 151.031C297.062 151.031 296.509 150.878 296.017 150.601C295.588 150.356 295.342 150.079 295.311 149.772C295.28 149.465 295.434 149.189 295.833 148.943L296.417 149.281C296.171 149.465 296.079 149.649 296.079 149.803C296.079 149.987 296.232 150.141 296.509 150.294C296.816 150.479 297.123 150.54 297.492 150.54C297.86 150.54 298.198 150.417 298.566 150.233C298.904 150.049 299.058 149.864 299.088 149.649C299.088 149.434 298.966 149.25 298.659 149.066C298.382 148.912 298.106 148.82 297.829 148.789H297.522L297.154 148.421V148.452Z" fill="#5E8AAA"/>
<path d="M319.45 161.319L322.121 160.091L324.67 161.565L324.087 161.872L322.091 160.705L320.617 161.35C320.985 161.412 321.354 161.534 321.661 161.719C322.121 161.964 322.336 162.271 322.306 162.579C322.306 162.886 321.999 163.193 321.507 163.469C321.016 163.746 320.463 163.899 319.91 163.899C319.358 163.899 318.805 163.746 318.313 163.469C317.883 163.223 317.638 162.947 317.607 162.64C317.576 162.333 317.73 162.057 318.129 161.811L318.713 162.149C318.467 162.333 318.375 162.517 318.375 162.671C318.375 162.855 318.528 163.009 318.805 163.162C319.112 163.346 319.419 163.408 319.787 163.408C320.156 163.408 320.494 163.285 320.862 163.101C321.2 162.916 321.354 162.732 321.384 162.517C321.384 162.302 321.262 162.118 320.954 161.934C320.678 161.78 320.402 161.688 320.125 161.657H319.818L319.45 161.289V161.319Z" fill="#5E8AAA"/>
<path d="M325.806 165.404C325.069 165.803 324.424 166.049 323.81 166.079C323.196 166.141 322.643 166.018 322.09 165.68C321.568 165.373 321.353 165.066 321.445 164.697C321.538 164.36 321.906 163.991 322.612 163.592L323.442 163.131C324.148 162.732 324.824 162.517 325.407 162.456C326.021 162.394 326.574 162.548 327.127 162.855C327.649 163.162 327.894 163.469 327.802 163.807C327.71 164.145 327.342 164.513 326.635 164.912L325.837 165.373L325.806 165.404ZM326.021 164.575C326.543 164.267 326.85 164.022 326.942 163.807C327.035 163.592 326.942 163.377 326.605 163.193C326.298 163.008 325.929 162.947 325.53 162.978C325.131 163.039 324.701 163.193 324.209 163.469L323.227 164.022C322.705 164.329 322.397 164.575 322.305 164.82C322.213 165.066 322.305 165.25 322.643 165.434C322.95 165.619 323.319 165.68 323.687 165.649C324.086 165.619 324.516 165.434 325.038 165.158L326.052 164.575H326.021Z" fill="#5E8AAA"/>
<path d="M344.969 178.824L344.324 178.455L348.47 176.152L346.75 175.691L347.303 175.384L349.76 176.06L349.852 176.121L344.939 178.885L344.969 178.824Z" fill="#5E8AAA"/>
<path d="M352.001 180.513C351.264 180.912 350.62 181.158 350.005 181.189C349.391 181.25 348.838 181.127 348.286 180.79C347.764 180.483 347.549 180.175 347.641 179.807C347.733 179.469 348.101 179.101 348.808 178.701L349.637 178.241C350.343 177.841 351.019 177.627 351.602 177.565C352.216 177.504 352.769 177.657 353.322 177.964C353.844 178.271 354.09 178.579 353.998 178.916C353.905 179.254 353.537 179.623 352.831 180.022L352.032 180.483L352.001 180.513ZM352.216 179.684C352.739 179.377 353.046 179.131 353.138 178.916C353.23 178.701 353.138 178.486 352.8 178.302C352.493 178.118 352.124 178.056 351.725 178.087C351.326 178.149 350.896 178.302 350.405 178.579L349.422 179.131C348.9 179.438 348.593 179.684 348.501 179.93C348.408 180.175 348.501 180.36 348.838 180.544C349.145 180.728 349.514 180.79 349.882 180.759C350.282 180.728 350.712 180.544 351.234 180.268L352.247 179.684H352.216Z" fill="#5E8AAA"/>
<path d="M355.902 182.786C355.165 183.185 354.52 183.431 353.906 183.461C353.292 183.523 352.739 183.4 352.186 183.062C351.664 182.755 351.449 182.448 351.541 182.079C351.633 181.741 352.002 181.373 352.708 180.974L353.537 180.513C354.244 180.114 354.919 179.899 355.503 179.837C356.117 179.776 356.67 179.93 357.223 180.237C357.745 180.544 357.99 180.851 357.898 181.189C357.806 181.526 357.438 181.895 356.731 182.294L355.933 182.755L355.902 182.786ZM356.117 181.956C356.639 181.649 356.946 181.404 357.038 181.189C357.13 180.974 357.038 180.759 356.701 180.574C356.363 180.39 356.025 180.329 355.626 180.36C355.226 180.421 354.796 180.574 354.305 180.851L353.322 181.404C352.8 181.711 352.493 181.956 352.401 182.202C352.309 182.448 352.401 182.632 352.739 182.816C353.046 183.001 353.415 183.062 353.783 183.031C354.182 183.001 354.612 182.816 355.134 182.54L356.148 181.956H356.117Z" fill="#5E8AAA"/>
<path d="M240.095 115.899C239.358 116.298 238.713 116.544 238.099 116.575C237.485 116.636 236.932 116.513 236.379 116.176C235.857 115.869 235.642 115.561 235.734 115.193C235.826 114.855 236.195 114.487 236.901 114.087L237.73 113.627C238.437 113.227 239.112 113.013 239.696 112.951C240.31 112.89 240.863 113.043 241.415 113.35C241.938 113.657 242.183 113.965 242.091 114.302C241.999 114.64 241.63 115.009 240.924 115.408L240.126 115.869L240.095 115.899ZM240.31 115.07C240.832 114.763 241.139 114.517 241.231 114.302C241.323 114.087 241.231 113.872 240.893 113.688C240.586 113.504 240.218 113.442 239.819 113.473C239.419 113.535 238.989 113.688 238.498 113.965L237.515 114.517C236.993 114.824 236.686 115.07 236.594 115.316C236.502 115.561 236.594 115.746 236.932 115.93C237.239 116.114 237.607 116.176 237.976 116.145C238.375 116.114 238.805 115.93 239.327 115.654L240.341 115.07H240.31Z" fill="#5E8AAA"/>
<path d="M227.106 122.964L225.453 123.909L225.925 124.735L227.578 123.79L227.106 122.964Z" fill="#5E8AAA"/>
<path d="M178.829 151.646L178.368 150.817L181.746 148.882L182.207 149.711L178.829 151.646ZM185.554 147.807L185.094 146.978L188.472 145.043L188.932 145.872L185.554 147.807ZM192.28 143.968L191.819 143.139L195.197 141.204L195.658 142.034L192.28 143.968ZM199.005 140.13L198.545 139.3L201.923 137.366L202.383 138.195L199.005 140.13ZM205.731 136.291L205.27 135.462L208.648 133.527L209.109 134.356L205.731 136.291ZM212.456 132.452L211.996 131.623L215.374 129.688L215.834 130.517L212.456 132.452ZM219.182 128.613L218.721 127.784L222.099 125.849L222.56 126.679L219.182 128.613Z" fill="#5E8AAA"/>
<path d="M174.959 155.485L172.625 154.103L174.989 152.752L175.45 153.581L174.529 154.103L175.45 154.656L174.959 155.485Z" fill="#5E8AAA"/>
<path d="M305.937 231.093L302.651 229.189L303.112 228.359L306.398 230.263L305.937 231.093ZM299.396 227.315L296.11 225.411L296.571 224.582L299.857 226.486L299.396 227.315ZM292.855 223.538L289.569 221.634L290.03 220.805L293.316 222.709L292.855 223.538ZM286.314 219.761L283.028 217.857L283.488 217.027L286.774 218.932L286.314 219.761ZM279.772 215.983L276.486 214.079L276.947 213.25L280.233 215.154L279.772 215.983ZM273.231 212.206L269.945 210.302L270.406 209.473L273.692 211.377L273.231 212.206ZM266.69 208.429L263.404 206.525L263.865 205.696L267.151 207.6L266.69 208.429ZM260.149 204.651L256.863 202.747L257.323 201.918L260.609 203.822L260.149 204.651ZM253.608 200.874L250.322 198.97L250.782 198.141L254.068 200.045L253.608 200.874ZM247.066 197.097L243.78 195.193L244.241 194.364L247.527 196.268L247.066 197.097ZM240.525 193.319L237.239 191.415L237.7 190.586L240.986 192.49L240.525 193.319ZM233.984 189.542L230.698 187.638L231.159 186.809L234.445 188.713L233.984 189.542ZM227.443 185.765L224.157 183.861L224.617 183.032L227.903 184.936L227.443 185.765ZM220.901 181.987L217.616 180.083L218.076 179.254L221.362 181.158L220.901 181.987ZM214.36 178.21L211.074 176.306L211.535 175.477L214.821 177.381L214.36 178.21V178.21ZM207.819 174.433L204.533 172.529L204.994 171.7L208.28 173.604L207.819 174.433ZM201.278 170.655L197.992 168.751L198.453 167.922L201.738 169.826L201.278 170.655ZM194.737 166.878L191.451 164.974L191.911 164.145L195.197 166.049L194.737 166.878ZM188.195 163.101L184.909 161.197L185.37 160.368L188.656 162.272L188.195 163.101ZM181.654 159.324L178.368 157.42L178.829 156.59L182.115 158.494L181.654 159.324Z" fill="#5E8AAA"/>
<path d="M309.715 232.169L309.239 232.993L310.888 233.945L311.364 233.121L309.715 232.169Z" fill="#5E8AAA"/>
<path d="M190.468 174.832L189.823 174.463L194.03 172.068L192.28 171.607L192.863 171.269L195.351 171.945L195.443 172.006L190.437 174.862L190.468 174.832Z" fill="#5E8AAA"/>
<path d="M197.593 176.49C196.856 176.92 196.18 177.166 195.566 177.227C194.952 177.289 194.368 177.166 193.846 176.859C193.324 176.552 193.109 176.214 193.201 175.876C193.293 175.538 193.693 175.139 194.368 174.74L195.197 174.249C195.934 173.819 196.61 173.604 197.194 173.542C197.808 173.481 198.391 173.604 198.913 173.942C199.466 174.249 199.681 174.586 199.589 174.924C199.497 175.262 199.098 175.631 198.391 176.061L197.562 176.521L197.593 176.49ZM197.808 175.631C198.33 175.323 198.668 175.047 198.76 174.832C198.852 174.617 198.76 174.402 198.422 174.218C198.084 174.034 197.746 173.972 197.347 174.003C196.948 174.064 196.487 174.218 195.996 174.525L194.982 175.109C194.46 175.416 194.123 175.692 194.03 175.938C193.938 176.183 194.03 176.398 194.368 176.583C194.675 176.767 195.044 176.828 195.443 176.767C195.842 176.705 196.303 176.552 196.825 176.245L197.869 175.661L197.808 175.631Z" fill="#5E8AAA"/>
<path d="M220.195 191.999L216.909 190.095L217.37 189.849L221.024 189.757C221.577 189.757 221.976 189.696 222.253 189.665C222.529 189.603 222.775 189.542 222.959 189.419C223.205 189.266 223.358 189.112 223.358 188.928C223.358 188.744 223.235 188.559 222.99 188.406C222.683 188.221 222.345 188.129 221.976 188.129C221.608 188.129 221.301 188.221 220.963 188.406L220.318 188.037C220.779 187.761 221.301 187.638 221.884 187.669C222.468 187.669 222.99 187.822 223.512 188.099C223.972 188.375 224.218 188.651 224.249 188.928C224.249 189.235 224.095 189.481 223.696 189.726C223.205 190.003 222.314 190.156 220.993 190.187L218.199 190.248L220.717 191.692L220.195 191.999V191.999Z" fill="#5E8AAA"/>
<path d="M223.665 191.139L226.398 189.88L228.947 191.354L228.364 191.692L226.337 190.525L224.832 191.2C225.232 191.262 225.569 191.385 225.876 191.569C226.337 191.845 226.552 192.122 226.521 192.46C226.491 192.797 226.214 193.104 225.723 193.381C225.201 193.688 224.679 193.811 224.095 193.841C223.512 193.841 222.99 193.719 222.498 193.412C222.068 193.166 221.823 192.889 221.792 192.582C221.761 192.275 221.946 191.999 222.314 191.722L222.928 192.06C222.683 192.245 222.56 192.429 222.59 192.613C222.59 192.797 222.744 192.951 223.02 193.104C223.327 193.289 223.635 193.35 224.003 193.319C224.372 193.319 224.74 193.197 225.078 192.982C225.416 192.797 225.6 192.582 225.6 192.367C225.6 192.152 225.477 191.937 225.17 191.784C224.894 191.63 224.617 191.538 224.341 191.508H224.034L223.665 191.108V191.139Z" fill="#5E8AAA"/>
<path d="M246.145 204.098L248.878 202.839L251.427 204.313L250.844 204.651L248.817 203.484L247.312 204.16C247.711 204.221 248.049 204.344 248.356 204.528C248.817 204.805 249.032 205.081 249.001 205.419C248.971 205.757 248.694 206.064 248.203 206.34C247.681 206.647 247.159 206.77 246.575 206.801C245.992 206.801 245.47 206.678 244.978 206.371C244.548 206.125 244.303 205.849 244.272 205.542C244.241 205.235 244.425 204.958 244.794 204.682L245.408 205.02C245.163 205.204 245.04 205.388 245.07 205.572C245.07 205.757 245.224 205.91 245.5 206.064C245.807 206.248 246.115 206.31 246.483 206.279C246.852 206.279 247.22 206.156 247.558 205.941C247.896 205.757 248.08 205.542 248.08 205.327C248.08 205.112 247.957 204.897 247.65 204.743C247.374 204.59 247.097 204.498 246.821 204.467H246.514L246.145 204.068V204.098Z" fill="#5E8AAA"/>
<path d="M252.564 208.244C251.827 208.674 251.151 208.92 250.537 208.981C249.923 209.043 249.339 208.92 248.817 208.613C248.295 208.305 248.08 207.968 248.172 207.63C248.264 207.292 248.664 206.893 249.339 206.494L250.168 206.002C250.905 205.572 251.581 205.357 252.165 205.296C252.779 205.234 253.362 205.357 253.884 205.695C254.437 206.002 254.652 206.34 254.56 206.678C254.468 207.016 254.069 207.384 253.362 207.814L252.533 208.275L252.564 208.244ZM252.779 207.384C253.301 207.077 253.639 206.801 253.731 206.586C253.823 206.371 253.731 206.156 253.393 205.972C253.055 205.787 252.717 205.726 252.318 205.757C251.919 205.818 251.489 205.972 250.967 206.279L249.953 206.862C249.431 207.169 249.094 207.446 249.001 207.691C248.909 207.937 249.001 208.152 249.339 208.336C249.646 208.52 250.015 208.582 250.414 208.52C250.813 208.459 251.274 208.306 251.796 207.998L252.84 207.415L252.779 207.384Z" fill="#5E8AAA"/>
<path d="M271.849 221.818L271.204 221.449L275.412 219.054L273.661 218.593L274.245 218.256L276.732 218.931L276.824 218.993L271.819 221.849L271.849 221.818Z" fill="#5E8AAA"/>
<path d="M278.974 223.507C278.237 223.937 277.562 224.183 276.947 224.244C276.333 224.305 275.75 224.183 275.228 223.876C274.706 223.568 274.491 223.231 274.583 222.893C274.675 222.555 275.074 222.156 275.75 221.757L276.579 221.265C277.316 220.835 277.991 220.62 278.575 220.559C279.189 220.497 279.773 220.62 280.295 220.958C280.848 221.265 281.062 221.603 280.97 221.941C280.878 222.279 280.479 222.647 279.773 223.077L278.943 223.538L278.974 223.507ZM279.189 222.647C279.711 222.34 280.049 222.064 280.141 221.849C280.233 221.634 280.141 221.419 279.803 221.234C279.466 221.05 279.128 220.989 278.729 221.02C278.329 221.081 277.899 221.234 277.377 221.542L276.364 222.125C275.842 222.432 275.504 222.709 275.412 222.954C275.32 223.2 275.412 223.415 275.75 223.599C276.057 223.783 276.425 223.845 276.825 223.783C277.224 223.722 277.684 223.568 278.206 223.261L279.251 222.678L279.189 222.647Z" fill="#5E8AAA"/>
<path d="M282.936 225.78C282.199 226.21 281.523 226.455 280.909 226.517C280.295 226.578 279.712 226.455 279.19 226.148C278.667 225.841 278.452 225.503 278.545 225.166C278.637 224.828 279.036 224.429 279.712 224.029L280.541 223.538C281.278 223.108 281.953 222.893 282.537 222.832C283.151 222.77 283.735 222.893 284.257 223.231C284.809 223.538 285.024 223.876 284.932 224.214C284.84 224.551 284.441 224.92 283.735 225.35L282.905 225.81L282.936 225.78ZM283.151 224.92C283.673 224.613 284.011 224.336 284.103 224.121C284.195 223.906 284.103 223.692 283.765 223.507C283.427 223.323 283.09 223.262 282.69 223.292C282.291 223.354 281.861 223.507 281.339 223.814L280.326 224.398C279.804 224.705 279.466 224.981 279.374 225.227C279.282 225.473 279.374 225.688 279.712 225.872C280.019 226.056 280.387 226.118 280.786 226.056C281.186 225.995 281.646 225.841 282.168 225.534L283.213 224.951L283.151 224.92Z" fill="#5E8AAA"/>
<path d="M166.053 158.31C165.316 158.74 164.641 158.986 164.026 159.047C163.412 159.108 162.829 158.986 162.307 158.678C161.784 158.371 161.539 158.034 161.662 157.696C161.754 157.358 162.153 156.959 162.829 156.559L163.658 156.068C164.395 155.638 165.07 155.423 165.654 155.362C166.268 155.3 166.852 155.423 167.374 155.761C167.926 156.068 168.141 156.406 168.049 156.744C167.957 157.082 167.558 157.45 166.852 157.88L166.022 158.341L166.053 158.31ZM166.268 157.45C166.79 157.143 167.128 156.867 167.22 156.652C167.312 156.437 167.22 156.222 166.882 156.037C166.545 155.853 166.207 155.792 165.807 155.822C165.408 155.884 164.948 156.037 164.456 156.344L163.443 156.928C162.921 157.235 162.583 157.511 162.491 157.757C162.399 158.003 162.491 158.218 162.829 158.402C163.136 158.586 163.504 158.648 163.903 158.586C164.303 158.525 164.763 158.371 165.285 158.064L166.33 157.481L166.268 157.45Z" fill="#5E8AAA"/>
<path d="M313.861 117.435L305.354 122.318L305.323 24.2304L314.045 18.6105L313.861 117.435Z" fill="url(#paint0_linear_478_3449)"/>
<path d="M341.408 133.066L332.901 137.98L332.993 18.1188L341.592 12.6525L341.408 133.066Z" fill="url(#paint1_linear_478_3449)"/>
<path d="M368.924 149.066L360.448 153.98L360.386 51.0708L369.138 45.7579L368.924 149.066Z" fill="url(#paint2_linear_478_3449)"/>
<path d="M396.47 164.882L387.994 169.765L387.902 38.8177L396.685 33.2592L396.47 164.882Z" fill="url(#paint3_linear_478_3449)"/>
<path d="M387.994 169.765L366.129 157.143V26.042L387.994 38.6638V169.765Z" fill="url(#paint4_linear_478_3449)"/>
<path d="M360.447 153.888L338.582 141.266V38.5719L360.447 51.1937V153.888Z" fill="url(#paint5_linear_478_3449)"/>
<path d="M332.901 137.98L311.035 125.358V5.43591L332.901 18.0577V137.98Z" fill="url(#paint6_linear_478_3449)"/>
<path d="M305.354 122.072L283.489 109.451V11.3937L305.354 24.0155V122.072Z" fill="url(#paint7_linear_478_3449)"/>
<path d="M372.056 37.712C372.056 37.2206 372.179 36.9135 372.394 36.76C372.64 36.6064 372.978 36.6679 373.469 36.9443C373.96 37.2206 374.298 37.5585 374.544 37.9884C374.759 38.4183 374.882 38.8483 374.882 39.3396V43.0555C374.882 43.5162 374.759 43.8233 374.513 43.9461C374.267 44.069 373.868 43.9768 373.346 43.7004C372.947 43.4855 372.578 43.2091 372.241 42.8713V42.1957C372.578 42.5335 372.947 42.8406 373.346 43.0555C373.991 43.424 374.298 43.3012 374.298 42.687V41.5507C374.083 41.5507 373.776 41.4586 373.377 41.2129C372.978 40.998 372.671 40.6602 372.425 40.2916C372.21 39.8924 372.087 39.4625 372.087 39.0018V37.712H372.056ZM374.267 39.0018C374.267 38.3876 373.991 37.8963 373.469 37.5892C372.947 37.2821 372.671 37.4356 372.671 38.0805V39.3396C372.671 39.9231 372.916 40.3531 373.438 40.6602C373.807 40.8751 374.083 40.9673 374.267 40.9058V39.0018V39.0018Z" fill="#305A79"/>
<path d="M375.772 39.8614C375.772 39.3701 375.895 39.063 376.11 38.9094C376.355 38.7559 376.693 38.8173 377.184 39.0937C377.676 39.3701 378.014 39.7079 378.259 40.1378C378.474 40.5677 378.597 40.9977 378.597 41.489V45.2049C378.597 45.6656 378.474 45.9727 378.198 46.0955C377.952 46.2184 377.553 46.1262 377.031 45.8499C376.632 45.6349 376.263 45.3585 375.925 45.0207V44.3451C376.263 44.7136 376.632 44.99 377.031 45.2049C377.645 45.5735 377.983 45.4506 377.983 44.8364V43.7002C377.768 43.7002 377.461 43.608 377.062 43.3624C376.662 43.1474 376.355 42.8096 376.11 42.4411C375.895 42.0418 375.772 41.6119 375.772 41.1512V39.8614ZM377.983 41.1512C377.983 40.537 377.707 40.0457 377.184 39.7386C376.662 39.4315 376.386 39.585 376.386 40.2299V41.489C376.386 42.0725 376.632 42.5025 377.154 42.8096C377.522 43.0245 377.799 43.1167 377.983 43.0552V41.1512V41.1512Z" fill="#305A79"/>
<path d="M379.641 42.9939C379.488 42.6561 379.396 42.2568 379.396 41.7962C379.396 41.3355 379.488 41.0284 379.641 40.8749C379.795 40.7213 380.041 40.7213 380.348 40.9056C380.655 41.0899 380.901 41.3355 381.054 41.7041C381.208 42.0419 381.3 42.4411 381.3 42.9017C381.3 43.3624 381.208 43.6695 381.054 43.823C380.901 43.9766 380.655 43.9766 380.348 43.7923C380.041 43.6081 379.795 43.3624 379.641 42.9939ZM380.348 43.2396C380.655 43.4238 380.808 43.2088 380.808 42.6254C380.808 42.0419 380.655 41.6426 380.348 41.4584C380.041 41.2741 379.887 41.4891 379.887 42.0726C379.887 42.6561 380.041 43.0553 380.348 43.2396ZM382.467 42.2261L382.927 42.5025L380.593 47.846L380.133 47.5697L382.436 42.2261H382.467ZM382.006 48.3681C381.853 48.0303 381.76 47.6311 381.76 47.1704C381.76 46.7098 381.853 46.4334 382.006 46.2798C382.16 46.1263 382.405 46.157 382.712 46.3106C383.02 46.4948 383.265 46.7405 383.419 47.0783C383.572 47.4161 383.664 47.8153 383.664 48.276C383.664 48.7366 383.572 49.0437 383.419 49.1973C383.265 49.3508 383.02 49.3508 382.712 49.1666C382.405 48.9823 382.16 48.7366 382.006 48.3681ZM382.252 47.4775C382.252 48.061 382.405 48.4602 382.712 48.6445C383.02 48.8288 383.173 48.6445 383.173 48.0303C383.173 47.4161 383.02 47.0476 382.712 46.8633C382.405 46.6791 382.252 46.8633 382.252 47.4775Z" fill="#305A79"/>
<path d="M344.14 48.9519L346.72 50.4567V51.0095L346.137 52.7599C345.952 53.3127 345.829 53.7734 345.768 54.1419C345.707 54.5411 345.645 55.0018 345.645 55.5238V56.5066L345.031 56.138V55.1246C345.031 54.5718 345.062 54.1112 345.154 53.7119C345.246 53.3127 345.369 52.8521 345.522 52.33L346.044 50.7024L344.11 49.5968V48.9519H344.14Z" fill="#305A79"/>
<path d="M348.471 51.3781C349.484 51.9616 350.006 52.7294 350.006 53.6814V54.2649C350.006 54.6334 349.945 54.9098 349.853 55.0633C349.761 55.2476 349.576 55.3397 349.331 55.4011L348.655 55.5547C348.379 55.6161 348.164 55.7082 348.072 55.8004C347.979 55.8925 347.918 56.1075 347.918 56.4146V57.1823L350.006 58.38V59.0249L347.304 57.4587V56.0153C347.304 55.5854 347.365 55.309 347.519 55.1554C347.672 55.0019 347.887 54.8791 348.225 54.8176L348.901 54.6334C349.085 54.6334 349.208 54.5413 349.269 54.4184C349.331 54.2956 349.361 54.1113 349.361 53.8349V53.3436C349.361 53.0672 349.3 52.8522 349.177 52.6372C349.054 52.4223 348.809 52.2073 348.44 51.9923C348.072 51.7774 347.734 51.6545 347.427 51.5931V50.9175C347.734 50.9789 348.072 51.1017 348.471 51.3474V51.3781Z" fill="#305A79"/>
<path d="M350.927 55.2473C350.774 54.9095 350.681 54.5103 350.681 54.0496C350.681 53.589 350.774 53.3126 350.927 53.1283C351.081 52.9748 351.326 52.9748 351.633 53.159C351.941 53.3433 352.186 53.589 352.34 53.9575C352.493 54.2953 352.585 54.6945 352.585 55.1552C352.585 55.6158 352.493 55.9229 352.34 56.0765C352.186 56.23 351.941 56.23 351.633 56.0457C351.326 55.8615 351.081 55.6158 350.927 55.2473ZM351.633 55.493C351.941 55.6772 352.094 55.4623 352.094 54.8788C352.094 54.2953 351.941 53.8961 351.633 53.7118C351.326 53.5275 351.173 53.7425 351.173 54.326C351.173 54.9095 351.326 55.3087 351.633 55.493ZM353.752 54.4795L354.213 54.7559L351.879 60.0995L351.418 59.8231L353.722 54.4795H353.752ZM353.292 60.6215C353.138 60.2837 353.046 59.8845 353.046 59.4238C353.046 58.9632 353.138 58.6868 353.292 58.5333C353.445 58.3797 353.691 58.4104 353.998 58.564C354.305 58.7482 354.551 58.9939 354.704 59.3317C354.858 59.6695 354.95 60.0688 354.95 60.5294C354.95 60.9901 354.858 61.2664 354.704 61.4507C354.551 61.6042 354.305 61.6042 353.998 61.42C353.691 61.2357 353.445 60.9901 353.292 60.6215ZM353.537 59.7309C353.537 60.3144 353.691 60.7137 353.998 60.8979C354.305 61.0822 354.459 60.8979 354.459 60.2837C354.459 59.6695 354.305 59.301 353.998 59.1167C353.691 58.9325 353.537 59.1167 353.537 59.7309Z" fill="#305A79"/>
<path d="M319.972 19.1941V19.839C319.972 20.4532 319.757 20.7603 319.357 20.7296C319.787 21.1903 320.002 21.7431 320.002 22.3573V23.0022C320.002 23.4628 319.88 23.7699 319.634 23.8928C319.388 24.0463 319.02 23.9542 318.528 23.6778C318.037 23.4014 317.668 23.0636 317.453 22.6336C317.239 22.2037 317.085 21.7738 317.085 21.3131V20.6682C317.085 20.054 317.3 19.7469 317.699 19.7776C317.3 19.317 317.085 18.7949 317.085 18.1807V17.5358C317.085 17.0751 317.208 16.768 317.453 16.6145C317.699 16.4609 318.037 16.5531 318.528 16.8295C319.02 17.1059 319.357 17.4437 319.603 17.8736C319.849 18.2728 319.941 18.7335 319.941 19.1941H319.972ZM319.388 22.6644V22.0194C319.388 21.3745 319.112 20.9139 318.528 20.5761C317.976 20.2383 317.668 20.3918 317.668 21.0367V21.6816C317.668 22.2958 317.945 22.7565 318.528 23.0943C319.081 23.4321 319.388 23.2786 319.388 22.6644ZM317.73 17.9043V18.5799C317.73 19.2248 318.006 19.6855 318.559 20.0233C319.112 20.3304 319.388 20.1768 319.388 19.5319V18.8563C319.388 18.2421 319.112 17.7815 318.559 17.4744C318.006 17.1673 317.73 17.2901 317.73 17.9043V17.9043Z" fill="#305A79"/>
<path d="M321.998 18.887C323.012 19.4705 323.534 20.2382 323.534 21.1902V21.7737C323.534 22.1422 323.472 22.4186 323.38 22.5722C323.288 22.7564 323.104 22.8486 322.858 22.91L322.183 23.0635C321.906 23.1249 321.691 23.2171 321.599 23.3092C321.507 23.4013 321.446 23.6163 321.446 23.9234V24.6911L323.534 25.8888V26.5337L320.831 24.9675V23.5242C320.831 23.0942 320.893 22.8178 321.046 22.6643C321.2 22.5107 321.415 22.3879 321.753 22.3265L322.428 22.1422C322.613 22.1115 322.735 22.0501 322.797 21.9273C322.858 21.8044 322.889 21.6202 322.889 21.3438V20.8831C322.889 20.6067 322.828 20.3918 322.705 20.1768C322.582 19.9618 322.336 19.7468 321.937 19.5319C321.568 19.3169 321.231 19.1941 320.893 19.1326V18.457C321.2 18.5185 321.538 18.6413 321.937 18.887H321.998Z" fill="#305A79"/>
<path d="M324.486 22.7254C324.333 22.3876 324.241 21.9884 324.241 21.5278C324.241 21.0671 324.333 20.76 324.486 20.6065C324.64 20.4529 324.885 20.4529 325.193 20.6372C325.5 20.8214 325.745 21.0671 325.899 21.4356C326.052 21.7734 326.145 22.1727 326.145 22.6333C326.145 23.094 326.052 23.4011 325.899 23.5546C325.745 23.7082 325.5 23.7082 325.193 23.5239C324.885 23.3396 324.64 23.094 324.486 22.7254ZM325.193 22.9711C325.5 23.1554 325.653 22.9404 325.653 22.3569C325.653 21.7734 325.5 21.3742 325.193 21.1899C324.885 21.0057 324.732 21.2207 324.732 21.8041C324.732 22.3876 324.885 22.7869 325.193 22.9711ZM327.312 21.9577L327.772 22.2341L325.438 27.5776L324.978 27.3012L327.281 21.9577H327.312ZM326.851 28.0997C326.697 27.7619 326.605 27.3626 326.605 26.902C326.605 26.4413 326.697 26.165 326.851 26.0114C327.004 25.8579 327.25 25.8886 327.557 26.0421C327.864 26.2264 328.11 26.4721 328.264 26.8099C328.417 27.1477 328.509 27.5469 328.509 28.0076C328.509 28.4682 328.417 28.7753 328.264 28.9288C328.11 29.0824 327.864 29.0824 327.557 28.8981C327.25 28.7139 327.004 28.4682 326.851 28.0997V28.0997ZM327.097 27.2091C327.097 27.7926 327.25 28.1918 327.557 28.3761C327.864 28.5603 328.018 28.3761 328.018 27.7619C328.018 27.1477 327.864 26.7792 327.557 26.5949C327.25 26.4106 327.097 26.5949 327.097 27.2091Z" fill="#305A79"/>
<path d="M289.538 20.1153C289.538 19.6546 289.661 19.3475 289.907 19.194C290.152 19.0404 290.521 19.1018 290.981 19.3782C291.442 19.6546 291.841 19.931 292.148 20.2381V20.9137C291.841 20.6066 291.503 20.3302 291.073 20.0845C290.459 19.716 290.121 19.8696 290.121 20.4838V21.6507C290.367 21.6507 290.705 21.7736 291.073 21.9886C291.473 22.2035 291.749 22.5106 291.995 22.8791C292.21 23.2477 292.333 23.6776 292.333 24.1383V25.3974C292.333 25.8887 292.21 26.1958 291.995 26.3494C291.749 26.5029 291.411 26.4415 290.92 26.1651C290.429 25.8887 290.091 25.5509 289.845 25.121C289.63 24.691 289.507 24.2611 289.507 23.7697V20.0845L289.538 20.1153ZM291.749 23.8312C291.749 23.2784 291.503 22.8484 291.012 22.572C290.674 22.3878 290.398 22.2957 290.152 22.3264V24.1383C290.152 24.7832 290.429 25.2438 290.951 25.5509C291.473 25.858 291.749 25.7045 291.749 25.0596V23.8312V23.8312Z" fill="#305A79"/>
<path d="M293.082 22.4565C293.082 21.9651 293.205 21.658 293.42 21.5045C293.665 21.3509 294.003 21.4124 294.495 21.6888C294.986 21.9652 295.324 22.303 295.569 22.7329C295.784 23.1628 295.907 23.5928 295.907 24.0841V27.8C295.907 28.2607 295.784 28.5678 295.539 28.6906C295.293 28.8135 294.894 28.7213 294.372 28.4449C293.973 28.23 293.604 27.9536 293.266 27.6158V26.9402C293.604 27.278 293.973 27.5851 294.372 27.8C295.017 28.1686 295.324 28.0457 295.324 27.4315V26.2953C295.109 26.2953 294.802 26.2031 294.402 25.9574C294.003 25.7425 293.696 25.4047 293.45 25.0361C293.236 24.6369 293.113 24.207 293.113 23.7463V22.4565H293.082ZM295.293 23.7463C295.293 23.1321 295.017 22.6408 294.495 22.3337C293.973 22.0266 293.696 22.1801 293.696 22.825V24.0841C293.696 24.6676 293.942 25.0976 294.464 25.4047C294.832 25.6196 295.109 25.7118 295.293 25.6503V23.7463V23.7463Z" fill="#305A79"/>
<path d="M297.032 25.3049C296.878 24.9671 296.786 24.5679 296.786 24.1072C296.786 23.6466 296.878 23.3395 297.032 23.1859C297.185 23.0324 297.431 23.0324 297.738 23.2166C298.045 23.4009 298.291 23.6466 298.444 24.0151C298.598 24.3529 298.69 24.7521 298.69 25.2128C298.69 25.6734 298.598 25.9805 298.444 26.1341C298.291 26.2876 298.045 26.2876 297.738 26.1034C297.431 25.9191 297.185 25.6734 297.032 25.3049ZM297.738 25.5506C298.045 25.7348 298.199 25.5199 298.199 24.9364C298.199 24.3529 298.045 23.9537 297.738 23.7694C297.431 23.5852 297.277 23.8001 297.277 24.3836C297.277 24.9671 297.431 25.3663 297.738 25.5506ZM299.857 24.5372L300.318 24.8136L297.984 30.1571L297.523 29.8807L299.826 24.5372H299.857ZM299.396 30.6792C299.243 30.3413 299.151 29.9421 299.151 29.4815C299.151 29.0208 299.243 28.7444 299.396 28.5909C299.55 28.4373 299.796 28.4373 300.103 28.6216C300.41 28.8058 300.655 29.0515 300.809 29.3893C300.962 29.7271 301.055 30.1264 301.055 30.587C301.055 31.0477 300.962 31.3548 300.809 31.5083C300.655 31.6619 300.41 31.6619 300.103 31.4776C299.796 31.2933 299.55 31.0477 299.396 30.6792ZM299.642 29.7886C299.642 30.3721 299.796 30.7713 300.103 30.9555C300.41 31.1398 300.563 30.9555 300.563 30.3413C300.563 29.7271 300.41 29.3586 300.103 29.1744C299.796 28.9901 299.642 29.1744 299.642 29.7886Z" fill="#305A79"/>
<path opacity="0.3" d="M283.489 11.3935L292.179 5.95789L314.045 18.6104L305.354 24.0153L283.489 11.3935Z" fill="#A2C0D7"/>
<path opacity="0.3" d="M311.035 5.43566L319.726 0L341.592 12.6525L332.901 18.0574L311.035 5.43566Z" fill="#A2C0D7"/>
<path opacity="0.3" d="M338.582 38.5716L347.273 33.136L369.138 45.7578L360.447 51.1934L338.582 38.5716Z" fill="#A2C0D7"/>
<path opacity="0.3" d="M366.129 26.0423L374.789 20.6067L396.685 33.2592L387.994 38.6641L366.129 26.0423Z" fill="#A2C0D7"/>
<path opacity="0.4" d="M296.417 177.596C295.772 181.158 292.639 187.668 285.975 183.952C278.544 179.807 277.96 158.463 269.638 153.642C261.346 148.851 260.916 163.285 252.532 158.862C244.148 154.44 243.534 130.21 232.878 124.099C220.594 117.005 214.022 151.584 214.022 151.584L289.384 195.1L297.461 199.768C301.238 201.948 306.305 204.866 312.601 208.49C307.902 168.997 297.522 171.361 296.386 177.596H296.417Z" fill="#008BF2"/>
<path opacity="0.6" d="M206.559 156.682C206.559 156.682 212.456 137.181 217.676 140.191C222.16 142.771 221.454 153.642 227.565 157.174C234.444 161.135 232.571 128.705 239.296 132.575C246.206 136.567 245.991 172.743 249.891 175.016C253.822 177.289 254.989 160.582 259.104 162.978C263.219 165.342 261.96 181.434 266.966 184.321C272.002 187.239 268.808 140.805 275.964 144.951C283.119 149.097 280.785 191.2 285.607 194.548C290.428 197.895 290.643 187.361 296.048 190.647C301.422 193.964 305.108 213.557 305.108 213.557L206.529 156.651L206.559 156.682Z" fill="#008BF2"/>
<path d="M276.333 197.312L275.811 197.004V116.882L276.333 117.189V197.312Z" fill="#4D6C83"/>
<path d="M227.842 169.304L227.32 168.997V105.704L227.842 106.011V169.304Z" fill="#4D6C83"/>
<path d="M228.916 157.972C228.916 158.709 228.302 158.955 227.565 158.525C226.828 158.095 226.214 157.143 226.214 156.406C226.214 155.669 226.828 155.423 227.565 155.822C228.302 156.252 228.916 157.204 228.916 157.941V157.972Z" fill="#4D6C83"/>
<path d="M277.346 145.75C277.346 146.487 276.732 146.732 275.995 146.302C275.258 145.872 274.644 144.92 274.644 144.183C274.644 143.446 275.258 143.201 275.995 143.631C276.732 144.061 277.346 145.013 277.346 145.75Z" fill="#4D6C83"/>
<path d="M236.374 85.0697L236.706 85.2617L236.727 85.2413C237.549 85.7961 238.299 86.5958 238.862 87.4841C239.501 88.4917 239.871 89.5663 239.871 90.4716V102.449C239.871 103.318 239.522 103.782 239.079 103.968C238.601 104.169 237.843 104.122 236.904 103.581L230.087 99.6507L229.871 99.5262L229.642 99.6236L227.437 100.56C227.427 100.555 227.414 100.549 227.398 100.54C227.314 100.492 227.209 100.398 227.124 100.271L224.885 96.7449L224.819 96.6411L224.713 96.5797L217.9 92.6515C217.899 92.6511 217.898 92.6506 217.898 92.6502C216.964 92.0976 216.089 91.2067 215.449 90.2028C214.806 89.1937 214.43 88.1198 214.43 87.2164V75.2395C214.43 74.3703 214.779 73.9057 215.221 73.7196C215.699 73.5188 216.458 73.5664 217.396 74.1064C217.396 74.1065 217.396 74.1066 217.396 74.1066L236.374 85.0697Z" fill="white" stroke="#008BF2"/>
<path d="M224.309 88.936V90.0109L223.634 89.6116V90.84L222.467 90.1644V88.936L219.949 87.4927V86.3564L221.975 82.9169L223.603 83.8689V88.5368L224.279 88.936H224.309ZM222.528 87.8919V84.4524L221.054 87.032L222.528 87.8919V87.8919Z" fill="#008BF2"/>
<path d="M224.402 84.3292L227.872 86.3254V87.3081L227.073 89.3042C226.797 89.9799 226.674 90.7476 226.674 91.5768V92.6209L225.446 91.9146V90.7783C225.446 89.8877 225.599 89.0893 225.876 88.4444L226.551 86.6939L224.432 85.4655V84.3292H224.402Z" fill="#008BF2"/>
<path d="M229.776 90.6248C228.885 90.1027 228.425 89.3042 228.425 88.1987C228.425 87.0931 228.885 86.8167 229.776 87.3388C230.667 87.8609 231.127 88.6593 231.127 89.7649C231.127 90.8704 230.667 91.1468 229.776 90.6248ZM229.776 89.8263C230.083 90.0106 230.237 89.8263 230.237 89.2735C230.237 88.7208 230.083 88.3522 229.776 88.168C229.469 87.9837 229.315 88.168 229.315 88.7208C229.315 89.2735 229.469 89.6421 229.776 89.8263ZM232.571 89.0279L233.43 89.5192L230.329 94.7092L229.5 94.2178L232.571 88.9971V89.0279ZM233.123 96.3982C232.233 95.8762 231.772 95.0777 231.772 93.9722C231.772 92.8666 232.233 92.5902 233.123 93.1123C234.014 93.6343 234.475 94.4328 234.475 95.5384C234.475 96.6439 234.014 96.9203 233.123 96.3982ZM233.123 95.5998C233.43 95.784 233.584 95.5998 233.584 95.047C233.584 94.4942 233.43 94.1257 233.123 93.9414C232.816 93.7572 232.663 93.9414 232.663 94.4942C232.663 95.047 232.816 95.4155 233.123 95.5998Z" fill="#008BF2"/>
<path d="M284.865 94.8967L285.198 95.0887L285.218 95.0683C286.041 95.6231 286.79 96.4228 287.354 97.3112C287.992 98.3188 288.362 99.3933 288.362 100.299V112.276C288.362 113.149 288.017 113.611 287.581 113.796C287.108 113.996 286.351 113.95 285.394 113.408C285.394 113.407 285.393 113.407 285.393 113.407L278.578 109.478L278.363 109.353L278.133 109.451L275.929 110.387C275.918 110.382 275.905 110.376 275.89 110.367C275.805 110.319 275.7 110.225 275.615 110.098L273.377 106.572L273.311 106.468L273.204 106.407L266.388 102.477C266.388 102.477 266.388 102.476 266.387 102.476C265.439 101.924 264.566 101.034 263.93 100.031C263.291 99.0233 262.921 97.9488 262.921 97.0434V85.0665C262.921 84.1973 263.27 83.7328 263.713 83.5467C264.19 83.3458 264.949 83.3934 265.887 83.9335C265.887 83.9335 265.887 83.9336 265.887 83.9336L284.865 94.8967Z" fill="white" stroke="#008BF2"/>
<path d="M268.747 93.3582C268.747 92.8361 268.901 92.4983 269.208 92.3448C269.515 92.2219 270.006 92.3448 270.651 92.7133C271.296 93.0818 271.757 93.5118 272.064 94.0031C272.371 94.4945 272.525 95.0165 272.525 95.5386V99.2852C272.525 99.8073 272.34 100.114 272.003 100.207C271.665 100.299 271.143 100.145 270.498 99.7766C269.853 99.4081 269.331 99.0395 268.962 98.7017V97.5348C269.392 97.934 269.884 98.3025 270.436 98.6403C271.02 98.9781 271.296 98.9167 271.296 98.4868V97.6576C271.081 97.6576 270.713 97.4733 270.252 97.1969C269.792 96.9206 269.392 96.5827 269.147 96.1528C268.87 95.7229 268.747 95.2622 268.747 94.7402V93.3582V93.3582ZM271.327 94.863C271.327 94.648 271.266 94.433 271.173 94.2795C271.081 94.0952 270.897 93.9417 270.651 93.7881C270.406 93.6346 270.221 93.6039 270.129 93.6653C270.037 93.7267 269.976 93.8803 269.976 94.0952V95.3236C269.976 95.7536 270.191 96.0914 270.621 96.3371C270.958 96.5213 271.204 96.6134 271.327 96.6134V94.8937V94.863Z" fill="#008BF2"/>
<path d="M273.446 96.1837C273.446 95.6309 273.6 95.2931 273.937 95.1703C274.275 95.0474 274.797 95.1703 275.534 95.6002C276.087 95.9073 276.548 96.2451 276.916 96.6136V97.7806C276.548 97.4121 276.087 97.0743 275.565 96.7672C274.981 96.4294 274.674 96.5215 274.674 97.0436V97.7806C274.889 97.7806 275.227 97.9649 275.688 98.2413C276.148 98.5177 276.548 98.8555 276.824 99.2854C277.1 99.7153 277.254 100.176 277.254 100.667V101.957C277.254 102.479 277.1 102.817 276.793 102.971C276.486 103.093 275.995 102.971 275.35 102.602C274.705 102.234 274.214 101.804 273.907 101.312C273.6 100.821 273.446 100.299 273.446 99.7768V96.1837V96.1837ZM276.026 100.053C276.026 99.6539 275.811 99.3161 275.381 99.0704C275.074 98.8862 274.828 98.794 274.674 98.794V100.452C274.674 100.667 274.736 100.882 274.828 101.036C274.92 101.22 275.104 101.374 275.35 101.527C275.596 101.681 275.78 101.711 275.872 101.65C275.964 101.589 276.026 101.435 276.026 101.22V100.022V100.053Z" fill="#008BF2"/>
<path d="M279.311 101.036C278.421 100.514 277.96 99.7154 277.96 98.6098C277.96 97.5043 278.421 97.2279 279.311 97.7499C280.202 98.272 280.663 99.0705 280.663 100.176C280.663 101.282 280.202 101.558 279.311 101.036ZM279.311 100.237C279.619 100.422 279.772 100.237 279.772 99.6847C279.772 99.1319 279.619 98.7634 279.311 98.5791C279.004 98.3949 278.851 98.5791 278.851 99.1319C278.851 99.6847 279.004 100.053 279.311 100.237ZM282.106 99.439L282.966 99.9304L279.864 105.12L279.035 104.629L282.106 99.4083V99.439ZM282.659 106.809C281.768 106.287 281.308 105.489 281.308 104.383C281.308 103.278 281.768 103.001 282.659 103.523C283.549 104.045 284.01 104.844 284.01 105.949C284.01 107.055 283.549 107.331 282.659 106.809ZM282.659 106.011C282.966 106.195 283.119 106.011 283.119 105.458C283.119 104.905 282.966 104.537 282.659 104.353C282.352 104.168 282.198 104.353 282.198 104.905C282.198 105.458 282.352 105.827 282.659 106.011Z" fill="#008BF2"/>
<path d="M385.497 501.763C372.629 509.195 351.562 509.195 338.695 501.763L223.164 435.061C210.297 427.629 210.297 415.468 223.164 408.036L338.664 341.365C351.532 333.933 372.599 333.933 385.466 341.365L500.966 408.067C513.834 415.499 513.834 427.66 500.966 435.092L385.466 501.763H385.497Z" fill="#5784B1" fill-opacity="0.5"/>
<path d="M465.773 375.176C464.729 374.132 463.439 373.149 461.903 372.259L376.714 323.062C367.225 317.595 351.685 317.595 342.196 323.062L257.007 372.29C255.594 373.088 254.396 373.979 253.414 374.931C246.32 380.458 243.31 390.378 257.037 398.301L342.227 447.498C351.716 452.995 367.255 452.995 376.745 447.498L461.934 398.301C462.548 397.932 463.132 397.564 463.654 397.195C475.139 389.61 472.345 380.489 465.804 375.207L465.773 375.176Z" fill="white"/>
<path d="M465.773 368.451C464.729 367.407 463.439 366.424 461.903 365.534L376.714 316.336C367.225 310.87 351.685 310.87 342.196 316.336L257.007 365.534C255.594 366.332 254.396 367.223 253.414 368.175C246.32 373.702 243.31 383.622 257.037 391.545L342.227 440.742C351.716 446.239 367.255 446.239 376.745 440.742L461.934 391.545C462.548 391.176 463.132 390.808 463.654 390.439C475.139 382.823 472.345 373.733 465.804 368.451H465.773Z" fill="#CADEF1"/>
<g style="mix-blend-mode:multiply" opacity="0.5">
<path d="M424.13 364.305C424.13 364.305 424.13 364.213 424.13 364.182V359.514L419.892 360.282L388.292 342.04L326.933 377.449L300.062 371.737V376.896L347.785 404.658C350.242 406.07 354.265 406.07 356.722 404.658L422.287 366.792C423.239 366.24 423.823 365.564 424.038 364.827L424.13 364.765V364.243V364.305Z" fill="#B3D4EF"/>
</g>
<path d="M424.13 362.401C424.13 362.401 424.13 362.309 424.13 362.278V357.61L419.892 358.378L388.291 340.136L326.933 375.545L300.062 369.833V374.992L347.785 402.754C350.242 404.166 354.265 404.166 356.722 402.754L422.287 364.888C423.239 364.336 423.823 363.66 424.038 362.923L424.13 362.861V362.339V362.401Z" fill="#51ACF2"/>
<path d="M300.031 369.864L347.754 397.625C350.211 399.038 354.234 399.038 356.691 397.625L422.257 359.76C424.714 358.347 424.714 356.013 422.257 354.601L374.533 326.839L300.031 369.864V369.864Z" fill="white"/>
<path d="M387.739 341.426L380.799 345.449L374.381 341.733L381.321 337.741L387.739 341.426Z" fill="#008BF2" fill-opacity="0.6"/>
<path d="M379.908 345.94L372.968 349.963L366.549 346.247L373.49 342.255L379.908 345.94Z" fill="#008BF2" fill-opacity="0.6"/>
<path d="M372.077 350.485L365.136 354.478L358.718 350.762L365.658 346.77L372.077 350.485Z" fill="#008BF2" fill-opacity="0.6"/>
<path d="M364.246 355L357.305 358.992L350.887 355.307L357.828 351.284L364.246 355Z" fill="#008BF2" fill-opacity="0.6"/>
<path d="M356.415 359.514L349.474 363.507L343.056 359.821L349.996 355.798L356.415 359.514Z" fill="#008BF2" fill-opacity="0.6"/>
<path d="M348.584 364.029L341.644 368.052L335.225 364.336L342.166 360.343L348.584 364.029Z" fill="#008BF2" fill-opacity="0.6"/>
<path d="M340.753 368.574L333.812 372.566L327.394 368.85L334.334 364.858L340.753 368.574Z" fill="#008BF2" fill-opacity="0.6"/>
<path d="M332.922 373.088L325.981 377.081L319.563 373.395L326.504 369.372L332.922 373.088Z" fill="#008BF2" fill-opacity="0.6"/>
<path d="M395.325 345.817L388.384 349.81L381.966 346.125L388.906 342.102L395.325 345.817Z" fill="#008BF2" fill-opacity="0.6"/>
<path d="M387.493 350.332L380.553 354.355L374.135 350.639L381.075 346.647L387.493 350.332Z" fill="#008BF2" fill-opacity="0.6"/>
<path d="M379.662 354.846L372.722 358.869L366.303 355.153L373.244 351.161L379.662 354.846Z" fill="#008BF2" fill-opacity="0.6"/>
<path d="M371.831 359.391L364.891 363.384L358.472 359.668L365.413 355.676L371.831 359.391Z" fill="#008BF2" fill-opacity="0.6"/>
<path d="M364 363.906L357.06 367.898L350.641 364.213L357.582 360.19L364 363.906Z" fill="#008BF2" fill-opacity="0.6"/>
<path d="M356.17 368.42L349.229 372.443L342.811 368.727L349.751 364.704L356.17 368.42Z" fill="#008BF2" fill-opacity="0.6"/>
<path d="M348.338 372.934L341.398 376.957L334.98 373.241L341.92 369.249L348.338 372.934Z" fill="#008BF2" fill-opacity="0.6"/>
<path d="M340.507 377.48L333.567 381.472L327.148 377.756L334.089 373.764L340.507 377.48Z" fill="#008BF2" fill-opacity="0.6"/>
<path d="M402.633 350.025L395.693 354.048L389.274 350.332L396.215 346.34L402.633 350.025Z" fill="#008BF2" fill-opacity="0.6"/>
<path d="M394.802 354.57L387.862 358.562L381.443 354.846L388.384 350.854L394.802 354.57Z" fill="#008BF2" fill-opacity="0.6"/>
<path d="M386.971 359.084L380.03 363.076L373.612 359.391L380.552 355.368L386.971 359.084Z" fill="#008BF2" fill-opacity="0.6"/>
<path d="M379.14 363.599L372.199 367.591L365.781 363.906L372.721 359.883L379.14 363.599Z" fill="#008BF2" fill-opacity="0.6"/>
<path d="M371.309 368.113L364.368 372.136L357.95 368.42L364.89 364.428L371.309 368.113Z" fill="#008BF2" fill-opacity="0.6"/>
<path d="M363.478 372.658L356.538 376.65L350.119 372.934L357.06 368.942L363.478 372.658Z" fill="#008BF2" fill-opacity="0.6"/>
<path d="M355.647 377.172L348.706 381.165L342.288 377.479L349.228 373.456L355.647 377.172Z" fill="#008BF2" fill-opacity="0.6"/>
<path d="M347.815 381.687L340.875 385.679L334.457 381.994L341.397 377.971L347.815 381.687Z" fill="#008BF2" fill-opacity="0.6"/>
<path d="M409.943 354.263L403.002 358.255L396.584 354.57L403.524 350.547L409.943 354.263Z" fill="#008BF2" fill-opacity="0.6"/>
<path d="M402.112 358.777L395.171 362.769L388.753 359.084L395.693 355.061L402.112 358.777Z" fill="#008BF2" fill-opacity="0.6"/>
<path d="M394.281 363.291L363.847 380.857L357.429 377.172L387.862 359.606L394.281 363.291Z" fill="#008BF2" fill-opacity="0.6"/>
<path d="M362.956 381.379L356.016 385.402L349.597 381.687L356.538 377.694L362.956 381.379Z" fill="#008BF2" fill-opacity="0.6"/>
<path d="M355.125 385.894L348.184 389.917L341.766 386.201L348.707 382.209L355.125 385.894Z" fill="#008BF2" fill-opacity="0.6"/>
<path d="M377.605 276.776L373.489 273.858C372.66 273.213 371.432 273.213 370.081 273.981L304.515 311.816C302.058 313.228 300.031 316.729 300.031 319.554V370.095L304.372 372.555L379.048 329.32L377.635 276.776H377.605Z" fill="#51ACF2"/>
<path d="M304.515 372.475V322.662C304.515 319.806 306.541 316.336 308.998 314.924L374.564 277.058C377.021 275.646 379.048 276.812 379.048 279.638V329.265L304.515 372.475Z" fill="white"/>
<path d="M306.05 365.933V322.57C306.05 320.175 307.985 317.104 310.349 315.753L373.213 279.453C375.577 278.102 377.512 278.931 377.512 281.327V324.689L306.081 365.933H306.05Z" fill="#51ACF2"/>
<path d="M343.517 323.99L340.063 325.98V329.317L338.571 330.165V322.175L340.063 321.327V324.722L343.517 322.731V319.336L345.01 318.488V326.478L343.517 327.326V323.99V323.99Z" fill="white"/>
<path d="M329.03 327.678L328.386 328.058L327.742 328.439L324.522 338.302L326.074 337.394L328.356 330.312H328.444L330.698 334.76L332.278 333.853L329.059 327.707L329.03 327.678Z" fill="white"/>
<path d="M332.044 332.185C332.162 332.448 332.776 333.619 334.796 332.536C338.044 330.78 337.986 328.614 337.986 328.146C337.986 327.853 337.839 327.034 336.874 327.063C335.644 327.063 333.566 328.38 333.566 327.063C333.566 326.653 333.918 325.892 334.913 325.307C335.879 324.722 336.405 325.102 336.464 325.424L337.576 324.429C337.371 324.078 336.961 323.053 334.854 324.253C334.444 324.487 334.064 324.751 333.742 325.044C332.425 326.273 332.191 327.473 332.191 328C332.191 331.043 336.522 327.765 336.493 329.375C336.493 329.96 335.937 330.721 334.854 331.307C333.742 331.921 333.332 331.395 333.157 331.073L331.986 332.185H332.044Z" fill="white"/>
<path d="M321.245 333.326C322.211 332.741 322.796 332.946 322.913 333.238L324.113 332.214C323.908 331.863 323.235 331.072 321.303 332.097C317.645 334.204 317.352 337.98 317.352 338.36C317.352 342.165 320.045 341.023 321.098 340.496C322.035 339.999 323.469 339.062 324.172 338.506V333.911L320.396 336.106V337.365L322.767 335.989V338.214V338.243C322.767 338.243 322.181 338.711 321.333 339.15C321.011 339.326 318.933 340.438 318.933 337.57C318.933 335.726 319.811 334.175 321.274 333.297L321.245 333.326Z" fill="white"/>
<path d="M353.878 315.941C353.878 316.468 353.761 316.995 353.527 317.522C353.292 318.049 352.941 318.576 352.531 319.044C352.092 319.512 351.566 319.922 350.98 320.273L348.99 321.414V324.224L347.322 325.19V317.2L350.922 315.122C351.888 314.566 352.619 314.361 353.146 314.507C353.673 314.654 353.936 315.122 353.936 315.941H353.878ZM352.18 316.937C352.18 316.088 351.683 315.971 350.688 316.527L348.961 317.522V320.127L350.746 319.102C351.214 318.839 351.566 318.517 351.829 318.137C352.092 317.756 352.21 317.346 352.21 316.937H352.18Z" fill="white"/>
<path d="M356.512 320.01C355.926 320.361 355.458 320.449 355.107 320.332C354.785 320.185 354.609 319.834 354.609 319.249C354.609 318.605 354.814 318.019 355.224 317.434C355.634 316.878 356.248 316.351 357.039 315.883L358.356 315.093V314.771C358.356 314.361 358.297 314.098 358.151 314.01C358.004 313.893 357.77 313.922 357.448 314.098C357.156 314.273 356.922 314.449 356.804 314.683C356.658 314.888 356.57 315.151 356.541 315.503L354.873 316.381C355.078 315.034 355.956 313.922 357.507 313.015C358.297 312.576 358.882 312.4 359.292 312.547C359.702 312.693 359.936 313.103 359.936 313.805V316.059C359.936 316.41 359.965 316.615 360.053 316.702C360.141 316.79 360.258 316.761 360.434 316.673C360.551 316.615 360.668 316.527 360.785 316.439V317.317C360.58 317.493 360.404 317.61 360.287 317.727C360.141 317.844 359.965 317.961 359.76 318.078C359.351 318.312 359.058 318.371 358.853 318.312C358.678 318.224 358.561 317.99 358.502 317.639H358.473C358.239 318.195 357.975 318.663 357.624 319.044C357.273 319.454 356.892 319.776 356.453 320.039L356.512 320.01ZM358.385 315.971L357.565 316.468C357.185 316.702 356.922 316.907 356.775 317.054C356.629 317.2 356.512 317.376 356.424 317.58C356.336 317.756 356.307 317.961 356.307 318.195C356.307 318.488 356.365 318.663 356.512 318.722C356.658 318.78 356.834 318.722 357.039 318.634C357.302 318.488 357.507 318.283 357.741 318.019C357.946 317.756 358.122 317.493 358.239 317.171C358.356 316.849 358.414 316.556 358.414 316.293V315.971H358.385Z" fill="white"/>
<path d="M362.366 318.927C361.985 319.161 361.634 319.307 361.37 319.424V318.283C361.575 318.195 361.78 318.107 361.927 318.019C362.307 317.815 362.57 317.551 362.746 317.229C362.922 316.907 363.126 316.468 363.273 315.912L360.844 311.229L362.541 310.264L363.507 312.576C363.595 312.751 363.683 312.956 363.77 313.22C363.858 313.483 363.975 313.776 364.092 314.156C364.18 313.746 364.268 313.395 364.356 313.044C364.444 312.693 364.531 312.342 364.619 311.99L365.526 308.566L367.195 307.6L364.765 315.473C364.678 315.795 364.561 316.088 364.444 316.351C364.326 316.615 364.209 316.849 364.122 317.083C363.887 317.522 363.624 317.902 363.361 318.195C363.097 318.488 362.775 318.751 362.395 318.956L362.366 318.927Z" fill="white"/>
<path d="M560.866 390.635C548.397 397.852 527.944 397.852 515.476 390.635L403.446 325.96C390.947 318.743 390.947 306.95 403.446 299.764L515.476 235.058C527.975 227.841 548.397 227.841 560.866 235.058L672.895 299.733C685.364 306.95 685.364 318.743 672.895 325.929L560.866 390.604V390.635Z" fill="#5784B1" fill-opacity="0.5"/>
<path d="M641.847 266.474C640.803 265.43 639.513 264.448 637.978 263.557L552.788 214.39C543.299 208.924 527.76 208.924 518.27 214.39L433.081 263.557C431.668 264.355 430.471 265.246 429.488 266.198C422.394 271.726 419.384 281.645 433.112 289.568L518.301 338.766C527.791 344.263 543.33 344.263 552.819 338.766L638.009 289.568C638.623 289.2 639.206 288.831 639.728 288.463C651.214 280.877 648.419 271.756 641.878 266.474H641.847Z" fill="white"/>
<path d="M641.847 259.718C640.803 258.674 639.513 257.692 637.978 256.801L552.788 207.634C543.299 202.168 527.76 202.168 518.27 207.634L433.081 256.832C431.668 257.63 430.471 258.521 429.488 259.473C422.394 265 419.384 274.92 433.112 282.843L518.301 332.04C527.791 337.537 543.33 337.537 552.819 332.04L638.009 282.843C638.623 282.474 639.206 282.106 639.728 281.737C651.214 274.121 648.419 265.031 641.878 259.749L641.847 259.718Z" fill="#CADEF1"/>
<path d="M581.587 253.772V235.62L549.659 243.57C536.79 239.66 520.502 240.825 509.678 247.066C504.707 249.94 501.599 253.487 500.33 257.19L492.225 259.417L492.484 276.378C492.122 277.802 492.148 279.278 492.562 280.702C493.365 283.551 495.669 286.296 499.476 288.497C509.109 294.064 524.723 294.064 534.382 288.497L577.755 262.965L578.764 262.369C581.665 260.272 581.742 257.294 581.665 253.721L581.587 253.772Z" fill="#008BF2" fill-opacity="0.6"/>
<path d="M575.476 227.904C569.002 224.175 559.473 223.269 551.524 225.185C538.395 220.55 521.02 221.534 509.678 228.085C500.201 233.549 497.456 241.447 501.496 248.335C500.797 248.671 500.097 249.008 499.45 249.396C489.817 254.963 489.817 263.975 499.45 269.542C509.083 275.109 524.697 275.109 534.356 269.542L578.065 243.829L578.713 243.415C583.684 241.369 582.778 232.125 575.502 227.904H575.476Z" fill="white"/>
<path d="M581.794 231.4V212.393L549.866 221.223C536.996 217.313 520.709 218.478 509.885 224.719C504.913 227.593 501.806 231.141 500.537 234.843L492.432 237.07L492.691 254.031C492.329 255.455 492.355 256.931 492.769 258.356C493.572 261.204 495.876 263.949 499.683 266.15C509.315 271.717 524.93 271.717 534.588 266.15L578.272 240.437L578.971 240.022C582.156 237.588 581.871 234.74 581.871 231.374L581.794 231.4Z" fill="#008BF2" fill-opacity="0.6"/>
<path d="M575.476 205.531C569.002 201.802 559.473 200.896 551.524 202.812C538.395 198.177 521.02 199.161 509.678 205.712C500.201 211.176 497.456 219.074 501.496 225.962C500.796 226.298 500.097 226.635 499.45 227.023C489.817 232.591 489.817 241.602 499.45 247.169C509.083 252.737 524.697 252.737 534.356 247.169L579.153 221.301L578.713 221.042C583.866 216.174 582.778 209.752 575.502 205.531H575.476Z" fill="#E0E9F0"/>
<defs>
<linearGradient id="paint0_linear_478_3449" x1="309.684" y1="18.6105" x2="309.684" y2="122.318" gradientUnits="userSpaceOnUse">
<stop stop-color="#0082F2" stop-opacity="0.2"/>
<stop offset="1" stop-color="#008BF2" stop-opacity="0.6"/>
</linearGradient>
<linearGradient id="paint1_linear_478_3449" x1="337.246" y1="12.6525" x2="337.246" y2="137.98" gradientUnits="userSpaceOnUse">
<stop stop-color="#0082F2" stop-opacity="0.2"/>
<stop offset="1" stop-color="#008BF2" stop-opacity="0.6"/>
</linearGradient>
<linearGradient id="paint2_linear_478_3449" x1="364.762" y1="45.7579" x2="364.762" y2="153.98" gradientUnits="userSpaceOnUse">
<stop stop-color="#0082F2" stop-opacity="0.2"/>
<stop offset="1" stop-color="#008BF2" stop-opacity="0.6"/>
</linearGradient>
<linearGradient id="paint3_linear_478_3449" x1="392.294" y1="33.2592" x2="392.294" y2="169.765" gradientUnits="userSpaceOnUse">
<stop stop-color="#0082F2" stop-opacity="0.2"/>
<stop offset="1" stop-color="#008BF2" stop-opacity="0.6"/>
</linearGradient>
<linearGradient id="paint4_linear_478_3449" x1="377.062" y1="26.042" x2="377.062" y2="169.765" gradientUnits="userSpaceOnUse">
<stop stop-color="#0082F2" stop-opacity="0.2"/>
<stop offset="1" stop-color="#008BF2" stop-opacity="0.6"/>
</linearGradient>
<linearGradient id="paint5_linear_478_3449" x1="349.514" y1="38.5719" x2="349.514" y2="153.888" gradientUnits="userSpaceOnUse">
<stop stop-color="#0082F2" stop-opacity="0.2"/>
<stop offset="1" stop-color="#008BF2" stop-opacity="0.6"/>
</linearGradient>
<linearGradient id="paint6_linear_478_3449" x1="321.968" y1="5.43591" x2="321.968" y2="137.98" gradientUnits="userSpaceOnUse">
<stop stop-color="#0082F2" stop-opacity="0.2"/>
<stop offset="1" stop-color="#008BF2" stop-opacity="0.6"/>
</linearGradient>
<linearGradient id="paint7_linear_478_3449" x1="294.421" y1="11.3937" x2="294.421" y2="122.072" gradientUnits="userSpaceOnUse">
<stop stop-color="#0082F2" stop-opacity="0.2"/>
<stop offset="1" stop-color="#008BF2" stop-opacity="0.6"/>
</linearGradient>
</defs>
</svg>
