<svg width="74" height="30" viewBox="0 0 74 30" fill="none" xmlns="http://www.w3.org/2000/svg">
<g clip-path="url(#clip0_138_1284)">
<path d="M13.662 3.86775C12.8026 4.88107 11.4276 5.6803 10.0526 5.56613C9.88076 4.196 10.5539 2.74025 11.3417 1.8411C12.2011 0.799239 13.705 0.0570885 14.9224 0C15.0657 1.42721 14.5071 2.82588 13.662 3.86775ZM14.9081 5.8373C12.9172 5.72312 11.2128 6.9648 10.2675 6.9648C9.30784 6.9648 7.86123 5.89439 6.28571 5.92293C4.23753 5.95148 2.33258 7.10752 1.28701 8.94862C-0.861428 12.6308 0.728415 18.0828 2.80524 21.0799C3.82217 22.5642 5.03961 24.1912 6.64378 24.1342C8.16201 24.0771 8.76357 23.1494 10.5969 23.1494C12.4446 23.1494 12.9745 24.1342 14.5787 24.1056C16.2401 24.0771 17.2857 22.6213 18.3026 21.137C19.4628 19.4529 19.9354 17.8116 19.9641 17.726C19.9354 17.6974 16.7558 16.4843 16.7271 12.8306C16.6985 9.7764 19.2336 8.32065 19.3482 8.23501C17.9159 6.12274 15.6815 5.89439 14.9081 5.8373ZM26.4094 1.69838V23.9486H29.8755V16.3416H34.6737C39.0565 16.3416 42.136 13.3444 42.136 9.00571C42.136 4.66698 39.1138 1.69838 34.7883 1.69838H26.4094ZM29.8755 4.6099H33.8716C36.8795 4.6099 38.5982 6.20837 38.5982 9.01998C38.5982 11.8316 36.8795 13.4443 33.8573 13.4443H29.8755V4.6099ZM48.4667 24.1199C50.6438 24.1199 52.6633 23.0209 53.58 21.2797H53.6516V23.9486H56.8599V12.8735C56.8599 9.66223 54.2818 7.59277 50.3144 7.59277C46.6334 7.59277 43.912 9.69077 43.8117 12.5737H46.9341C47.192 11.2036 48.4667 10.3045 50.2141 10.3045C52.3339 10.3045 53.5227 11.2892 53.5227 13.1018V14.3292L49.1972 14.5861C45.1724 14.8287 42.9953 16.47 42.9953 19.3245C42.9953 22.2074 45.244 24.1199 48.4667 24.1199ZM49.3977 21.4795C47.55 21.4795 46.3755 20.5947 46.3755 19.2388C46.3755 17.8402 47.5071 17.0266 49.6698 16.8982L53.5227 16.6556V17.9115C53.5227 19.9952 51.7466 21.4795 49.3977 21.4795ZM61.1425 30C64.5227 30 66.1125 28.7155 67.5018 24.8192L73.5891 7.80685H70.0657L65.9836 20.9515H65.912L61.83 7.80685H58.2063L64.0787 24.0057L63.7636 24.9905C63.2336 26.6603 62.3742 27.3026 60.8417 27.3026C60.5696 27.3026 60.0396 27.274 59.8248 27.2455V29.9144C60.0253 29.9715 60.8847 30 61.1425 30Z" fill="black"/>
</g>
<defs>
<clipPath id="clip0_138_1284">
<rect width="73.3333" height="30" fill="white" transform="translate(0.255859)"/>
</clipPath>
</defs>
</svg>
