<svg width="86" height="28" viewBox="0 0 86 28" fill="none" xmlns="http://www.w3.org/2000/svg">
<g clip-path="url(#clip0_138_1268)">
<path d="M55.8934 0.0432129C49.805 0.0432129 44.3642 3.21382 44.3642 9.07176C44.3642 15.7897 54.0138 16.2537 54.0138 19.6286C54.0138 21.0497 52.3929 22.3217 49.6245 22.3217C45.6957 22.3217 42.7592 20.5443 42.7592 20.5443L41.5028 26.4556C41.5028 26.4556 44.8855 27.957 49.3766 27.957C56.0332 27.957 61.2711 24.6307 61.2711 18.6726C61.2711 11.5739 51.5813 11.1236 51.5813 7.99116C51.5813 6.87799 52.9118 5.65828 55.6723 5.65828C58.7869 5.65828 61.328 6.95096 61.328 6.95096L62.5577 1.24163C62.5577 1.24163 59.7927 0.0432129 55.8934 0.0432129ZM0.190393 0.474106L0.0429688 1.33589C0.0429688 1.33589 2.60437 1.80688 4.91133 2.74639C7.88173 3.82373 8.09333 4.45091 8.59359 6.39888L14.045 27.5126H21.3525L32.6104 0.474106H25.3196L18.0857 18.8577L15.1339 3.27491C14.8632 1.49147 13.4919 0.474106 11.8135 0.474106H0.190393ZM35.5421 0.474106L29.8227 27.5126H36.7751L42.4744 0.474106H35.5421ZM74.3181 0.474106C72.6417 0.474106 71.7534 1.37589 71.1016 2.95174L60.9159 27.5126H68.2067L69.6173 23.4191H78.4996L79.3574 27.5126H85.7905L80.1783 0.474106H74.3181ZM75.2664 7.77908L77.4275 17.9253H71.6377L75.2664 7.77908Z" fill="#1434CB"/>
</g>
<defs>
<clipPath id="clip0_138_1268">
<rect width="85.8333" height="28" fill="white"/>
</clipPath>
</defs>
</svg>
