<svg width="78" height="30" viewBox="0 0 78 30" fill="none" xmlns="http://www.w3.org/2000/svg">
<g clip-path="url(#clip0_138_1286)">
<path d="M36.3112 14.6049V23.4585H33.5015V1.59509H40.9502C42.838 1.59509 44.4478 2.22436 45.7649 3.4829C47.1112 4.74144 47.7844 6.27802 47.7844 8.09266C47.7844 9.95119 47.1112 11.4878 45.7649 12.7317C44.4624 13.9756 42.8527 14.5902 40.9502 14.5902H36.3112V14.6049ZM36.3112 4.28778V11.9122H41.0088C42.121 11.9122 43.0576 11.5317 43.7893 10.7853C44.5356 10.039 44.9161 9.13168 44.9161 8.10729C44.9161 7.09753 44.5356 6.20485 43.7893 5.45851C43.0576 4.6829 42.1356 4.30241 41.0088 4.30241H36.3112V4.28778Z" fill="#3C4043"/>
<path d="M55.1308 8.00488C57.2089 8.00488 58.8479 8.56098 60.0479 9.67317C61.2479 10.7854 61.8479 12.3073 61.8479 14.239V23.4585H59.1699V21.3805H59.0528C57.8967 23.0927 56.3455 23.9415 54.4138 23.9415C52.7601 23.9415 51.3845 23.4585 50.2723 22.4781C49.1601 21.4976 48.604 20.2829 48.604 18.8195C48.604 17.2683 49.1894 16.039 50.3601 15.1317C51.5308 14.2098 53.0967 13.7561 55.043 13.7561C56.7113 13.7561 58.0869 14.0634 59.1552 14.6781V14.0341C59.1552 13.0537 58.7747 12.2341 57.9991 11.5463C57.2235 10.8585 56.3162 10.522 55.2772 10.522C53.7113 10.522 52.4674 11.1805 51.5601 12.5122L49.0869 10.961C50.4479 8.98537 52.4674 8.00488 55.1308 8.00488ZM51.5016 18.8634C51.5016 19.5951 51.8089 20.2098 52.4382 20.6927C53.0528 21.1756 53.7845 21.4244 54.6186 21.4244C55.804 21.4244 56.8577 20.9854 57.7796 20.1073C58.7016 19.2293 59.1699 18.2049 59.1699 17.0195C58.2918 16.3317 57.0772 15.9805 55.5113 15.9805C54.3699 15.9805 53.4186 16.2585 52.6577 16.8C51.8821 17.3707 51.5016 18.0585 51.5016 18.8634Z" fill="#3C4043"/>
<path d="M77.1258 8.48779L67.7599 30.0293H64.8624L68.3453 22.4927L62.1697 8.48779H65.2282L69.677 19.2293H69.7355L74.0672 8.48779H77.1258Z" fill="#3C4043"/>
<path d="M25.1352 12.8194C25.1352 11.9034 25.0533 11.0268 24.9011 10.1838H13.1235V15.0131L19.9065 15.0146C19.6313 16.6214 18.746 17.9912 17.3894 18.9043V22.0375H21.4269C23.7845 19.8555 25.1352 16.6302 25.1352 12.8194Z" fill="#4285F4"/>
<path d="M17.3909 18.9043C16.267 19.6624 14.8197 20.1058 13.1265 20.1058C9.85578 20.1058 7.08114 17.9019 6.08748 14.9312H1.92261V18.1624C3.98602 22.257 8.227 25.0668 13.1265 25.0668C16.5129 25.0668 19.3577 23.9531 21.4285 22.036L17.3909 18.9043Z" fill="#34A853"/>
<path d="M5.69521 12.5342C5.69521 11.7 5.83423 10.8937 6.0874 10.1356V6.90442H1.92252C1.06935 8.59759 0.589355 10.5088 0.589355 12.5342C0.589355 14.5595 1.07082 16.4708 1.92252 18.1639L6.0874 14.9327C5.83423 14.1747 5.69521 13.3683 5.69521 12.5342Z" fill="#FABB05"/>
<path d="M13.1265 4.96098C14.9748 4.96098 16.6299 5.59756 17.9368 6.84146L21.5148 3.26634C19.3416 1.24244 16.5085 0 13.1265 0C8.22846 0 3.98602 2.80976 1.92261 6.90439L6.08748 10.1356C7.08114 7.16488 9.85578 4.96098 13.1265 4.96098Z" fill="#E94235"/>
</g>
<defs>
<clipPath id="clip0_138_1286">
<rect width="76.5366" height="30" fill="white" transform="translate(0.589355)"/>
</clipPath>
</defs>
</svg>
