<svg width="53" height="32" viewBox="0 0 53 32" fill="none" xmlns="http://www.w3.org/2000/svg">
<g clip-path="url(#clip0_138_1270)">
<path d="M19.7336 3.42224H33.7422V28.5778H19.7336V3.42224Z" fill="#FF5F00"/>
<path d="M20.6232 16.0002C20.6232 10.8891 23.0246 6.3558 26.7158 3.42247C24.003 1.28914 20.5787 0.000244141 16.8431 0.000244141C7.9932 0.000244141 0.833252 7.1558 0.833252 16.0002C0.833252 24.8447 7.9932 32.0002 16.8431 32.0002C20.5787 32.0002 24.003 30.7114 26.7158 28.578C23.0246 25.6891 20.6232 21.1113 20.6232 16.0002Z" fill="#EB001B"/>
<path d="M52.6428 16C52.6428 24.8444 45.4828 32 36.633 32C32.8974 32 29.473 30.7111 26.7603 28.5778C30.4959 25.6444 32.8529 21.1111 32.8529 16C32.8529 10.8889 30.4514 6.35556 26.7603 3.42223C29.473 1.28889 32.8974 0 36.633 0C45.4828 0 52.6428 7.2 52.6428 16Z" fill="#F79E1B"/>
</g>
<defs>
<clipPath id="clip0_138_1270">
<rect width="51.8095" height="32" fill="white" transform="translate(0.833252)"/>
</clipPath>
</defs>
</svg>
