<svg width="80" height="80" viewBox="0 0 80 80" fill="none" xmlns="http://www.w3.org/2000/svg">
<path d="M50.8983 38.9066C50.1063 38.6106 49.3346 38.3463 48.5527 38.1349C46.3899 37.5534 44.1864 37.3314 41.9626 37.5534C41.0792 37.638 40.2263 37.86 39.5155 38.4732C38.7844 39.1075 38.561 39.9532 38.6219 40.8941C38.7032 42.0676 39.1906 42.6807 40.2974 43.0613C41.2417 43.3785 42.2165 43.4525 43.1913 43.5582C45.0292 43.7591 46.8468 44.0445 48.5628 44.8268C50.6546 45.7783 51.7411 47.4698 51.9543 49.8061C52.0762 51.1382 52.066 52.4702 51.7106 53.7705C51.0303 56.2126 49.4259 57.735 47.192 58.623C45.6892 59.215 44.1255 59.4582 42.5313 59.5216C40.0943 59.6167 37.6776 59.3947 35.3015 58.8027C34.7126 58.6547 34.1338 58.475 33.555 58.253C33.4433 58.2107 33.3621 58.1684 33.3621 58.0098C33.3621 56.4241 33.3621 54.8489 33.3621 53.2419C33.9307 53.4322 34.4892 53.6225 35.0477 53.7917C37.6065 54.5634 40.206 54.8489 42.8461 54.5423C43.5772 54.4577 44.2879 54.3097 44.9683 53.982C46.1462 53.4217 46.6742 52.4174 46.5625 51.0747C46.4609 49.8484 45.8314 49.119 44.7449 48.7489C43.8412 48.4424 42.8968 48.3578 41.9626 48.2626C40.2263 48.0723 38.5001 47.8081 36.8653 47.0997C35.6061 46.55 34.54 45.7571 33.8901 44.4568C33.4839 43.6216 33.3011 42.7336 33.2402 41.8138C33.1285 40.3444 33.2402 38.896 33.8089 37.5217C34.6009 35.6082 36.0022 34.3607 37.8299 33.589C39.1804 33.0181 40.602 32.7538 42.0642 32.6904C44.7043 32.5741 47.324 32.6904 49.8727 33.5361C50.1672 33.6313 50.4515 33.7581 50.7358 33.8639C50.8374 33.9062 50.8881 33.9484 50.8881 34.0753C50.8881 35.6716 50.8881 37.2786 50.8881 38.9172L50.8983 38.9066Z" fill="#120C0E"/>
<path d="M60.5892 43.478C60.5892 46.6011 60.5892 49.7241 60.5892 52.8366C60.5892 52.9843 60.5892 53.132 60.6106 53.2797C60.7395 54.2821 61.2551 54.7147 62.3508 54.7569C62.6373 54.7709 62.7805 54.9186 62.7805 55.2C62.7805 56.5399 62.7805 57.8799 62.7805 59.2199C62.7805 59.3887 62.7268 59.4625 62.5549 59.4836C60.8147 59.6419 59.1175 59.5153 57.5385 58.7029C56.0991 57.9643 55.3257 56.7299 54.9604 55.2105C54.7778 54.4614 54.7134 53.6912 54.7134 52.921C54.7134 46.5694 54.7134 40.2178 54.7134 33.8662C54.7134 33.6235 54.7563 33.5391 55.0249 33.5497C56.7865 33.5602 58.5375 33.5602 60.2991 33.5497C60.5354 33.5497 60.5892 33.613 60.5892 33.8346C60.5892 37.042 60.5892 40.26 60.5892 43.4675V43.478Z" fill="#120C0E"/>
<path d="M53.827 26.3532C53.827 24.3666 55.5415 22.7531 57.4779 22.7934C59.3941 22.8338 60.9977 24.4372 60.9876 26.3835C60.9876 28.3399 59.3538 29.9635 57.3972 29.9635C55.4306 29.9635 53.8169 28.3298 53.8169 26.3432L53.827 26.3532Z" fill="#120C0E"/>
<path d="M31.2773 43.2809C31.1223 41.6463 30.8122 40.0429 30.1921 38.5124C29.3032 36.3155 27.8562 34.6497 25.6236 33.7647C23.8148 33.0463 21.9234 32.9005 20.0009 33.1088C18.0887 33.317 16.311 33.9417 14.6365 34.9933V34.608C14.6365 30.1727 14.6365 25.7269 14.6365 21.2915C14.6365 21.0416 14.5745 21 14.3471 21C12.6831 21.0104 11.019 21.0104 9.35489 21C9.07583 21 9.00347 21.0521 9.00347 21.3436C9.00347 33.723 9.00347 46.0921 9.00347 58.4716C9.00347 58.5653 9.00347 58.659 9.00347 58.7423C8.9828 58.8984 9.05515 58.9401 9.19986 58.9401C10.1818 58.9401 11.1637 58.9401 12.1456 58.9401C12.2903 58.9401 12.3523 58.888 12.404 58.7631C12.6417 58.2113 12.9001 57.6595 13.1378 57.1076C13.2102 56.941 13.2619 56.941 13.3962 57.0347C16.6004 59.3149 20.1663 59.9708 23.9802 59.2837C26.4918 58.8256 28.404 57.4616 29.6443 55.1919C30.7295 53.2033 31.1223 51.0376 31.3084 48.82C31.4531 46.9771 31.4427 45.1342 31.267 43.2914L31.2773 43.2809ZM25.5513 49.4655C25.3859 50.5899 25.1275 51.6832 24.5073 52.6514C23.7735 53.7863 22.7089 54.4006 21.4066 54.6088C19.0603 54.9732 16.8588 54.4735 14.7812 53.349C14.6262 53.2657 14.6365 53.1408 14.6365 53.0054C14.6365 50.7565 14.6365 48.5076 14.6365 46.2691C14.6365 44.0306 14.6365 41.7921 14.6365 39.5536C14.6365 39.3766 14.6882 39.2829 14.8433 39.1996C16.4557 38.3146 18.1818 37.8461 20.0215 37.8461C20.9208 37.8461 21.7993 37.9502 22.6262 38.3146C23.9699 38.9081 24.7244 39.9909 25.1585 41.3548C25.5823 42.6979 25.696 44.0826 25.7166 45.4778C25.7373 46.8105 25.7373 48.1432 25.5513 49.4655Z" fill="#120C0E"/>
<path d="M68.1586 59.5428C70.1388 59.5428 71.744 57.9376 71.744 55.9575C71.744 53.9773 70.1388 52.3721 68.1586 52.3721C66.1785 52.3721 64.5732 53.9773 64.5732 55.9575C64.5732 57.9376 66.1785 59.5428 68.1586 59.5428Z" fill="#FE2B1F"/>
</svg>
