<svg width="255" height="443" viewBox="0 0 255 443" fill="none" xmlns="http://www.w3.org/2000/svg">
<g filter="url(#filter0_d_176_1448)">
<rect x="20" y="16" width="215" height="403" rx="15" fill="url(#paint0_linear_176_1448)"/>
<path style="mix-blend-mode:screen" d="M219.375 16H76L194 419H220C227.5 419 235 413 235 404V32.5C235 19.5 225.5 16 219.375 16Z" fill="url(#paint1_linear_176_1448)"/>
<g filter="url(#filter1_d_176_1448)">
<path d="M160.564 183.376H160.568L160.762 183.376C161.727 183.376 162.339 183.376 162.784 183.414C162.823 183.845 162.825 184.463 162.825 185.457C162.825 189.048 162.782 192.663 162.739 196.29C162.642 204.512 162.543 212.8 162.942 221.036L162.942 221.037C163.353 229.51 161.565 236.478 158.018 242.296C154.46 248.131 149.055 252.937 142.038 256.941C138.657 258.861 135.128 260.486 131.512 262.152C130.433 262.649 129.346 263.149 128.253 263.662C128.088 263.734 127.834 263.804 127.561 263.829C127.429 263.841 127.314 263.84 127.226 263.832C127.144 263.824 127.105 263.812 127.102 263.811C117.116 260.009 107.962 255.255 100.724 247.479C95.3372 241.665 92.339 234.894 92.259 227.055L92.2589 227.051C92.1645 219.096 92.1654 211.193 92.1664 203.275C92.1672 196.786 92.168 190.287 92.1162 183.742C92.1165 183.569 92.1253 183.436 92.1366 183.337C92.2573 183.332 92.3999 183.331 92.5809 183.334C92.6722 183.335 92.7664 183.338 92.8704 183.34L92.8831 183.34C92.9795 183.343 93.0841 183.345 93.1905 183.347C102.36 183.553 111.554 182.47 120.04 177.837C121.663 176.96 123.157 175.919 124.595 174.862C125.076 174.509 125.544 174.159 126.01 173.811C126.538 173.415 127.063 173.022 127.599 172.631C136.913 181.33 148.638 183.348 160.564 183.376ZM162.727 183.033C162.727 183.032 162.727 183.034 162.728 183.036C162.727 183.034 162.727 183.033 162.727 183.033Z" stroke="#FBFBFB" stroke-width="4"/>
<circle cx="127.815" cy="218.191" r="18.6411" stroke="#FBFBFB" stroke-width="4"/>
<path d="M119.299 217.791L125.743 223.992L136.368 212.429" stroke="#FBFBFB" stroke-width="4" stroke-linecap="round"/>
</g>
<path d="M203.891 30.6957C203.185 30.6957 202.939 30.7419 202.686 30.8736C202.485 30.9785 202.331 31.1283 202.223 31.3245C202.088 31.5707 202.04 31.8104 202.04 32.497V35.503C202.04 36.1896 202.088 36.4293 202.223 36.6755C202.331 36.8717 202.485 37.0215 202.686 37.1264C202.939 37.2581 203.185 37.3043 203.891 37.3043H214.482C215.187 37.3043 215.434 37.2581 215.686 37.1264C215.888 37.0215 216.042 36.8717 216.15 36.6755C216.285 36.4293 216.332 36.1896 216.332 35.503V32.497C216.332 31.8104 216.285 31.5707 216.15 31.3245C216.042 31.1283 215.888 30.9785 215.686 30.8736C215.434 30.7419 215.187 30.6957 214.482 30.6957H203.891ZM203.891 30H214.482C215.374 30 215.697 30.0904 216.023 30.2602C216.35 30.4299 216.605 30.679 216.78 30.9965C216.954 31.3139 217.047 31.6287 217.047 32.497V35.503C217.047 36.3713 216.954 36.6861 216.78 37.0035C216.605 37.321 216.35 37.5701 216.023 37.7398C215.697 37.9096 215.374 38 214.482 38H203.891C202.999 38 202.675 37.9096 202.349 37.7398C202.023 37.5701 201.767 37.321 201.593 37.0035C201.419 36.6861 201.326 36.3713 201.326 35.503V32.497C201.326 31.6287 201.419 31.3139 201.593 30.9965C201.767 30.679 202.023 30.4299 202.349 30.2602C202.675 30.0904 202.999 30 203.891 30ZM217.762 32.567C218.476 32.921 218.834 33.3848 218.834 33.9583C218.834 34.5317 218.476 34.9955 217.762 35.3496V32.567Z" fill="#FBFBFB"/>
<path fill-rule="evenodd" clip-rule="evenodd" d="M204.221 31.1112H214.152C214.662 31.1112 214.847 31.1672 215.033 31.2723C215.219 31.3773 215.365 31.5316 215.465 31.7281C215.565 31.9246 215.618 32.1195 215.618 32.657V35.3432C215.618 35.8807 215.565 36.0756 215.465 36.2721C215.365 36.4686 215.219 36.6228 215.033 36.7279C214.847 36.833 214.662 36.889 214.152 36.889H204.221C203.711 36.889 203.526 36.833 203.34 36.7279C203.153 36.6228 203.007 36.4686 202.908 36.2721C202.808 36.0756 202.755 35.8807 202.755 35.3432V32.657C202.755 32.1195 202.808 31.9246 202.908 31.7281C203.007 31.5316 203.153 31.3773 203.34 31.2723C203.526 31.1672 203.711 31.1112 204.221 31.1112Z" fill="#FBFBFB"/>
<path fill-rule="evenodd" clip-rule="evenodd" d="M171.948 34.719H172.105C172.36 34.719 172.52 34.7582 172.66 34.8318C172.799 34.9055 172.909 35.0136 172.984 35.1513C173.059 35.2891 173.098 35.4466 173.098 35.6977V36.5575C173.098 36.8086 173.059 36.9661 172.984 37.1039C172.909 37.2416 172.799 37.3497 172.66 37.4233C172.52 37.497 172.36 37.5362 172.105 37.5362H171.948C171.693 37.5362 171.533 37.497 171.393 37.4233C171.254 37.3497 171.144 37.2416 171.069 37.1039C170.994 36.9661 170.955 36.8086 170.955 36.5575V35.6977C170.955 35.4466 170.994 35.2891 171.069 35.1513C171.144 35.0136 171.254 34.9055 171.393 34.8318C171.533 34.7582 171.693 34.719 171.948 34.719ZM175.378 33.3103H175.536C175.79 33.3103 175.95 33.3495 176.09 33.4232C176.23 33.4969 176.339 33.605 176.414 33.7427C176.489 33.8804 176.529 34.038 176.529 34.289V36.5575C176.529 36.8086 176.489 36.9661 176.414 37.1039C176.339 37.2416 176.23 37.3497 176.09 37.4233C175.95 37.497 175.79 37.5362 175.536 37.5362H175.378C175.123 37.5362 174.963 37.497 174.823 37.4233C174.684 37.3497 174.574 37.2416 174.499 37.1039C174.425 36.9661 174.385 36.8086 174.385 36.5575V34.289C174.385 34.038 174.425 33.8804 174.499 33.7427C174.574 33.605 174.684 33.4969 174.823 33.4232C174.963 33.3495 175.123 33.3103 175.378 33.3103ZM178.665 31.6904H178.823C179.077 31.6904 179.237 31.7296 179.377 31.8033C179.517 31.8769 179.626 31.985 179.701 32.1227C179.776 32.2605 179.816 32.4181 179.816 32.6691V36.5575C179.816 36.8086 179.776 36.9661 179.701 37.1039C179.626 37.2416 179.517 37.3497 179.377 37.4233C179.237 37.497 179.077 37.5362 178.823 37.5362H178.665C178.41 37.5362 178.25 37.497 178.111 37.4233C177.971 37.3497 177.861 37.2416 177.786 37.1039C177.712 36.9661 177.672 36.8086 177.672 36.5575V32.6691C177.672 32.4181 177.712 32.2605 177.786 32.1227C177.861 31.985 177.971 31.8769 178.111 31.8033C178.25 31.7296 178.41 31.6904 178.665 31.6904ZM182.024 30H182.181C182.436 30 182.596 30.0392 182.736 30.1129C182.875 30.1865 182.985 30.2946 183.06 30.4324C183.135 30.5701 183.174 30.7277 183.174 30.9787V36.5575C183.174 36.8085 183.135 36.9661 183.06 37.1039C182.985 37.2416 182.875 37.3497 182.736 37.4233C182.596 37.497 182.436 37.5362 182.181 37.5362H182.024C181.769 37.5362 181.609 37.497 181.469 37.4233C181.33 37.3497 181.22 37.2416 181.145 37.1039C181.07 36.9661 181.031 36.8085 181.031 36.5575V30.9787C181.031 30.7277 181.07 30.5701 181.145 30.4324C181.22 30.2946 181.33 30.1865 181.469 30.1129C181.609 30.0392 181.769 30 182.024 30Z" fill="#FBFBFB"/>
<path fill-rule="evenodd" clip-rule="evenodd" d="M192.25 31.6081C193.847 31.6082 195.383 32.2094 196.54 33.2876C196.627 33.3708 196.766 33.3698 196.852 33.2852L197.685 32.4614C197.729 32.4185 197.753 32.3604 197.753 32.3C197.752 32.2396 197.727 32.1818 197.683 32.1394C194.646 29.2869 189.854 29.2869 186.817 32.1394C186.773 32.1817 186.748 32.2395 186.748 32.2999C186.747 32.3604 186.771 32.4185 186.815 32.4614L187.648 33.2852C187.734 33.3699 187.873 33.3709 187.96 33.2876C189.118 32.2094 190.653 31.6081 192.25 31.6081ZM192.25 34.2884C193.128 34.2884 193.974 34.6079 194.624 35.185C194.712 35.2669 194.85 35.2651 194.936 35.181L195.768 34.3572C195.812 34.3139 195.836 34.2553 195.836 34.1944C195.835 34.1335 195.81 34.0754 195.765 34.033C193.785 32.2279 190.718 32.2279 188.738 34.033C188.693 34.0754 188.667 34.1335 188.667 34.1945C188.666 34.2554 188.69 34.314 188.734 34.3572L189.566 35.181C189.652 35.2651 189.79 35.2669 189.878 35.185C190.528 34.6083 191.374 34.2888 192.25 34.2884ZM193.849 36.2546C193.894 36.2118 193.918 36.1529 193.917 36.0918C193.916 36.0307 193.889 35.9729 193.843 35.9319C192.923 35.17 191.577 35.17 190.658 35.9319C190.612 35.9728 190.585 36.0307 190.584 36.0918C190.582 36.1528 190.607 36.2118 190.651 36.2546L192.091 37.6779C192.133 37.7198 192.19 37.7433 192.25 37.7433C192.31 37.7433 192.368 37.7198 192.41 37.6779L193.849 36.2546Z" fill="#FBFBFB"/>
<path d="M40.2209 30.6278C40.5949 30.6278 40.9548 30.6906 41.3004 30.8161C41.6484 30.9415 41.9586 31.1416 42.2308 31.4162C42.5054 31.6908 42.7221 32.0554 42.8807 32.5099C43.0417 32.9621 43.1233 33.5173 43.1257 34.1754C43.1257 34.7933 43.0559 35.3449 42.9162 35.8303C42.7789 36.3132 42.5812 36.724 42.3232 37.0625C42.0651 37.401 41.7538 37.6591 41.3892 37.8366C41.0246 38.0118 40.6174 38.0994 40.1676 38.0994C39.6823 38.0994 39.2538 38.0059 38.8821 37.8189C38.5104 37.6295 38.2109 37.3726 37.9837 37.0483C37.7588 36.7216 37.6226 36.3546 37.5753 35.9474H39.0916C39.1508 36.2126 39.2751 36.4186 39.4645 36.5653C39.6539 36.7098 39.8883 36.782 40.1676 36.782C40.6411 36.782 41.0009 36.576 41.2472 36.1641C41.4934 35.7498 41.6177 35.1828 41.62 34.4631H41.5703C41.4614 34.6761 41.3146 34.8596 41.13 35.0135C40.9453 35.165 40.7334 35.2822 40.4943 35.3651C40.2576 35.4479 40.0054 35.4893 39.7379 35.4893C39.3094 35.4893 38.9271 35.3887 38.5909 35.1875C38.2547 34.9863 37.9896 34.7093 37.7955 34.3565C37.6013 34.0038 37.5043 33.6013 37.5043 33.1491C37.5019 32.6615 37.6143 32.227 37.8416 31.8459C38.0689 31.4647 38.3861 31.1664 38.7933 30.951C39.2029 30.7332 39.6787 30.6255 40.2209 30.6278ZM40.2315 31.8352C39.9924 31.8352 39.7794 31.892 39.5923 32.0057C39.4077 32.1193 39.2609 32.272 39.152 32.4638C39.0455 32.6555 38.9934 32.8698 38.9957 33.1065C38.9957 33.3456 39.0478 33.5611 39.152 33.7528C39.2585 33.9422 39.4029 34.0937 39.5852 34.2074C39.7699 34.3187 39.9806 34.3743 40.2173 34.3743C40.3949 34.3743 40.5594 34.3411 40.7109 34.2749C40.8625 34.2086 40.9938 34.1174 41.1051 34.0014C41.2188 33.883 41.3075 33.7469 41.3714 33.593C41.4354 33.4392 41.4673 33.2758 41.4673 33.103C41.465 32.8733 41.4105 32.6626 41.304 32.4709C41.1974 32.2791 41.0507 32.1252 40.8636 32.0092C40.6766 31.8932 40.4659 31.8352 40.2315 31.8352ZM45.0895 37.1548C44.8551 37.1548 44.6539 37.072 44.4858 36.9062C44.3201 36.7405 44.2372 36.5393 44.2372 36.3026C44.2372 36.0705 44.3201 35.8717 44.4858 35.706C44.6539 35.5402 44.8551 35.4574 45.0895 35.4574C45.3168 35.4574 45.5156 35.5402 45.6861 35.706C45.8565 35.8717 45.9418 36.0705 45.9418 36.3026C45.9418 36.4588 45.9015 36.602 45.821 36.7322C45.7429 36.8601 45.6399 36.9631 45.5121 37.0412C45.3842 37.117 45.2434 37.1548 45.0895 37.1548ZM45.0895 33.5859C44.8551 33.5859 44.6539 33.5031 44.4858 33.3374C44.3201 33.1716 44.2372 32.9704 44.2372 32.7337C44.2372 32.5017 44.3201 32.304 44.4858 32.1406C44.6539 31.9749 44.8551 31.892 45.0895 31.892C45.3168 31.892 45.5156 31.9749 45.6861 32.1406C45.8565 32.304 45.9418 32.5017 45.9418 32.7337C45.9418 32.8923 45.9015 33.0367 45.821 33.1669C45.7429 33.2947 45.6399 33.3965 45.5121 33.4723C45.3842 33.5481 45.2434 33.5859 45.0895 33.5859ZM47.0595 36.7216V35.5107L50.0957 30.7273H51.1397V32.4034H50.5218L48.6078 35.4325V35.4893H52.9224V36.7216H47.0595ZM50.5502 38V36.3523L50.5787 35.8161V30.7273H52.0204V38H50.5502ZM57.0133 30.7273V38H55.4757V32.1868H55.4331L53.7676 33.2308V31.8672L55.568 30.7273H57.0133Z" fill="#FBFBFB"/>
</g>
<defs>
<filter id="filter0_d_176_1448" x="0" y="0" width="255" height="443" filterUnits="userSpaceOnUse" color-interpolation-filters="sRGB">
<feFlood flood-opacity="0" result="BackgroundImageFix"/>
<feColorMatrix in="SourceAlpha" type="matrix" values="0 0 0 0 0 0 0 0 0 0 0 0 0 0 0 0 0 0 127 0" result="hardAlpha"/>
<feOffset dy="4"/>
<feGaussianBlur stdDeviation="10"/>
<feComposite in2="hardAlpha" operator="out"/>
<feColorMatrix type="matrix" values="0 0 0 0 0 0 0 0 0 0 0 0 0 0 0 0 0 0 0.05 0"/>
<feBlend mode="normal" in2="BackgroundImageFix" result="effect1_dropShadow_176_1448"/>
<feBlend mode="normal" in="SourceGraphic" in2="effect1_dropShadow_176_1448" result="shape"/>
</filter>
<filter id="filter1_d_176_1448" x="70.1162" y="150.031" width="114.884" height="135.807" filterUnits="userSpaceOnUse" color-interpolation-filters="sRGB">
<feFlood flood-opacity="0" result="BackgroundImageFix"/>
<feColorMatrix in="SourceAlpha" type="matrix" values="0 0 0 0 0 0 0 0 0 0 0 0 0 0 0 0 0 0 127 0" result="hardAlpha"/>
<feOffset/>
<feGaussianBlur stdDeviation="10"/>
<feComposite in2="hardAlpha" operator="out"/>
<feColorMatrix type="matrix" values="0 0 0 0 0 0 0 0 0 0 0 0 0 0 0 0 0 0 0.3 0"/>
<feBlend mode="normal" in2="BackgroundImageFix" result="effect1_dropShadow_176_1448"/>
<feBlend mode="normal" in="SourceGraphic" in2="effect1_dropShadow_176_1448" result="shape"/>
</filter>
<linearGradient id="paint0_linear_176_1448" x1="28.001" y1="412.909" x2="209.197" y2="70.9976" gradientUnits="userSpaceOnUse">
<stop stop-color="#1F2434"/>
<stop offset="1" stop-color="#242F58"/>
</linearGradient>
<linearGradient id="paint1_linear_176_1448" x1="232.81" y1="206.372" x2="-122.305" y2="194.396" gradientUnits="userSpaceOnUse">
<stop/>
<stop offset="0.26" stop-color="#020202"/>
<stop offset="0.38" stop-color="#090909"/>
<stop offset="0.47" stop-color="#161616"/>
<stop offset="0.55" stop-color="#282828"/>
<stop offset="0.62" stop-color="#404040"/>
<stop offset="0.69" stop-color="#5E5E5E"/>
<stop offset="0.74" stop-color="#818181"/>
<stop offset="0.8" stop-color="#AAAAAA"/>
<stop offset="0.85" stop-color="#D6D6D6"/>
<stop offset="0.89" stop-color="white"/>
</linearGradient>
</defs>
</svg>
