<svg width="80" height="80" viewBox="0 0 80 80" fill="none" xmlns="http://www.w3.org/2000/svg">
<path d="M48.0021 36.4194C47.9916 34.3127 48.1913 32.4492 48.7276 30.6362C49.327 28.6207 50.4521 26.8989 52.0398 25.4607C53.1229 24.4783 54.4057 23.8503 55.7621 23.3135C57.2342 22.7261 58.7799 22.402 60.3256 22.1285C60.8619 22.0374 61.4192 22.0779 61.966 22.0374C63.6484 21.9361 65.3203 22.0374 66.9606 22.3817C69.4632 22.8983 71.766 23.8301 73.7848 25.3898C75.4672 26.6862 76.4977 28.3776 77.1076 30.3324C77.5808 31.8415 77.8541 33.3708 77.9593 34.9407C78.138 37.4626 77.7174 39.9035 76.9078 42.2836C76.0456 44.7853 74.3211 46.6084 71.9868 47.9149C70.3464 48.8366 68.5484 49.3126 66.7082 49.6468C65.1836 49.9203 63.6379 50.0519 62.0922 49.9811C58.9271 49.819 55.9514 49.0087 53.2806 47.3275C52.2081 46.6489 51.2512 45.8386 50.5152 44.8258C49.5898 43.5598 48.9484 42.1621 48.5278 40.6732C48.1177 39.1945 47.981 37.7057 48.0021 36.4093V36.4194ZM67.7072 36.389C67.7072 35.7712 67.7387 35.1534 67.7072 34.5356C67.6651 33.6848 67.623 32.834 67.4758 31.9934C67.3812 31.4161 67.1814 30.8286 66.887 30.3324C66.4033 29.512 65.5831 29.0461 64.6368 28.884C63.5853 28.7017 62.5338 28.641 61.4613 28.9144C60.4308 29.1879 59.537 29.5424 59.0428 30.5653C58.7274 31.2236 58.5171 31.8921 58.475 32.5909C58.3909 34.1304 58.3488 35.6598 58.3278 37.1993C58.3173 38.3944 58.475 39.5693 58.8115 40.7239C59.0533 41.5645 59.4529 42.2938 60.3362 42.6584C60.7778 42.8407 61.2194 43.023 61.6821 43.1141C62.2499 43.2255 62.8387 43.3066 63.4065 43.2661C64.0164 43.2255 64.6052 43.0331 65.2046 42.8913C66.3402 42.6179 67.0237 41.8886 67.3391 40.8252C67.7597 39.3768 67.7177 37.8779 67.7072 36.389Z" fill="#217CBF"/>
<path d="M27.5162 47.6308C27.5162 48.1583 27.4949 48.6148 27.5162 49.0713C27.5269 49.3655 27.4096 49.4264 27.1325 49.4264C25.2988 49.4163 23.4652 49.4163 21.6316 49.4264C21.3331 49.4264 21.2478 49.3452 21.2478 49.0713C21.2478 46.0076 21.2478 42.9439 21.2478 39.8802C21.2478 39.6164 21.3224 39.5251 21.6102 39.5251C23.1667 39.5251 24.7338 39.4946 26.2903 39.4744C26.6954 39.4744 26.9619 39.5454 27.2071 39.9309C28.2518 41.5946 29.8723 42.5482 31.7592 43.1772C33.241 43.6743 34.7762 43.8366 36.3326 43.7149C37.1002 43.654 37.8571 43.4511 38.614 43.2787C38.9338 43.2076 39.179 42.9946 39.243 42.6598C39.3176 42.2946 39.1471 42.0106 38.8272 41.8381C38.5287 41.6859 38.2196 41.5338 37.8998 41.4424C35.2879 40.6714 32.676 39.9106 30.0642 39.1497C28.6676 38.7439 27.2178 38.4294 25.9491 37.7193C25.1069 37.2527 24.318 36.6845 23.5825 36.086C22.4951 35.2034 21.7168 34.0773 21.3224 32.7585C21.1198 32.0687 20.9173 31.3585 21.0346 30.6078C21.1412 29.989 21.0985 29.3499 21.2051 28.731C21.4823 27.1992 22.1646 25.8499 23.3692 24.7644C24.8617 23.4355 26.6527 22.705 28.6356 22.3094C29.9789 22.0355 31.3328 21.9645 32.6973 22.0152C34.4564 22.0862 36.1727 22.3804 37.8678 22.8775C38.8272 23.1615 39.6055 23.7094 40.4796 24.1253C40.6289 24.1963 40.7995 24.2267 41.0233 24.2978C41.0233 23.8311 41.034 23.4355 41.0233 23.05C41.0233 22.7963 41.098 22.6949 41.3858 22.6949C43.1555 22.6949 44.9358 22.6949 46.7055 22.6949C46.9187 22.6949 47.0893 22.6949 47.0893 22.9891C47.0786 25.9311 47.0893 28.8731 47.0893 31.815C47.0893 31.8353 47.0893 31.8556 47.0679 31.9165C46.972 31.9165 46.876 31.9368 46.7694 31.9368C45.0424 31.9368 43.3154 31.9368 41.5777 31.9368C41.4178 31.9368 41.1832 31.8759 41.098 31.7643C39.808 30.0499 37.9957 29.1267 35.9275 28.5383C34.467 28.1325 32.9852 28.031 31.482 28.0615C30.981 28.0615 30.5012 28.2035 30.1068 28.518C29.5098 28.9847 29.5524 29.7354 30.2347 30.0701C30.7464 30.3238 31.3115 30.4962 31.8765 30.6585C33.2304 31.0542 34.5843 31.4295 35.9382 31.8049C37.6652 32.2919 39.4029 32.7281 41.1193 33.2556C41.9721 33.5194 42.8356 33.844 43.5926 34.3107C44.5414 34.8889 45.3729 35.6396 46.1085 36.4715C47.1106 37.5874 47.7396 38.8657 47.9208 40.3164C48.2939 43.2685 47.3558 45.7641 44.9571 47.7322C44.2642 48.3003 43.4646 48.6858 42.6224 49.0206C41.0766 49.6394 39.4669 49.8931 37.8145 49.9742C34.7442 50.1365 31.8445 49.5278 29.0727 48.28C28.7209 48.1177 28.3904 47.9148 28.0493 47.7525C27.9107 47.6916 27.7508 47.6713 27.5376 47.6206L27.5162 47.6308Z" fill="#217CBF"/>
<path d="M6.16216 28.8437C5.10845 28.8437 4.07581 28.8437 3.05371 28.8437C2.38636 28.8437 2.05269 28.5208 2.05269 27.875C2.05269 26.6979 2.05269 25.5104 2.05269 24.3333C2.05269 23.7292 2 23.1354 2 22.5313C2 22.0208 2.03161 22 2.52686 22C3.79131 22 5.05576 22 6.32022 22.0104C6.98405 22.0104 7.64789 22.0521 8.31173 22.0625C8.69107 22.0625 9.08094 22.0104 9.46028 22.0104C11.8311 22.0313 14.202 22.0625 16.5728 22.0729C17.5633 22.0729 18.5643 22.0729 19.5548 22.0521C19.8815 22.0521 19.9974 22.125 19.9974 22.4688C19.9763 24.2188 19.9763 25.9583 19.9763 27.7083C19.9763 27.9583 19.9763 28.2187 19.9974 28.4687C20.0185 28.7396 19.9131 28.8333 19.6391 28.8333C18.5538 28.8229 17.4579 28.8333 16.3726 28.8333C15.8247 28.8333 15.8247 28.8333 15.8247 29.375C15.8352 30.0417 15.8879 30.7188 15.8774 31.3854C15.8668 33.8854 15.8352 36.375 15.8247 38.875C15.8247 40.2083 15.8774 41.5312 15.8879 42.8646C15.8879 43.1667 16.0038 43.2604 16.3094 43.2604C17.3842 43.25 18.459 43.2604 19.5443 43.2604C19.6707 43.2604 19.7972 43.2604 19.9552 43.2604V49.9167C19.8604 49.9167 19.7445 49.9271 19.6391 49.9375C18.7751 49.9583 17.911 49.9792 17.047 49.9896C16.773 49.9896 16.4885 49.9375 16.2146 49.9375C13.7594 49.9375 11.3043 49.9375 8.83859 49.9375C8.20636 49.9375 7.57413 50 6.95244 50C6.05679 50 5.16113 49.9479 4.25494 49.9375C3.62272 49.9375 3.00103 49.9375 2.3688 49.9479C2.12645 49.9479 2.04215 49.8646 2.04215 49.625C2.04215 47.6042 2.04215 45.5729 2.04215 43.5521C2.04215 43.3542 2.0843 43.2604 2.31611 43.25C2.97995 43.25 3.64379 43.1979 4.30763 43.1979C4.7818 43.1979 5.26651 43.2292 5.74067 43.2604C6.06733 43.2812 6.19377 43.1875 6.19377 42.8437C6.1727 41.7917 6.19377 40.7396 6.19377 39.6875C6.19377 37.7396 6.19377 35.7917 6.19377 33.8438C6.19377 32.2917 6.19377 30.7396 6.18323 29.1979C6.18323 29.1146 6.1727 29.0417 6.16216 28.8542V28.8437Z" fill="#217CBF"/>
<path d="M65 53.0599C60.7117 60.0087 51.6053 66.8376 39.4431 66.9974C33.8509 67.0672 28.5847 65.7494 23.7667 63.0737C19.4071 60.6576 15.7808 57.333 13 53.0599H14.1714C15.3632 54.7072 16.8605 56.4943 18.3783 57.8621C18.9792 58.4013 19.6108 58.9005 20.2219 59.4296C20.4257 59.5993 20.609 59.6093 20.8331 59.4795C21.648 59.0103 22.4731 58.541 23.288 58.0718C23.6343 57.8721 23.6648 57.6924 23.4102 57.3729C22.8398 56.6741 22.249 55.9852 21.7091 55.2663C21.2405 54.6473 20.8229 53.9884 20.3849 53.3395C20.334 53.2596 20.2932 53.1697 20.2321 53.0399C20.5988 53.0399 21.0063 53.0399 21.322 53.0599C21.3628 53.1198 21.4239 53.1597 21.4952 53.2496C22.4731 54.4876 23.4407 55.7156 24.3982 56.9636C24.6223 57.2631 24.8261 57.2731 25.1826 57.1233C26.0789 56.7439 27.0059 56.4344 27.9328 56.115C28.5542 55.8953 29.1959 55.7156 29.8274 55.5059C29.9191 55.476 30.0108 55.4261 30.1432 55.3662C30.0413 55.1266 29.9497 54.8869 29.8478 54.6673C29.6543 54.238 29.2468 53.4293 29.0533 53H30.2043C30.3571 53.4193 30.9479 54.4377 31.1516 54.847C31.2331 55.0167 31.335 55.0866 31.5183 55.0567C31.7933 55.0068 32.0684 54.9568 32.3536 54.9269C33.8407 54.7372 35.3177 54.5475 36.8049 54.3678C37.2633 54.3079 37.7318 54.2779 38.1902 54.2679C38.4347 54.2679 38.5162 54.1681 38.4958 53.9485V53.01H39.6061V53.9185C39.5755 54.1481 39.6977 54.238 39.9117 54.248C41.0423 54.3378 42.1832 54.3878 43.3138 54.5275C44.4037 54.6573 45.4936 54.867 46.5734 55.0766C46.8586 55.1365 46.9604 55.0467 47.0623 54.837C47.3068 54.3378 47.6531 53.5391 47.8874 53.0399L49.018 53.0599C48.855 53.4892 48.7124 53.8686 48.5698 54.238C48.468 54.4976 48.3355 54.7372 48.2337 54.9968C48.1013 55.3362 48.142 55.3961 48.4985 55.5259C49.4458 55.8454 50.3931 56.1649 51.3303 56.4943C51.8905 56.694 52.4507 56.8937 53.0008 57.1133C53.2554 57.2132 53.4388 57.1932 53.6221 56.9636C54.5389 55.7955 55.476 54.6473 56.3622 53.4593C56.4335 53.3594 56.5354 53.1298 56.5965 53.0499H57.8188C57.7169 53.2196 57.6456 53.3594 57.5642 53.4892C56.7085 54.857 55.7408 56.1549 54.6611 57.3629C54.4065 57.6425 54.4166 57.7623 54.7528 57.952C55.6288 58.4512 56.515 58.9404 57.4012 59.4296C57.6864 59.5893 57.9105 59.4496 58.104 59.2798C59.0819 58.3813 60.1107 57.5227 61.0172 56.5543C61.9747 55.5259 62.9424 54.1382 63.8184 53.0499H65V53.0599ZM39.6672 55.4061C39.6672 55.6557 39.6672 55.9253 39.6672 56.1948C39.6468 56.9436 39.6163 57.7024 39.6061 58.4512C39.6061 58.7607 39.6672 59.0702 39.6672 59.3797C39.6672 60.1285 39.6876 60.8773 39.6672 61.626C39.6672 61.9256 39.7894 62.0154 40.0441 62.0454C40.6451 62.1252 41.246 62.2151 41.847 62.3049C42.1628 62.3549 42.3971 62.285 42.6008 62.0054C43.436 60.7874 44.3222 59.5993 45.1473 58.3813C45.5446 57.7922 45.8807 57.1633 46.227 56.5443C46.4104 56.2248 46.3696 56.1549 46.0233 56.065C45.7279 55.9952 45.4325 55.9153 45.1371 55.8654C44.0065 55.7056 42.8656 55.5259 41.7248 55.4161C41.0729 55.3562 40.4006 55.4061 39.6774 55.4061H39.6672ZM38.506 55.3262C38.343 55.3262 38.2208 55.3262 38.0985 55.3262C36.7743 55.4361 35.4501 55.5359 34.126 55.6857C33.4842 55.7555 32.8425 55.9253 32.211 56.065C31.9767 56.115 31.8748 56.2448 32.0072 56.5043C33.0972 58.4911 34.3399 60.3681 35.7965 62.1053C35.8881 62.2151 36.1122 62.3049 36.2548 62.285C36.8864 62.2051 37.5179 62.0554 38.1495 61.9954C38.506 61.9655 38.5467 61.7758 38.5365 61.5262C38.5365 60.9871 38.4958 60.448 38.4958 59.8988C38.4958 58.9304 38.4958 57.952 38.4958 56.9836C38.4958 56.4444 38.4958 55.9053 38.4958 55.3262H38.506ZM32.7916 63.4631C32.8527 63.4531 32.8832 63.4531 32.9138 63.4331C33.4639 63.2035 34.0037 62.9739 34.5538 62.7343C34.7575 62.6444 34.6862 62.5146 34.5945 62.3848C34.3195 62.0054 34.0343 61.636 33.7796 61.2467C32.8221 59.7591 31.8646 58.2715 30.9377 56.7739C30.7442 56.4644 30.5405 56.3945 30.2552 56.4943C28.8699 56.9736 27.4744 57.4628 26.0993 57.952C25.753 58.0718 25.7122 58.3513 25.9975 58.581C27.1077 59.5095 28.1976 60.4679 29.369 61.3265C30.3673 62.0554 31.4674 62.6644 32.5166 63.3233C32.6082 63.3832 32.7203 63.4132 32.8018 63.4531L32.7916 63.4631ZM43.4972 62.7343C44.0472 62.9439 44.5158 63.1236 44.9843 63.3233C45.2186 63.4231 45.4121 63.3832 45.626 63.2534C46.3187 62.8341 47.0215 62.4447 47.704 62.0254C49.3134 61.037 50.7598 59.829 52.0942 58.5011C52.3998 58.2016 52.3591 58.0418 51.9516 57.8721C50.6274 57.303 49.2727 56.8438 47.867 56.5243C47.5716 56.4544 47.4494 56.5443 47.3068 56.7739C46.7873 57.6924 46.278 58.6109 45.6974 59.4995C45.1066 60.398 44.4445 61.2566 43.8129 62.1352C43.6907 62.305 43.6092 62.5146 43.487 62.7442L43.4972 62.7343ZM45.6566 65.2801C45.6159 64.9008 45.6159 64.9007 45.3205 64.721C43.0388 63.3233 40.5534 62.874 37.905 63.1136C36.591 63.2334 35.3381 63.533 34.1361 64.0721C33.6676 64.2818 33.2194 64.5413 32.7814 64.8109C32.6897 64.8608 32.6388 65.0305 32.6286 65.1404C32.6286 65.1903 32.7814 65.2801 32.8731 65.3001C33.4027 65.3999 33.9324 65.5197 34.4621 65.5797C35.7761 65.7294 37.1003 65.8792 38.4245 65.959C39.2394 66.009 40.0746 65.959 40.8997 65.9091C41.7452 65.8592 42.5804 65.7693 43.4157 65.6595C44.1593 65.5597 44.8927 65.4199 45.6668 65.2901L45.6566 65.2801ZM53.6018 58.6209C53.4897 58.7008 53.3675 58.7707 53.2656 58.8605C52.0942 59.8589 50.9534 60.9072 49.731 61.8657C48.8041 62.5845 47.7855 63.1935 46.8178 63.8624C46.716 63.9323 46.6039 64.112 46.6243 64.2218C46.665 64.4914 47.2151 64.8009 47.5003 64.721C48.142 64.5513 48.7837 64.3816 49.4051 64.1619C51.8599 63.3233 54.1416 62.1552 56.2501 60.6676C56.6474 60.3881 56.6372 60.2083 56.2094 59.9687C55.4862 59.5694 54.7528 59.17 54.0194 58.7807C53.9073 58.7207 53.7749 58.6808 53.6119 58.6209H53.6018ZM24.5612 58.6908C24.4288 58.7307 24.3269 58.7407 24.2353 58.7906C23.4407 59.21 22.6564 59.6393 21.8721 60.0786C21.6582 60.1984 21.6684 60.4979 21.8823 60.6576C22.0656 60.7874 22.249 60.9172 22.4323 61.037C24.8261 62.5945 27.3828 63.8025 30.133 64.6112C30.5506 64.731 30.9377 64.8508 31.335 64.5214C31.6405 64.2618 31.6609 64.0521 31.3146 63.8325C30.6831 63.4431 30.0413 63.0737 29.4302 62.6544C27.78 61.5362 26.2521 60.2682 24.8464 58.8705C24.7649 58.7906 24.6529 58.7407 24.5612 58.6908Z" fill="#217CBF"/>
<path d="M63.8078 18.9293C63.7466 18.8789 63.6753 18.788 63.6243 18.7173C62.534 17.1425 61.2806 15.6988 59.8642 14.3965C59.1815 13.7706 58.4682 13.1952 57.765 12.5895C57.5307 12.3876 57.3167 12.4582 57.0925 12.5895C56.3384 13.0337 55.5742 13.4779 54.8099 13.912C54.4533 14.1139 54.3819 14.336 54.6367 14.659C54.9628 15.0729 55.3296 15.4565 55.6455 15.8805C56.369 16.8699 57.0721 17.8794 57.7854 18.889H56.5015C55.6047 17.6371 54.5654 16.1127 53.4852 14.9821C53.312 14.8003 53.1693 14.7701 52.9247 14.8508C51.3555 15.4162 49.7862 15.9613 48.2169 16.5065C48.1456 16.5367 48.0743 16.567 47.9214 16.6377L48.8691 18.9798C48.594 18.9798 47.8705 18.9697 47.6361 18.9798L46.7699 17.3141C46.6375 17.0415 46.668 16.9204 46.3114 16.9809C44.9765 17.2232 43.6212 17.4251 42.2761 17.5968C41.4711 17.7078 40.2687 17.6977 39.4535 17.7785V18.9697H38.2408C38.2408 18.4549 38.2306 17.8592 38.2001 17.8088C38.0982 17.6573 37.8434 17.7179 37.4154 17.7179C36.3047 17.7179 35.2042 17.5463 34.0935 17.4049C33.156 17.2838 32.2389 17.092 31.3014 16.9507C31.1995 16.9406 31.0568 16.9204 30.9753 17.1223C30.7307 17.5867 30.4862 18.1217 30.2824 18.6063L30.1499 19H28.9679C29.029 18.8688 29.0698 18.7577 29.1105 18.6568C29.3143 18.1823 29.4876 17.7078 29.6914 17.2333C29.7627 17.0617 29.8544 16.8901 29.9257 16.668C29.3857 16.4863 28.866 16.3247 28.3565 16.1329C27.2457 15.7291 26.135 15.3253 25.0345 14.9114C24.7797 14.8104 24.6167 14.8508 24.4537 15.0527C23.5875 16.143 22.6908 17.2131 21.845 18.3135L21.3864 18.9697H20.2452C20.6426 18.3539 20.989 17.7482 21.3966 17.1828C22.0284 16.3146 22.7112 15.4767 23.3735 14.6287C23.6384 14.2855 23.6181 14.2451 23.241 14.0331C22.436 13.5889 21.6208 13.1447 20.8362 12.6601C20.5101 12.4582 20.2859 12.4986 20.021 12.7106C18.0645 14.2552 16.3627 16.0421 14.8546 18.0107L14.233 18.889L13 18.9091C17.8199 11.8727 24.3925 7.40048 32.7382 5.67418C39.9528 4.18007 46.9126 5.17951 53.475 8.57154C58.2032 11.0045 62.0245 14.5581 65 18.9192L63.8078 18.9394V18.9293ZM38.5058 10.5603C38.5058 10.2272 38.3733 10.0656 38.0472 10.0253C37.3951 9.9445 36.7531 9.83345 36.1111 9.77288C35.9684 9.76278 35.7545 9.85364 35.6627 9.97479C34.98 10.8632 34.2871 11.7516 33.6553 12.6803C33.0541 13.5687 32.514 14.5076 31.9739 15.4364C31.7396 15.8402 31.8211 15.9916 32.2694 16.0825C32.6567 16.1632 33.0439 16.2238 33.4311 16.2844C34.9902 16.5367 36.5493 16.5872 38.1287 16.6882C38.3427 16.6983 38.4243 16.6478 38.4141 16.3348L38.5058 10.5603ZM46.1687 15.8906C46.0872 15.719 46.0363 15.5979 45.9751 15.4868C45.6287 14.8912 45.3229 14.2855 44.9357 13.7201C44.0594 12.4481 43.1525 11.1963 42.2455 9.9445C42.1946 9.87383 42.0519 9.80317 41.9704 9.81326C41.2877 9.88393 40.6049 9.98488 39.9222 10.0555C39.6267 10.0858 39.5655 10.2474 39.5655 10.5098C39.5655 12.1453 39.4942 13.7706 39.4942 15.4061C39.4942 15.8402 39.4942 16.1935 39.4942 16.6781C41.6953 16.5973 43.9982 16.4964 46.1585 15.9007L46.1687 15.8906ZM45.1191 8.59173C45.0478 8.61192 44.9969 8.62201 44.9459 8.6422C44.5179 8.82392 44.0899 8.99554 43.6722 9.17726C43.3155 9.33878 43.3053 9.40945 43.5091 9.7224C44.7319 11.6001 45.9547 13.4779 47.1775 15.3556C47.2998 15.5373 47.4119 15.6181 47.6463 15.5474C48.4207 15.3152 49.2054 15.1234 49.9798 14.8609C50.6727 14.6287 51.3351 14.3259 52.0178 14.0533C52.2828 13.9523 52.3032 13.8009 52.1197 13.599C52.0382 13.5081 51.9669 13.4072 51.8752 13.3264C51.3759 12.8923 50.8664 12.4683 50.3772 12.0342C48.9099 10.7218 47.2896 9.63155 45.5267 8.76335C45.3943 8.70278 45.2618 8.6523 45.1293 8.60182L45.1191 8.59173ZM30.4454 15.6685C30.5473 15.5777 30.69 15.507 30.7715 15.3859C31.1689 14.7398 31.5256 14.0634 31.9332 13.4274C32.5344 12.4784 33.1662 11.5598 33.7878 10.631C33.9916 10.3382 34.2259 10.0555 34.4196 9.76278C34.5316 9.60126 34.6132 9.40945 34.3482 9.2883C33.9406 9.09649 33.533 8.91478 33.1152 8.72297C32.891 8.62201 32.6974 8.63211 32.4834 8.77344C31.1689 9.64164 29.8238 10.4594 28.5501 11.3881C27.6432 12.0443 26.8279 12.8318 25.972 13.5586C25.6765 13.811 25.6968 14.0331 26.0637 14.1744C26.8891 14.4975 27.7247 14.8104 28.5603 15.1032C29.1513 15.3051 29.7627 15.4666 30.4352 15.6786L30.4454 15.6685ZM39.0153 9.03592C39.5248 8.97535 40.2177 8.90468 40.9106 8.81382C42.4493 8.62201 43.8861 8.10715 45.1905 7.26924C45.3026 7.19857 45.3739 7.06733 45.4656 6.96638C45.3433 6.87552 45.221 6.72409 45.0784 6.69381C44.7217 6.61304 44.3345 6.60295 43.9779 6.52219C42.6837 6.18904 41.3488 6.11837 40.0241 6.07799C38.4752 6.02752 36.9263 6.04771 35.3876 6.2799C34.5011 6.41114 33.6145 6.55247 32.728 6.7039C32.6261 6.72409 32.4529 6.83514 32.4631 6.89571C32.4733 7.01686 32.565 7.1481 32.6567 7.23895C32.7688 7.35 32.9114 7.42067 33.0439 7.50143C34.817 8.56144 36.7837 8.93497 39.0153 9.04602V9.03592ZM30.7206 7.18848C30.1601 7.37019 29.671 7.52162 29.192 7.69324C27.4393 8.30906 25.7274 9.04602 24.1174 9.96469C23.3226 10.419 22.5481 10.9338 21.7839 11.4487C21.4883 11.6405 21.5189 11.8525 21.8144 12.014C22.5787 12.4481 23.3429 12.8721 24.1174 13.2961C24.3619 13.4274 24.5861 13.4173 24.8103 13.1952C26.8076 11.2872 28.9781 9.60126 31.3523 8.17782C31.4441 8.11725 31.5358 7.87496 31.5052 7.83458C31.2606 7.60239 30.9855 7.40048 30.7206 7.18848ZM53.5463 13.3264C53.7196 13.2558 53.8724 13.2154 54.0049 13.1346C54.6673 12.7611 55.3194 12.3573 55.992 11.9938C56.4098 11.7617 56.4403 11.6001 56.0429 11.3377C54.5653 10.3281 53.0267 9.39935 51.3759 8.71287C50.0715 8.16772 48.7162 7.75382 47.3813 7.28943C47.1062 7.18848 46.5254 7.54181 46.505 7.82448C46.505 7.93553 46.5865 8.09706 46.6884 8.16772C47.4934 8.70278 48.329 9.20754 49.134 9.75269C50.5606 10.7218 51.8446 11.8626 53.098 13.0539C53.2203 13.1649 53.3833 13.2356 53.5463 13.3264Z" fill="#217CBF"/>
<path d="M27.6508 78V77.1136L29.7218 75.196C29.898 75.0256 30.0457 74.8722 30.165 74.7358C30.2862 74.5994 30.3781 74.4659 30.4406 74.3352C30.5031 74.2027 30.5343 74.0597 30.5343 73.9062C30.5343 73.7358 30.4955 73.589 30.4179 73.4659C30.3402 73.3409 30.2341 73.2453 30.0997 73.179C29.9652 73.1108 29.8127 73.0767 29.6423 73.0767C29.4643 73.0767 29.309 73.1127 29.1764 73.1847C29.0438 73.2566 28.9415 73.3598 28.8696 73.4943C28.7976 73.6288 28.7616 73.7888 28.7616 73.9744H27.594C27.594 73.5937 27.6802 73.2633 27.8525 72.983C28.0249 72.7027 28.2663 72.4858 28.5769 72.3324C28.8876 72.179 29.2455 72.1023 29.6508 72.1023C30.0675 72.1023 30.4302 72.1761 30.7389 72.3239C31.0495 72.4697 31.291 72.6723 31.4633 72.9318C31.6357 73.1913 31.7218 73.4886 31.7218 73.8239C31.7218 74.0436 31.6783 74.2604 31.5912 74.4744C31.5059 74.6884 31.3535 74.9261 31.1338 75.1875C30.9141 75.447 30.6044 75.7585 30.2048 76.1222L29.3554 76.9545V76.9943H31.7985V78H27.6508ZM32.68 78L35.0919 73.2273V73.1875H32.2823V72.1818H36.3646V73.2017L33.9499 78H32.68ZM39.1239 78.1278C38.6353 78.1259 38.2148 78.0057 37.8626 77.767C37.5122 77.5284 37.2423 77.1828 37.0529 76.7301C36.8654 76.2775 36.7726 75.733 36.7745 75.0966C36.7745 74.4621 36.8683 73.9214 37.0558 73.4744C37.2451 73.0275 37.515 72.6875 37.8654 72.4545C38.2177 72.2197 38.6372 72.1023 39.1239 72.1023C39.6107 72.1023 40.0292 72.2197 40.3796 72.4545C40.7319 72.6894 41.0027 73.0303 41.1921 73.4773C41.3815 73.9223 41.4753 74.4621 41.4734 75.0966C41.4734 75.7348 41.3787 76.2803 41.1893 76.733C41.0018 77.1856 40.7328 77.5312 40.3825 77.7699C40.0321 78.0085 39.6126 78.1278 39.1239 78.1278ZM39.1239 77.108C39.4573 77.108 39.7234 76.9403 39.9222 76.6051C40.1211 76.2699 40.2196 75.767 40.2177 75.0966C40.2177 74.6553 40.1722 74.2879 40.0813 73.9943C39.9923 73.7008 39.8654 73.4801 39.7006 73.3324C39.5378 73.1847 39.3455 73.1108 39.1239 73.1108C38.7925 73.1108 38.5273 73.2765 38.3285 73.608C38.1296 73.9394 38.0292 74.4356 38.0273 75.0966C38.0273 75.5436 38.0719 75.9167 38.1609 76.2159C38.2518 76.5133 38.3796 76.7367 38.5444 76.8864C38.7092 77.0341 38.9023 77.108 39.1239 77.108ZM44.3917 78.1278C43.9031 78.1259 43.4827 78.0057 43.1304 77.767C42.78 77.5284 42.5101 77.1828 42.3207 76.7301C42.1332 76.2775 42.0404 75.733 42.0423 75.0966C42.0423 74.4621 42.1361 73.9214 42.3236 73.4744C42.513 73.0275 42.7828 72.6875 43.1332 72.4545C43.4855 72.2197 43.905 72.1023 44.3917 72.1023C44.8785 72.1023 45.297 72.2197 45.6474 72.4545C45.9997 72.6894 46.2705 73.0303 46.4599 73.4773C46.6493 73.9223 46.7431 74.4621 46.7412 75.0966C46.7412 75.7348 46.6465 76.2803 46.4571 76.733C46.2696 77.1856 46.0006 77.5312 45.6503 77.7699C45.2999 78.0085 44.8804 78.1278 44.3917 78.1278ZM44.3917 77.108C44.7251 77.108 44.9912 76.9403 45.19 76.6051C45.3889 76.2699 45.4874 75.767 45.4855 75.0966C45.4855 74.6553 45.44 74.2879 45.3491 73.9943C45.2601 73.7008 45.1332 73.4801 44.9685 73.3324C44.8056 73.1847 44.6133 73.1108 44.3917 73.1108C44.0603 73.1108 43.7952 73.2765 43.5963 73.608C43.3974 73.9394 43.297 74.4356 43.2952 75.0966C43.2952 75.5436 43.3397 75.9167 43.4287 76.2159C43.5196 76.5133 43.6474 76.7367 43.8122 76.8864C43.977 77.0341 44.1702 77.108 44.3917 77.108ZM49.9096 72.1818V78H48.6794V73.3494H48.6454L47.313 74.1847V73.0938L48.7533 72.1818H49.9096Z" fill="#217CBF"/>
</svg>
