<svg width="80" height="80" viewBox="0 0 80 80" fill="none" xmlns="http://www.w3.org/2000/svg">
<path d="M69 36.1615V14.2827C58.5813 8.79751 48.6326 6.9846 40 7.0001C31.3674 7.0001 21.4187 8.79751 11 14.2827V36.1615C11 36.1615 11 50.6957 18.0816 58.908C27.1529 68.5303 39.577 73.7831 40 74C40.423 73.7831 52.8471 68.5303 61.9184 58.908C69 49.2391 69 36.1615 69 36.1615Z" stroke="#044C8F" stroke-width="4" stroke-miterlimit="10"/>
<path d="M23.9953 34.2784L27.6557 33.834C27.7667 34.7705 28.0836 35.4847 28.5907 35.9767C29.0977 36.4687 29.7157 36.7227 30.4447 36.7227C31.2211 36.7227 31.8867 36.4211 32.4254 35.8339C32.9642 35.2307 33.2336 34.4371 33.2336 33.4372C33.2336 32.4849 32.98 31.7231 32.473 31.1675C31.9659 30.612 31.332 30.3263 30.6031 30.3263C30.1119 30.3263 29.5414 30.4216 28.8601 30.612L29.2721 27.517C30.302 27.5488 31.0785 27.3266 31.6173 26.8504C32.156 26.3742 32.4254 25.7552 32.4254 24.9616C32.4254 24.295 32.2353 23.7713 31.8233 23.3745C31.4271 22.9777 30.9042 22.7872 30.2387 22.7872C29.5731 22.7872 29.0344 23.0094 28.5748 23.4538C28.1153 23.8982 27.8459 24.5649 27.735 25.4219L24.2488 24.8188C24.4865 23.6284 24.851 22.6602 25.3422 21.946C25.8334 21.2318 26.5148 20.6604 27.3864 20.2636C28.2579 19.8668 29.2404 19.6446 30.3337 19.6446C32.1877 19.6446 33.6931 20.2318 34.8023 21.4222C35.7214 22.3904 36.1968 23.4856 36.1968 24.7236C36.1968 26.4536 35.246 27.8503 33.3603 28.882C34.4854 29.1201 35.4045 29.6756 36.07 30.5168C36.7356 31.358 37.0842 32.3897 37.0842 33.5801C37.0842 35.3101 36.4503 36.802 35.1827 38.0242C33.915 39.2463 32.3462 39.8653 30.4447 39.8653C28.6541 39.8653 27.1804 39.3415 25.9919 38.3257C24.8193 37.2941 24.1379 35.945 23.9478 34.2784H23.9953Z" fill="#044C8F"/>
<path d="M40.2534 19.7398H47.4C49.0163 19.7398 50.2365 19.8668 51.0922 20.1207C52.2331 20.4699 53.1997 21.073 54.0078 21.946C54.816 22.8189 55.434 23.8823 55.8618 25.1521C56.2897 26.4218 56.4957 27.9773 56.4957 29.8343C56.4957 31.4691 56.3055 32.8658 55.8935 34.0403C55.4023 35.4847 54.7209 36.6433 53.8177 37.5321C53.1363 38.1988 52.2172 38.7384 51.0763 39.1193C50.2206 39.405 49.0639 39.532 47.6219 39.532H40.2693V19.7398H40.2534ZM44.1674 23.0888V36.1989H47.0831C48.1765 36.1989 48.9688 36.1354 49.4442 36.0084C50.078 35.8497 50.6009 35.564 51.0288 35.1831C51.4408 34.8022 51.7894 34.1514 52.0588 33.2785C52.3282 32.4055 52.4549 31.1834 52.4549 29.6597C52.4549 28.136 52.3282 26.9615 52.0588 26.1361C51.7894 25.3108 51.4249 24.6759 50.9495 24.2157C50.4742 23.7554 49.872 23.4379 49.1431 23.2792C48.6043 23.1522 47.5268 23.0888 45.9263 23.0888H44.1674Z" fill="#044C8F"/>
<path d="M22.696 49.6106L23.9637 49.4836C24.043 49.928 24.2014 50.2614 24.4233 50.4677C24.6451 50.674 24.9779 50.7851 25.374 50.7851C25.786 50.7851 26.103 50.6899 26.3248 50.4994C26.5308 50.309 26.6417 50.0868 26.6417 49.8487C26.6417 49.69 26.5942 49.5471 26.515 49.436C26.4199 49.3249 26.2614 49.2297 26.0396 49.1345C25.8811 49.071 25.5325 48.9757 24.9937 48.8329C24.2965 48.6424 23.8053 48.4202 23.52 48.1663C23.1239 47.7853 22.9179 47.3409 22.9179 46.8013C22.9179 46.4521 23.013 46.1347 23.2031 45.8331C23.3933 45.5315 23.6627 45.2935 24.0113 45.1347C24.3599 44.976 24.7877 44.8967 25.279 44.8967C26.0871 44.8967 26.7051 45.0871 27.1171 45.4522C27.5291 45.8172 27.7351 46.3251 27.7668 46.96L26.4674 47.0235C26.404 46.6743 26.2931 46.4204 26.103 46.2616C25.9128 46.1029 25.6434 46.0394 25.279 46.0394C24.9145 46.0394 24.5976 46.1188 24.3916 46.2934C24.249 46.4045 24.1856 46.5473 24.1856 46.7219C24.1856 46.8807 24.249 47.0235 24.3757 47.1346C24.5342 47.2774 24.9462 47.4362 25.58 47.5949C26.2139 47.7536 26.6893 47.9123 26.9903 48.0869C27.2914 48.2615 27.5291 48.4837 27.7034 48.7853C27.8777 49.0868 27.957 49.436 27.957 49.8646C27.957 50.2614 27.8619 50.6264 27.6559 50.9597C27.4499 51.293 27.1646 51.5628 26.7843 51.7216C26.404 51.8803 25.9445 51.9755 25.374 51.9755C24.55 51.9755 23.932 51.7851 23.4884 51.3724C23.0447 50.9756 22.7911 50.3883 22.696 49.6265V49.6106Z" fill="#044C8F"/>
<path d="M28.6064 51.8327V45.0237H33.4078V46.1823H29.9217V47.6901H33.1701V48.8329H29.9217V50.6899H33.5346V51.8327H28.6223H28.6064Z" fill="#044C8F"/>
<path d="M38.3203 49.3249L39.588 49.7535C39.3979 50.4994 39.0651 51.0549 38.6214 51.4041C38.1777 51.7692 37.5914 51.9438 36.91 51.9438C36.0543 51.9438 35.3413 51.6422 34.7866 51.0232C34.232 50.4042 33.9626 49.563 33.9626 48.4837C33.9626 47.3568 34.2479 46.468 34.8025 45.8331C35.3571 45.2141 36.086 44.8967 36.9893 44.8967C37.7816 44.8967 38.4154 45.1506 38.9225 45.6426C39.2236 45.9283 39.4296 46.3569 39.588 46.8965L38.2886 47.2298C38.2094 46.8807 38.0509 46.595 37.8133 46.3886C37.5756 46.1823 37.2745 46.0871 36.9259 46.0871C36.4505 46.0871 36.0543 46.2616 35.7533 46.6267C35.4522 46.9918 35.3096 47.579 35.3096 48.3885C35.3096 49.2456 35.4522 49.8646 35.7533 50.2296C36.0543 50.5947 36.4346 50.7851 36.8942 50.7851C37.2428 50.7851 37.5439 50.674 37.7816 50.4359C38.0351 50.1979 38.2094 49.8328 38.3203 49.3408V49.3249Z" fill="#044C8F"/>
<path d="M40.2377 45.0078H41.5371V48.7059C41.5371 49.2932 41.5371 49.6741 41.5847 49.8487C41.6481 50.1344 41.7748 50.3566 41.9808 50.5153C42.1868 50.6899 42.472 50.7693 42.8365 50.7693C43.201 50.7693 43.4862 50.6899 43.6764 50.5312C43.8665 50.3725 43.9774 50.182 44.0091 49.9439C44.0408 49.7058 44.0725 49.3249 44.0725 48.7853V45.0078H45.3719V48.5948C45.3719 49.4202 45.3402 49.9915 45.261 50.3248C45.1976 50.6582 45.055 50.9439 44.8648 51.1819C44.6747 51.42 44.4211 51.5946 44.1042 51.7374C43.7873 51.8803 43.3753 51.9438 42.8682 51.9438C42.2502 51.9438 41.7748 51.8644 41.4579 51.7216C41.141 51.5787 40.8874 51.3724 40.6973 51.1343C40.5071 50.8962 40.3962 50.6423 40.3328 50.3725C40.2536 49.9757 40.2061 49.4043 40.2061 48.6424V45.0078H40.2377Z" fill="#044C8F"/>
<path d="M46.323 51.8327V45.0237H49.0643C49.7616 45.0237 50.2528 45.0871 50.5697 45.2141C50.8866 45.3411 51.1402 45.5474 51.3145 45.8649C51.5046 46.1823 51.5997 46.5315 51.5997 46.9441C51.5997 47.452 51.4571 47.8806 51.1719 48.2139C50.8866 48.5472 50.4588 48.7535 49.8883 48.8488C50.1736 49.0234 50.4112 49.2138 50.5856 49.4202C50.7757 49.6265 51.0134 49.9915 51.3303 50.5312L52.1226 51.8644H50.5539L49.6031 50.3883C49.2703 49.8646 49.0326 49.5313 48.9217 49.3884C48.7949 49.2456 48.6682 49.1503 48.5256 49.1027C48.3829 49.0551 48.1611 49.0234 47.86 49.0234H47.5906V51.8644H46.2913L46.323 51.8327ZM47.6223 47.8965H48.5889C49.2228 47.8965 49.6031 47.8647 49.7616 47.8171C49.92 47.7536 50.0468 47.6584 50.126 47.5314C50.2053 47.4044 50.2528 47.2298 50.2528 47.0235C50.2528 46.8013 50.1894 46.6108 50.0785 46.468C49.9676 46.3251 49.7933 46.2299 49.5873 46.1982C49.4763 46.1982 49.1594 46.1823 48.6365 46.1823H47.6223V47.9123V47.8965Z" fill="#044C8F"/>
<path d="M52.3914 51.8327V45.0237H57.1927V46.1823H53.7066V47.6901H56.955V48.8329H53.7066V50.6899H57.3195V51.8327H52.4072H52.3914Z" fill="#044C8F"/>
</svg>
