<svg width="80" height="80" viewBox="0 0 80 80" fill="none" xmlns="http://www.w3.org/2000/svg">
<path d="M1 18.7676L18.6503 67L79 47.9254L64.2205 15L1 18.7676Z" fill="#00686F"/>
<path d="M55.0465 50.8754C52.2753 51.7418 49.0333 51.9042 46.1625 51.6696C44.0162 51.4981 41.9424 51.0107 40.0225 50.018C36.5178 48.2129 34.7156 45.3158 34.6613 41.3898C34.616 37.5631 36.3457 34.6931 39.5968 32.7256C42.2684 31.1191 45.2207 30.6047 48.2997 30.6137C50.2558 30.6137 52.7191 30.8483 54.5846 31.4891L54.5575 37.0848C52.5017 36.0108 50.4551 35.4512 48.2726 35.6046C46.0085 35.8213 44.2245 36.8321 43.4547 38.8447C42.5944 41.0739 43.0472 43.61 44.3784 45.027C45.4471 46.1281 46.8417 46.5974 48.345 46.7508C50.3192 46.9494 52.2301 46.6064 54.0866 45.9837C54.3764 45.8844 54.6661 45.7851 55.0284 45.6678V50.8844L55.0465 50.8754Z" fill="#FAFAFA"/>
<path d="M62.2824 28.944C59.9097 28.953 58.0442 27.6444 57.6004 25.6498C56.9393 22.6715 58.814 20.2166 61.8749 20.0632C62.3911 20.0361 62.9073 20.0451 63.4235 20.1534C65.923 20.6769 67.2089 22.4368 67.0188 25.0722C66.8648 27.1751 65.117 28.7635 62.7805 28.9169C62.6175 28.926 62.4454 28.935 62.2824 28.944Z" fill="#FAFAFA"/>
<path d="M29.6262 32.3826C27.4527 31.3808 25.1706 30.9928 22.8069 30.9657C19.7369 30.9386 16.0692 30.9205 13.0083 30.9205L12.9268 51.3447C15.5077 51.3447 18.2065 51.3447 20.7874 51.3447V45.3429C21.9466 45.379 23.7578 45.3429 24.9079 45.1895C27.0271 44.9187 29.0375 44.3591 30.7944 43.0595C34.1542 40.5776 34.3897 34.4855 29.6171 32.3736L29.6262 32.3826ZM24.3012 40.4873C23.2688 41.0017 21.7745 40.8844 20.6425 40.8844V35.37C22.0553 35.37 23.0152 35.37 23.9842 35.74C24.9713 36.1191 25.5147 36.8411 25.5509 37.8971C25.5872 38.9711 25.3155 39.9729 24.3012 40.4783V40.4873Z" fill="#FAFAFA"/>
<path d="M66.0769 31.0379H58.4246V51.4349H66.0769V31.0379Z" fill="#FAFAFA"/>
</svg>
